<mxfile host="app.diagrams.net" agent="Mozilla/5.0 (X11; Linux x86_64) AppleWebKit/537.36 (KHTML, like Gecko) Chrome/136.0.0.0 Safari/537.36" version="27.2.0">
  <diagram name="Page-1" id="3BH3B7mMAUbQ5czOuctk">
    <mxGraphModel dx="2020" dy="1064" grid="1" gridSize="10" guides="1" tooltips="1" connect="1" arrows="1" fold="1" page="1" pageScale="1" pageWidth="1169" pageHeight="827" math="0" shadow="0">
      <root>
        <mxCell id="0" />
        <mxCell id="1" parent="0" />
        <mxCell id="wZx2sVjV_vOqR1eELIkU-17" style="edgeStyle=orthogonalEdgeStyle;rounded=0;orthogonalLoop=1;jettySize=auto;html=1;entryX=1;entryY=0.5;entryDx=0;entryDy=0;exitX=0;exitY=0.709;exitDx=0;exitDy=0;exitPerimeter=0;strokeWidth=2;" edge="1" parent="1" source="R1Exj3h-KAIHVMebI0o6-47" target="R1Exj3h-KAIHVMebI0o6-51">
          <mxGeometry relative="1" as="geometry" />
        </mxCell>
        <mxCell id="R1Exj3h-KAIHVMebI0o6-47" value="&lt;font style=&quot;font-size: 30px;&quot;&gt;Evaluation&lt;/font&gt;&lt;div&gt;&lt;br&gt;&lt;/div&gt;&lt;div&gt;&lt;br&gt;&lt;/div&gt;&lt;div&gt;&lt;br&gt;&lt;/div&gt;&lt;div&gt;&lt;br&gt;&lt;/div&gt;&lt;div&gt;&lt;br&gt;&lt;/div&gt;&lt;div&gt;&lt;br&gt;&lt;/div&gt;&lt;div&gt;&lt;br&gt;&lt;/div&gt;&lt;div&gt;&lt;br&gt;&lt;/div&gt;&lt;div&gt;&lt;br&gt;&lt;/div&gt;&lt;div&gt;&lt;br&gt;&lt;/div&gt;&lt;div&gt;&lt;br&gt;&lt;/div&gt;&lt;div&gt;&lt;br&gt;&lt;/div&gt;&lt;div&gt;&lt;br&gt;&lt;/div&gt;" style="shape=process;whiteSpace=wrap;html=1;backgroundOutline=1;size=0.02702702702702703;strokeWidth=2;" parent="1" vertex="1">
          <mxGeometry x="530" y="881" width="440" height="250" as="geometry" />
        </mxCell>
        <mxCell id="R1Exj3h-KAIHVMebI0o6-49" style="edgeStyle=orthogonalEdgeStyle;rounded=0;orthogonalLoop=1;jettySize=auto;html=1;exitX=0.5;exitY=1;exitDx=0;exitDy=0;entryX=0.5;entryY=0;entryDx=0;entryDy=0;strokeWidth=2;" parent="1" source="R1Exj3h-KAIHVMebI0o6-9" target="R1Exj3h-KAIHVMebI0o6-47" edge="1">
          <mxGeometry relative="1" as="geometry" />
        </mxCell>
        <mxCell id="R1Exj3h-KAIHVMebI0o6-9" value="&lt;font style=&quot;font-size: 32px;&quot;&gt;Approaches&lt;/font&gt;&lt;div&gt;&lt;span style=&quot;font-size: 32px;&quot;&gt;&lt;br&gt;&lt;/span&gt;&lt;div&gt;&lt;span style=&quot;font-size: 32px;&quot;&gt;&lt;br&gt;&lt;/span&gt;&lt;/div&gt;&lt;div&gt;&lt;br&gt;&lt;/div&gt;&lt;div&gt;&lt;div&gt;&lt;br&gt;&lt;/div&gt;&lt;div&gt;&lt;font style=&quot;font-size: 32px;&quot;&gt;&lt;br&gt;&lt;/font&gt;&lt;/div&gt;&lt;div&gt;&lt;br&gt;&lt;/div&gt;&lt;/div&gt;&lt;/div&gt;" style="shape=process;whiteSpace=wrap;html=1;backgroundOutline=1;size=0.03409090909090909;glass=0;strokeWidth=2;" parent="1" vertex="1">
          <mxGeometry x="530" y="590" width="440" height="240" as="geometry" />
        </mxCell>
        <mxCell id="wZx2sVjV_vOqR1eELIkU-18" style="edgeStyle=orthogonalEdgeStyle;rounded=0;orthogonalLoop=1;jettySize=auto;html=1;exitX=1;exitY=0.5;exitDx=0;exitDy=0;entryX=0;entryY=0.5;entryDx=0;entryDy=0;strokeWidth=2;" edge="1" parent="1" source="R1Exj3h-KAIHVMebI0o6-32" target="R1Exj3h-KAIHVMebI0o6-9">
          <mxGeometry relative="1" as="geometry" />
        </mxCell>
        <mxCell id="R1Exj3h-KAIHVMebI0o6-32" value="&lt;font style=&quot;font-size: 32px;&quot;&gt;Experimental&lt;/font&gt;&lt;div&gt;&lt;font style=&quot;font-size: 32px;&quot;&gt;Subjects&lt;/font&gt;&lt;div&gt;&lt;font style=&quot;font-size: 32px;&quot;&gt;&lt;br&gt;&lt;/font&gt;&lt;/div&gt;&lt;div&gt;&lt;font style=&quot;font-size: 32px;&quot;&gt;&lt;br&gt;&lt;/font&gt;&lt;/div&gt;&lt;div&gt;&lt;font style=&quot;font-size: 32px;&quot;&gt;&lt;br&gt;&lt;/font&gt;&lt;/div&gt;&lt;div&gt;&lt;br&gt;&lt;/div&gt;&lt;/div&gt;" style="shape=process;whiteSpace=wrap;html=1;backgroundOutline=1;size=0.057283611158847454;strokeWidth=2;" parent="1" vertex="1">
          <mxGeometry x="170" y="590" width="294.57" height="240" as="geometry" />
        </mxCell>
        <mxCell id="R1Exj3h-KAIHVMebI0o6-58" style="edgeStyle=orthogonalEdgeStyle;rounded=0;orthogonalLoop=1;jettySize=auto;html=1;entryX=0.5;entryY=1;entryDx=0;entryDy=0;strokeWidth=2;" parent="1" source="R1Exj3h-KAIHVMebI0o6-50" target="R1Exj3h-KAIHVMebI0o6-32" edge="1">
          <mxGeometry relative="1" as="geometry" />
        </mxCell>
        <mxCell id="Idu1sINHVetog2Lnp7H--6" value="" style="group" parent="1" vertex="1" connectable="0">
          <mxGeometry x="230" y="710" width="60" height="96.5" as="geometry" />
        </mxCell>
        <mxCell id="R1Exj3h-KAIHVMebI0o6-33" value="" style="sketch=0;outlineConnect=0;fontColor=#232F3E;gradientColor=none;fillColor=#000000;strokeColor=none;dashed=0;verticalLabelPosition=bottom;verticalAlign=top;align=center;html=1;fontSize=12;fontStyle=0;aspect=fixed;pointerEvents=1;shape=mxgraph.aws4.sagemaker_model;" parent="Idu1sINHVetog2Lnp7H--6" vertex="1">
          <mxGeometry width="60" height="60" as="geometry" />
        </mxCell>
        <mxCell id="Idu1sINHVetog2Lnp7H--2" value="&lt;font style=&quot;font-size: 20px;&quot;&gt;Model&lt;/font&gt;" style="text;strokeColor=none;align=center;fillColor=none;html=1;verticalAlign=middle;whiteSpace=wrap;rounded=0;" parent="Idu1sINHVetog2Lnp7H--6" vertex="1">
          <mxGeometry y="66.5" width="60" height="30" as="geometry" />
        </mxCell>
        <mxCell id="Idu1sINHVetog2Lnp7H--7" value="" style="group" parent="1" vertex="1" connectable="0">
          <mxGeometry x="357.28" y="711" width="59.99999999999997" height="95.5" as="geometry" />
        </mxCell>
        <mxCell id="R1Exj3h-KAIHVMebI0o6-34" value="" style="sketch=0;outlineConnect=0;fontColor=#232F3E;gradientColor=none;fillColor=#000000;strokeColor=none;dashed=0;verticalLabelPosition=bottom;verticalAlign=top;align=center;html=1;fontSize=12;fontStyle=0;aspect=fixed;pointerEvents=1;shape=mxgraph.aws4.sagemaker_notebook;" parent="Idu1sINHVetog2Lnp7H--7" vertex="1">
          <mxGeometry x="4.280000000000001" width="51.44" height="59" as="geometry" />
        </mxCell>
        <mxCell id="Idu1sINHVetog2Lnp7H--3" value="&lt;font style=&quot;font-size: 20px;&quot;&gt;Dataset&lt;/font&gt;" style="text;strokeColor=none;align=center;fillColor=none;html=1;verticalAlign=middle;whiteSpace=wrap;rounded=0;" parent="Idu1sINHVetog2Lnp7H--7" vertex="1">
          <mxGeometry y="65.5" width="60" height="30" as="geometry" />
        </mxCell>
        <mxCell id="wZx2sVjV_vOqR1eELIkU-5" value="" style="group" vertex="1" connectable="0" parent="1">
          <mxGeometry x="662" y="676.37" width="120" height="110.13" as="geometry" />
        </mxCell>
        <mxCell id="wZx2sVjV_vOqR1eELIkU-2" value="&lt;font&gt;RAG few-shot&lt;/font&gt;&lt;div&gt;&lt;font&gt;prompting&lt;/font&gt;&lt;/div&gt;" style="text;strokeColor=none;align=center;fillColor=none;html=1;verticalAlign=middle;whiteSpace=wrap;rounded=0;fontSize=16;" vertex="1" parent="wZx2sVjV_vOqR1eELIkU-5">
          <mxGeometry y="56.379999999999995" width="120" height="53.75" as="geometry" />
        </mxCell>
        <mxCell id="R1Exj3h-KAIHVMebI0o6-14" value="" style="shape=image;verticalLabelPosition=bottom;labelBackgroundColor=default;verticalAlign=top;aspect=fixed;imageAspect=0;image=data:image/png,iVBORw0KGgoAAAANSUhEUgAAAgAAAAIACAYAAAD0eNT6AAAAAXNSR0IArs4c6QAAIABJREFUeAHt3QucJVdd4PGegARQQB7KY8UNYchkuk41wZHHMF2nrkmIDMl0/atju7o+COAnAoLyWEFcP/uZVRcfuz4wDxBR2RAeousLWQzoiMtHRAUhYMYAEl5CGCIBSTIkJD2zOT3dM52Zru669T+nqk7Vj8+Hz3Tuveec//mef/2r7r11q2Zm+B8CCCCAAAIIIIAAAggggAACCCCAAAIIIIAAAggggAACCCCAAAIIIIAAAggggAACCCCAAAIIIIAAAggggAACCCCAAAIIIIAAAggggAACCCCAAAIIIIAAAggggAACCCCAAAIIIIAAAggggAACCCCAAAIIIIAAAggggAACCCCAAAIIIIAAAggggAACCCCAAAIIIIAAAggggAACCCCAAAIIIIAAAggggAACCCCAAAIIIIAAAggggAACCCCAAAIIIIAAAggggAACCCCAAAIIIIAAAggggAACCCCAAAIIIIAAAggggAACCCCAAAIIIIAAAggggAACCCCAAAIIIIAAAggggAACCCCAAAIIIIAAAggggAACCCCAAAIIIIAAAggggAACCCCAAAIIIIAAAggggAACCCCAAAIIIIAAAggggAACCCCAAAIIIIAAAggggAACCCCAAAIIIIAAAggggAACCCCAAAIIIIAAAggggAACCCCAAAIIIIAAAggggAACCCCAAAIIIIAAAggggAACCCCAAAIIIIAAAggggAACCCCAAAIIIIAAAggggAACCCCAAAIIIIAAAggggAACCCCAAAIIIIAAAggggAACCCCAAAIIIIAAAggggAACCCCAAAIIIIAAAggggAACCCCAAAIIIIAAAggggAACCCCAAAIIIIAAAggggAACCCCAAAIIIIAAAggggAACCCCAAAIIIIAAAggggAACCCCAAAIIIIAAAggggAACCCCAAAIIIIAAAggggAACCCCAAAIIIIAAAggggAACCCCAAAIIIIAAAggggAACCCCAAAIIIIAAAggggAACCCCAAAIIIIAAAggggAACCCCAAAIIIIAAAggggAACCCCAAAIIIIAAAggggAACCCCAAAIIIIAAAggggAACCCCAAAIIIIAAAggggAACCCCAAAIIIIAAAggggAACCCCAAAIIIIAAAggggAACCCCAAAIIIIAAAggggAACCCCAAAIIIIAAAggggAACCCCAAAIIIIAAAggggAACCCCAAAIIIIAAAggggAACCCCAAAIIIIAAAggggAACCCCAAAIIIIAAAggggAACCCCAAAIIIIAAAggggAACCCCAAAIIIIAAAggggAACCCCAAAIIIIAAAggggAACCCCAAAIIIIAAAggggAACCCDQY4GzJvseZvLyaWkmL0htcbnJ5F3GykeMlRuMlZuNlTuMlaP8HwNygBxomAOuhrha8glj5cPGyjtdrUls+WOu9px9XvnQHpdIQkNgOAJnTC65r5kvL0ry8ldNLh8yVpYbbtQcFHBgRA6QAz5ywNWgDyaZ/Epqi2e4GjWcistMEOiBQDovu4wtXmWs3MQOn3dy5AA50OMc+IrJ5Kp0Upw/MzOzrQflkxAQiE9gdnbpPsbKcxIrH+3xxu7jHQR98E6UHBhiDuRyvbHls3ftuvQb4qvARIxABwIrH/Nn8kJj5TPs+HmnRw6QA9HnQCafSvLi+dv37j29g5LKkAjEIZDkC99lrByMfoMf4rsZ5sS7dHJAmwMfTybl0+OoxkSJQEsCO/YsPMpY+T12/LzbIwfIgcHnQF68eWe2+MiWyivDINBfAXeyjLHyhcFv9Lx70r57oj05NKQcuMn9aqC/lZnIEAgoMJlM7m2s7OenfLzj4+CPHBhpDhxxv27iJMGAOxq67p/A9ifvfaCx5YGRbvRDehfDXHhXTg4ocyCx8hc79iw8oH+VmogQ8Cxgzlt4uLHyAXb+vOsjB8gBcmA1B3J5/9xTy2/1XG7pDoH+CJwzkTOMlY+z0VP4yQFygBw4JQc+5mpkfyo2kSDgSeAJ2dK3cFGfUzZ4Pj5VfnzKToScGlQOZPIvs5OlR3gqu3SDQPcCx77z52P/QRUqdtwcvJEDgXKgvPaciXxz95WbCBBQCrgzXDnhj3dpHPyQA+RA/RxwJwa6X0opyy/NEehWwOTFL7Ph19/wscKKHCAHVnIgl1d2W70ZHQGFgLvQhbFypIWCdshdSTDJ5EVJVnz3Tnvx49L5Cx/M72sVi0dTBBCYcTXE1RJXU1xtcTVm9aqlruYE+grgeL/LXDqYJIxSYPXyviFv33uzsXLF3GTxKdx2M8oUIWgEYhbYlublbpPJlcbKlwMeDHyRywbHnCYjjd1YeWuYjaK40djiv8xOlr5ppLRMGwEEeiTgLuKT5PIyYyXMpwJ58eYeTZdQENhcwOTl0wLs/O90l810vyjYfHSeRQABBNoXmLvggm9MbPmLxsqdvusfXwW0v56M2EDgjMkl9zVWPuZzA0isfHI2kyc1CIcmCCCAQKsC7mtJk8mnfNZAk8v1s7NL92l1IgyGwLQCaSYv8Jn4aVa8w52EM20cvB4BBBDoSiDZvfQQY+WdPmuhyeV5Xc2HcRHYUmDlN/9ej3yLqzmTf0t2XoAAAj0UcO/YEytv9HgQ8Gk+BejhQhPSMQFj5Tn+kr24emZm/2nYIoAAAvEK7D/N50FAmskl8VoQ+ZAFtnm81v+f885/yKnC3BAYj8DKJ6NWrvHz5qj4Z372PJ7ciWams5Ny3k+Cy6fPPq98aDQTJ1AEEEBgCwF3HpM7mdlHjXTXH9hiOJ5GoF2BNCte6yG57+Rs/3bXjdEQQKAdgZULB1m5S18ni1e3EzGjIFBDYPWnf+qrYSV5+as1huMlCCCAQJQCiZXL9AcAcvP2vXtPjxKAoIcnYObLi/RJXdzIRX6GlxvMCAEETgjsOn/pQcbKF7X1Ms1l74le+QuBDgXcO3dtQrvL+3Y4BYZGAAEEWhEwmbxCXS/z4pdbCZZBENhKwOTyIWVC38y1/bdS5nkEEBiCgPuk08MNhD4wBAvmELnAWZN9DzNWllUHAJlcGTkD4SOAAAK1BYwtX6OqmVaW3dUGaw/ICxEIIeDjxj+rt/QNER59IoAAAr0TSLLFPcoDgKNzmZzXu4kR0LgETCYvVCbyIS5sMa6cYbYIIDCzzVi5SVM7k7x4Po4IdCqQ2uJyTRIbK2/pdAIMjgACCHQgkObl7+tqZ/GqDsJmSAROCJhM3qVJ4iSTF53ojb8QQACBcQikefkSTe00Vq4ZhxSz7K2AsfIRTRInWfHdvZ0cgSGAAAKBBFJbPENTO92vrwKFRrcI1BPQXt86nV88s95IvAoBBBAYjkAyWdiuOgCwcsNwNJhJlALGypc0ScxPWaJcdoJGAAGlwOpPqI8q6udNyhBojoBOwFi5Q5HAR2dnl+6ji4DWCCCAQHwC7nr+mtpprNwe36yJeFACygQ+OigMJoMAAghMIUD9nAKLl/ZPgATu35oQEQIIxCFA/YxjnYiyQoAEroDhYQQQQGALAernFkA83W8BErjf60N0CCDQXwHqZ3/XhshqCJDANZB4CQIIILCBAPVzAxQeikeABI5nrYgUAQT6JUD97Nd6EM2UAiTwlGC8HAEEEFgVoH6SClELkMBRLx/BI4BAhwLUzw7xGVovQALrDekBAQTGKUD9HOe6D2bWJPBglpKJIIBAywLUz5bBGc6vAAns15PeEEBgPALUz/Gs9SBnSgIPclmZFAIItCBA/WwBmSHCCZDA4WzpGQEEhi1A/Rz2+g5+diTw4JeYCSKAQCAB6mcgWLptR4AEbseZURBAYHgC1M/hremoZkQCj2q5mSwCCHgUoH56xKSr9gXGlsCpLdLEymXGykFj5Tbt/Gm/YnjQmTrb9jN4XCNukL8uh735x95/29mg3f7bjpfxELiHwFgSePvevaebTK40Vpa1c6a9HK0wWHbGzvoeScZ/qAVq5m9j/9j7VwM37KBiO6jaPk55vOGwNEPAj8AYEniluNnygHautK/c8Z9U2MoDHAT42T5dL9Pn73T+sffvT3r6nrQ1YfoRaYGAR4ExJLCxcoV2nrSvu/M//rorPKbpqLtqmL+1/WPvv8vk0NaFLmNnbARmhp7A7jtNPvY/vlM+6Z160MeXOSdAX2AU+VvLP/b+9cK6HoZeP3U6tO69wNATOLXF5do50r7ZgYKz7/0G0PMANflbxz/2/rtePm1t6Dp+xh+5wNAT2Fi5TjtH2jc7AHD2I9+81NNX5u+W/rH3rwZWdqCtDcrhaY6ATmDoCWysHNbOkfaNDwAO67KT1sr83dI/9v67zhBtbeg6fsYfucDQE5jf+jfeefs4X+DWkW9e6ukr83dL/9j7VwMrOxh6/VTy0LzvAkNPYOVHnD52gmPuY8uPoPu+fXQdnzJ/t/SPvf8erI9q++46fsYfucDQDwA0Jzlpbcbevs5JaCPf/LacviZ/6/jH3v+WgIFfoN3GA4dH9whsLjD0BFb8zEl1ZK91HUD7Wj9D2zw7eVaRv7X8Y++/6wzRbqddx8/4IxcYQwI3vNAJBwBWdf5A7QvRjHwT3HL6DfO3tn/s/W8JGPAFY6ifAfnoumuBMSTw9Jc6Ve34OHCw012KtuttoO/jT5+/0/nH3n+X6zeG+tmlL2MHFhhLAq8UOW4GFPrgpPHNaAKnefTd18zfxv6x99/VAo+lfnbly7iBBcaWwO47T24H7PUTDq+3ow2c7tF3v0H+evWPvf+2F3hs9bNtX8YLLEACBwamewQQGKwA9XOwSzuOiZHA41hnZokAAv4FqJ/+TemxRQESuEVshkIAgUEJUD8HtZzjmwwJPL41Z8YIIOBHgPrpx5FeOhIggTuCZ1gEEIhegPoZ/RKOewIk8LjXn9kjgEBzAepnczta9kCABO7BIhACAghEKUD9jHLZCHpNgARek+BfBBBAYDoB6ud0Xry6ZwIkcM8WhHAQQCAaAepnNEtFoBsJkMAbqfAYAgggsLUA9XNrI17RYwESuMeLQ2gIINBrAepnr5eH4LYSIIG3EuJ5BBBAYGMB6ufGLjwaiQAJHMlCESYCCPROgPrZuyUhoGkESOBptHgtAgggcEKA+nnCgr8iFCCBI1w0QkYAgV4IUD97sQwE0VSABG4qRzsEEBi7APVz7BkQ+fxJ4MgXkPARQKAzAepnZ/QM7EOABPahSB8IIDBGAernGFd9QHMmgQe0mEwFAQRaFaB+tsrNYL4FSGDfovSHAAJjEaB+jmWlBzpPEnigC8u0EEAguAD1MzgxA4QUIIFD6tI3AggMWYD6OeTVHcHcSOARLDJTRACBIALUzyCsdNqWAAncljTjIIDA0ASon0Nb0ZHNhwQe2YIzXQQQ8CZA/fRGSUddCJDAXagzJgIIDEGA+jmEVRzxHEjgES8+U0cAAZUA9VPFR+OuBUjgrleA8RFAIFYB6mesK0fcKwIkMImAAAIINBOgfjZzo1VPBEjgniwEYSCAQHQC1M/oloyA1wuQwOs1+BsBBBCoL0D9rG/FK3soQAL3cFEICQEEohCgfkaxTARZJaBNYNrLUQwwIAfIgSY5UFWXeRyBVgSaJC1tKHbkADlADuhzoJUizyAIVAmwEes3YgwxJAfIgSY5UFWXeRyBVgSaJC1tKHbkADlADuhzoJUizyAIVAmwEes3YgwxJAfIgSY5UFWXeRyBVgSaJC1tKHbkADlADuhzoJUizyAIVAmwEes3YgwxJAfIgSY5UFWXeRyBVgSaJC1tKHbkADlADuhzoJUizyAIVAmwEes3YgwxJAfIgSY5UFWXeRyBVgSaJC1tKHbkADlADuhzoJUizyAIVAmwEes3YgwxJAfIgSY5UFWXeRyBVgSaJC1tKHbkADlADuhzoJUizyAIVAmwEes3YgwxJAfIgSY5UFWXeRyBVgSaJC1tKHbkADlADuhzoJUizyAIVAmwEes3YgwxJAfIgSY5UFWXeRyBVgSaJC1tKHbkADlADuhzoJUizyAIVAloN+KqfnkcAQQQGLoA9XPoKzzw+ZHAA19gpocAAsEEqJ/BaOm4DQESuA1lxkAAgSEKUD+HuKojmhMJPKLFZqoIIOBVgPrplZPO2hYggdsWZzwEEBiKAPVzKCs50nmQwCNdeKaNAAJqAeqnmpAOuhQggbvUZ2wEEIhZgPoZ8+oR+wwJTBIggAACzQSon83caNUTARK4JwtBGAggEJ0A9TO6JSPg9QIk8HoN/kYAAQTqC1A/61vxyh4KkMA9XBRCQgCBKASon1EsE0FWCZDAVTI8jgACCGwuQP3c3Idney5AAvd8gQgPAQR6K0D97O3SEFgdARK4jhKvQQABBE4VoH6easIjEQmQwBEtFqEigECvBKifvVoOgplWgASeVozXI4AAAscEqJ9kQtQCJHDUy0fwCCDQoQD1s0N8htYLkMB6Q3pAAIFxClA/x7nug5k1CTyYpWQiCCDQsgD1s2VwhvMrQAL79aQ3BBAYjwD1czxrPciZksCDXFYmhQACLQhQP1tAZohwAiRwOFt6RgCBYQtQP4e9voOfHQk8+CVmggggEEiA+hkIlm7bESCB23FmFAQQGJ4A9XN4azqqGZHAo1puJosAAh4FqJ8eMemqfQESuH1zRkQAgWEIUD+HsY6jnQUJPNqlZ+IIIKAUoH4qAWnerQAJ3K0/oyOAQLwC1M94147IZ2ZmSGDSAAEEEGgmQP1s5karngiQwD1ZCMJAAIHoBKif0S0ZAa8XIIHXa/A3AgggUF+A+lnfilf2UIAE7uGiEBICCEQhQP2MYpkIskqABK6S4XEEEEBgcwHq5+Y+PNtzARK45wtEeAgg0FsB6mdvl4bA6giQwHWUeA0CCCBwqgD181QTHolIgASOaLEIFQEEeiVA/ezVchDMtAIk8LRivB4BBBA4JkD9JBOiFiCBo14+gkcAgQ4FqJ8d4jO0XoAE1hvSAwIIjFOA+jnOdR/MrEngwSwlE0EAgZYFqJ8tgzOcX4GxJXBqizSxcpmxctBYuU07f9qvGB50ps7Wb3bS28kCG+Svy2Fv/rH3f7JX6P/Wbv+h46N/BDYVGEsCb9+793STyZXGyrJ2zrSXoxUGy87YWW+adDw5tUDN/G3sH3v/U4N6alCxHVRtH6c87ikMukGgmcAYEniluNnygHautK/c8Z9U2MoDHAQ02x43ajV9/k7nH3v/G5m19Zi2JrQVJ+MgsKHAGBLYWLlCO0/a1935H3/dFRsmHA9OLdAwf2v7x97/1KAeG2jrgsdQ6AqB6QWGnsDuO00+9j++Uz7pnXrQx5c5J2D67fHkFor8reUfe/8ne7X930Ovn217Ml7LAkNP4NQWl2vnSPtmBwrOvuV0Htxwmvyt4x97/10vuLY2dB0/449cYOgJbKxcp50j7ZsdADj7kW9e6ukr83dL/9j7VwMrO9DWBuXwNEdAJzD0BDZWDmvnSPvGBwCHddlJa2X+bukfe/9dZ4i2NnQdP+OPXGDoCcxv/RvvvH2cL3DryDcv9fSV+bulf+z9q4GVHQy9fip5aN53gaEnsPIjTh87wTH3seVH0H3fPrqOT5m/W/rH3n8P1ke1fXcdP+OPXGDoBwCak5y0NmNvX+cktJFvfltOX5O/dfxj739LwMAv0G7jgcOjewQ2Fxh6Ait+5qQ6ste6DqB9rZ+hbZ6dPKvI31r+sfffdYZot9Ou42f8kQuMIYEbXuiEAwCrOn+g9oVoRr4Jbjn9hvlb2z/2/rcEDPiCMdTPgHx03bXAGBJ4+kudqnZ8HDjY6S5F2/U20Pfxp8/f6fxj77/L9RtD/ezSl7EDC4wlgVeKHDcDCn1w0vhmNIHTPPrua+ZvY//Y++9qgcdSP7vyZdzAAmNLYPedJ7cD9voJh9fb0QZO9+i73yB/vfrH3n/bCzy2+tm2L+MFFiCBAwPTPQIIDFaA+jnYpR3HxEjgcawzs0QAAf8C1E//pvTYogAJ3CI2QyGAwKAEqJ+DWs7xTYYEHt+aM2MEEPAjQP3040gvHQmQwB3BMywCCEQvQP2MfgnHPQESeNzrz+wRQKC5APWzuR0teyBAAvdgEQgBAQSiFKB+RrlsBL0mQAKvSfAvAgggMJ0A9XM6L17dMwESuGcLQjgIIBCNgLHiLsTU9Aqbt0YzUQIdpoAieVeSfpgqzAoBBBDYWsBYuU5RQ6/begRegUBAAUXycgAQcF3oGgEE+i+Q2uLypjXUte3/DIlw0AJNk3et3aBxmBwCCCCwiYC7d4KxsrxWD6f4d9m13aRrnkIgvMAUCbvh91zhI2QEBBBAoL8CxsoVDeroFf2dEZGNRqBB4t7jQGA0UEwUAQQQ2EBg5VbKtjxQv5aWB1ybDbriIQTaFaiftBuf6dputIyGAAII9E9g5SAgkyu3+Dpg2WRyJTv//q3faCPiAGC0S8/EEUDAs4D7Xj+xcpmxcnD1J4LuZ4IH3WN85+8Zm+70AhwA6A3pAQEEEEAAgegEOACIbskIGAEEEEAAAb0ABwB6Q3pAAAEEEEAgOgEOAKJbMgJGAAEEEEBAL8ABgN6QHhBAAAEEEIhOgAOA6JaMgBFAAAEEENALcACgN6QHBBBAAAEEohPgACC6JSNgBBBAAAEE9AIcAOgN6QEBBBBAAIHoBDgAiG7JCBgBBBBAAAG9AAcAekN6QAABBBBAIDoBDgCiWzICRgABBBBAQC/AAYDekB4QQAABBBCIToADgOiWjIARQAABBBDQC3AAoDekBwQQiE/gCdnStyT54hPNfHlRYstnpnn5EpPLKxNb/qKxxasSK7/p/m+s/PrKY1n5P9xr3GtdGzNZ+M6zJvseFt/MiRiBVQEOAEgFBBAYssCOPQuPMtnihSaTVxgrbzFWPmys3KKtfeva32Jsee1K326MbPHCndniI4dsytwGIrAuiY82+XsgDEwDAQQGIpDOL55psvK5xhZXGys3NKlrntrcYHJ5g4tlzu57zEB4mcaQBLSJPiQL5oIAAjEK7D/NTGRy7KN6+ai2pgVrn8v1qZVfS+2CnZnZf1qM0sQ8MAFtsg+Mg+kggEAkAnOTxackVi4zVj6vrWNtt0+tfM6dZzCbyZMi4SbMIQpoE3+IJswJAQT6KXDORL7ZZPLC1e/xG31tqa15/tuX16aZvMDNrZ/qRDVYAW0yDxaGiSGAQG8E3Bn7xsp+Y+Ur2prV4/a3uE8F3EmLvYEnkGELaDeGYeswOwQQ6FJgds9F3+52isbKYW2tiqj9HSaTq8y58tgu7Rl7BALajWIEREwRAQRaFthpL36cycrfMVa+rq1REbe/w1h5XTJZ2N4yP8ONRUC7cYzFiXkigEB4gV279t1/9aP+27W1aUDtv7761cADwq8AI4xKYEAbyUBOCBLmYTHwuF3eZqwcdGfLp7ZI+1zckrzYZzL5lMe5D2xbKv81scUP93kNiS0yATY2djbkwGhyYNlkcuX2vXtP71OZct91GytvJw/r5WFi5S/SycVn92kNiSVSATa6ehsdTjgNJwfKA/04CNh/2rHL8xZfG45ta9vJ4dQWL+eCQpHuePsSNhteaxvswD6OxC3ybeeKLmuQ+1lfmhXviNyw8206tfKXs5OlR3S5lowdsQAbIDsycmCUObDc1TkBaVbmx66EN0r3EAcNXzB5+bSId0OE3pUAxZ8iRA6MMwdSW1zect3Z5j62NlbuIue855wz3b+0tHSvlteU4WIWYEP0viGGOMKnT34ZECIHrmurdq1ewvddPaw3XzRW/t5Y+T/uBMnUys+tHqT8RJrLpe7/7tLD7jH3nHuNseUfrrZxbUOsi6bPa3adv/SgttaVcSIX6GECa5Kftv0rSKxJf9fkcBvly13a1tjy2s5rTS7XJ7n8rsnlebOTct7HjtL1MZcXWZIXz0+tvD6xPbgbYS4f2pktPrKNtWWMyAU63yj7WxzZcbE2Q8+BW0OXr5Ur+lm5oaM682/GFlentvyBuaeW3xp6rmv9m/MWHm4y+cHEyhuNlS91NPdPcAXBtRXh30qBjpJz6IWV+XHwEEMOBP0KIJ2XXcbKoZZrzC3uXX4yKZ++a9el31BZ+Fp6wsWQ5rLXfTpgrNzSssUhtwYtTZVhYhRoOSFjKIrEyM57FDkQ8iTAdFKcb6x8tb36Ul7rvq/fsWeht5fL3f7kvQ9MbfGjxspH2nORr85lcl6M+yZibkGgxUQcRVHFs3cnRZF3Gx/QBfsZoJnIxNjWLu7zwTQvl2ZmZra1UC59DbHNXfY4tfK+lurFHfxM0NfSDayflhKQIrxxEcYFl65yIMiFgGbtwhOMlX8PXlcy+Sv3KUPs5dhYucDY8q+De1n5SjJfPj52L+L3LNBC4nVV4BiXnSs5sGEOhLkUcDq/eKaxxY2Ba8pnk6z4Hs9lsPPu3CcCiZVPBrb74uPny7M6nywB9EcgcMJRgDcswHxMTt51kgPBbgbkLu0b+CdwK7fEnZ0sfVN/qqffSHbvXrpf8FshZ/IvXDrY77pF3RuFuJNCzIERB0Zt5UDw2wG738IbKx8MV0vKA2N65zq3Z2GHsfLucJ7yAXdCYtQ7LoL3I6BNMj9R0AsCCEQqsM3k8kfaOlLRfsyXtw172eRc3hbZiZORbh49D7tiw6v97qTn0yM8BBAIKJDm5Uu0NaSi/SHOXJ+Zcb+oCHbjpLz88YCpQdcxCFRsfBwAxLB4xIhAhwKzmTzJWLlDW0M2aP/ONq/c1yFhraHdlQXdbX83cKpdpyva3mEmC99ZKwheNEyBisSonVjDVGFWCCCwmcDKzX1CXOI3k6v6cAW/zebexXOTyeTexsrrtPX6lPaZfCrZvfSQLubEmD0QOCUhpjw5qwdTIAQEEGhZYOXueVPWiq1rTfEqvpfedCG3rf5KoPYbtK3NV06C/oNNR+XJ4QrUTJDKhBuuDDNDAIGNBExWPldbN05qfyTJihdvNBaPnSpw9z0FXmqsHDnJsLJG13kGnEVbAAAcnElEQVSdu4zyqSPxyOAF6iTHZq8ZPBATRACB4wIrd7qz8uXNasKUz7kd2XOOD8AftQSSrPgRzwcBN3PeRS36Yb1oyo31lKPMYWkwGwQQ2EzAZHKVtmasb5/k8rLNxuO5aoHUlj+13lL7t7uLYvVoPDNIAW3SDBKFSSGAwCkCc3mR+XzXmVi57JRBeGAqgSSTX9HW8HXtj7ifHU4VAC+OW2Dd4p/y7r7Oc3HPnugRQKCOwLGz0Mtr69SEOq9JrLxxZmb/aXXG5jWbCmxLrby+jnmd16R5+U/8CmNT72E9WScpNnvNsDSYDQIIbCRgsvInN6sDUz2XyXvYyWyk3Oyx2dml+9x9V8H3TrUGm/+C46XNIqFVdALapIluwgSMAAJTCZw12fewu888v0VbK1bb32Rs8eipAuDFWwrM7rno242VL3lao6+efV750C0H5QXxC2gTJn4BZoAAApsJpFZ+TlsnVtsfSbOy2GwsnmsukNriGR7P0djfPBJaRiOg3bCjmSiBIoDA1ALurnHGys3aOuHap5n80tQB0GAqAWPlf/lYK2PlK+4uj1MNzovjE9AmS3wzJmIEEKgrYDJ5hbZGrLTP5f18719XvfnrnHFq5R99rFlqi5c3j4SWUQhoEyWKSRIkAghMLbBr1777GyuHtDXCWFmemyw+ZeoAaNBIIMkXn+jMPazbIZcDjYKgURwC2iSJY5ZEiQAC0woYKz+hrQ/H2hevnnZsXq8TSLPitV7WLpMX6iKhda8FtEnS68kRHAIINBJYvfvcZ7T1wVj5Ineba7QEqkbuLH5j5SYP6/fppaWle6mCoXF/BbQJ0t+ZERkCCDQVSPJin7Y2uPZpXjyraQy00wm4eyz4WEMzX16ki4TWvRXQJkhvJ0ZgCCDQWMDk8jZtbTC2+Geu9td4CdQN3Tt3k8v12nVMrPyxOhg66KeANjn6OSuiQgCBpgI79iw8yli5S1sbEls+s2kMtPMj4D6B0a6jsXLnzmzxkX4iopdeCWiTo1eTIRgEEFALJFnxYm1dMFY+zc/+1Euh7sCtQWLlk+r15GRA9Vr0sgNtYvRyUgSFAAKNBYwt/lZbF0xWPrdxADT0KpDkxfP16ynv8RoUnfVDQJsY/ZgFUSCAgA+B1WvKH9HVheLGMyaX3NdHPPShF3BrYWxxo25NV67l8G36aOihVwLKpDjaq8kQDAIIqAQSW/6YtiYYW/y8KggaexdIbPEL2nVNbfGj3gOjw24FtEnRbfSMjgACPgWMLf5MWROOmHPlsT5joi+9QDq/eKb6RkG5/JE+EnrolYByY+cTgF6tJsEg0Fzg2EfFcpuyJry7eQS0DClgMnmPcm2/Oju7dJ+QMdJ3ywLKhOAAoOX1YjgEQgkk+cJ3aeuBO+EsVHz0qxMwmbxQu76pXbC6KGjdKwFtQvRqMgSDAAKNBRIrP6OsB8vmvIWHNw6AhkEFVq/voLtJUCavCBoknbcroNzg+QSg3eViNASCCRgrf66sB38XLDg69iJgrHxAt8bFn3kJhE76IaBLBuEAoB/LSBQIaAW23X33vy8r68F+bRC0DyvgfqGhXOObZ2ZmtoWNkt5bE1AmAwcAra0UAyEQTmDO7nuMthbMTsr5cBHSsw8BM5GJdp3PmcgZPmKhjx4IaJOhB1MgBAQQUAqYvCiVteB2Lv6jXIQWmu/evXQ/Y+UOzVq7O0W2ECpDtCGgSQTXto0YGQMBBMIKpHn533S1oPjbsBHSuy+B1Mr7VGudFz/tKxb66VhAlQgcAHS8egyPgB+BxMoblbXgCj+R0EtoAZPJlaq1zuSq0DHSf0sCqkTgAKClVWIYBMIKGCvv1dSCNJdLw0ZI774EtDcHSqz8P1+x0E/HApqN3rXtOHyGRwABDwLGyud1taB4qocw6KIFAXcxH91ay2dbCJMh2hBQJgIHAG0sEmMgEFBg9RLAqjsAzk6WHhEwRLr2KPD4cy/6D8q6v8wlgT0uSJddKROBA4AuF4+xEfAgYGzxaGUdOMxvwz0sRGtd7D/NWLlds+buqoKthctA4QQ0SeDahouMnhFAoA2BZL58vLIOfLyNOBnDn4Cx8gnNmqe2SP1FQ0+dCWiSIMYDAJe4iZXLjJWDxqrvfHZU6zeA9u7ucQedKUWhs81YNXA6Kc5X5uF7VQHQuHUBY+XvNGvubhzVetAM6F9AkwSurf+IwvS4fe/e01d//qK7GYYVdvrVBsvO2FmHWUV6DSGgvghQLm8LERd9hhMwVt6uqf1pJhIuOnpuTUCTBLEcAKzs/G15QDtX2tc9+CkPcBDQ2iasHijJ5fs1uZ1m8iZ1EHTQqoCx8hbNmt/9qd/3thowg4URUCZBFJ8AGCtXaOdJ+7o7/+Ov48IwYTZZ770mtnymJr9TK6/3HhQdBhUwmVylWXOTyw8FDZDO2xFQJUEEXwG476WNFT72r/7YPtRXGsucE9DONqwdJcmKH1HVgbz8LW0MtG9XwFh5nWrNrTyn3YgZLYiAMgl6/wlAaovLtXOk/fF39VMdLDj7IElLp14FjC2frczx3/YaEJ0FFzBZ+TuaNU/z4lnBg2SA8AKaJHBtw0eoG8FYuU47R9o3OwBw9rrVo3UbAiaTH1TleC5vaCNOxvAnoL33Q2qL/+wvGnrqTEC14cdxAHBYO0faNz4AcBeI4X89F3AndClz/K09nyLhnSRgrPyBZs2TrPiek7rkP2MU0CSBa9v3OfNb/8Y776k+7q/Io1v7nh/ENzOT2IWFivWrlwOZvAvHuARSK3+pW/PFC+OaMdFuKKBKgjgOAPgKoP0TANd2HHwFsOFW168Hk2xxj7IOfLBfMyKarQSMlQ9r1nxusviUrcbg+QgENEng2vZ9ipwE2N0nAJwE2Pet41h86eTiszV1ILXyuThmSpRrAsYWN2rWfKe9+HFrffFvxAKaJIjkAICfAXbzCQA/A4ykLpw12fcwZR044u4oGMl0Rx/m7t1L9zNWVHd/TOcvfPDoIYcAoNzwe/8JgFsjLgTUyacAXAgongKxzdjia5pawDvCeBbb2HKnZq2NFe7+GM9ybx6pMhGiOADgUsBtHwBwKeDNt7r+PZtY+aiqFmScFNa/Vd04ojQrC9VaWzm4cc88Gp2AMhGiOABwi7JyEJDJlVwVMOjBADcDiq4CHAvYWLlGVQvy4qcjnfrowk6s/Ixqra28fXRoQ52wMhGiOQBYWz9uB+z9AIDbAa8lV8T/rt4pc+3XG9P/mxdvjnj6owrdWPk9Vd3P5DdGBTbkyaoSIYJfAQx57ZgbAr4Ekrx4vqYWJFY+6SsW+gkrYKx8WrPWaS6Xho2Q3lsT0CSCa9taoAyEAALBBGYn5by2FsxNFr8tWIB07EXArZGHdeYaAF5WowedaJOhB1MgBAQQUArsOn/pQdqfhiVZ+X3KMGgeWCC15Q8oa/6R7U/e+8DAYdJ9WwLKZOATgLYWinEQCCyg/yVA+TuBQ6R7pYDJ5Q3Kms8vAJRr0KvmymTgAKBXq0kwCDQX0N4i1lj5/MzMzLbmEdAyrMD+04yVQ8qa/7qwMdJ7qwLKZOAAoNXVYjAEwgkkWfEj2nrANeLDrY+2Zx/neaSZXKKNg/Y9EtBu8D2aCqEggIBCYG7Pwg5tPUjy8lcVIdA0oICxxau062vOlccGDJGu2xbQJkTb8TIeAgiEEzBWblDWhM8uLS3dK1yE9NxEwK2J+4pGubYfazI2bXosoEwIvgLo8doSGgLTCqgvCGTlaJrL3mnH5fVhBZK82Ket9e4ThLBR0nvrAtqkaD1gBkQAgWACZr68SFsTTC5/FCxAOm4kkNryT7TryoFdI/p+N9ImRb9nR3QIIDCNwLEbZ8lXlHXhLu4OOI162Ne67+2NlTuVa/pllxthI6X31gWUScFXAK2vGAMiEFbAZHKVti6kWfHasFHSe10BY+W3tevpfiJadzxeF5GANjEimiqhIoBADQEvXwNY+frOcxf/Y43heElAAWOLRxsrd2jrfDIpnx4wTLruSkCbGF3FzbgIIBBGYNeuS7/BwxnjRzlpLMz6TNNraovLtTXe2OJGlxPTjMtrIxHQJkck0yRMBBCYQiDN5Je0tcFYOTw7WXrEFMPyUo8CO/YsPMrY4mvadUxs8Qsew6KrPglok6NPcyEWBBDwI7B64tgRbX0wtvzffiKil2kFjC2u1q+fHOGEzmnlI3q99vuh2dml+0Q0XUJFAIGaAmlWvMPHDiS1C7bmkLzMk4CZyER7d0e39i4HPIVEN30UMFa+pNnIk91LD+njvIgJAQR0Amle7tbUhrW2aV7+E98h69ZimtaTyeTexsqH1/w1/87lRTbN2Lw2MgGTyac0CcK1oSNbcMJFYAoBY8u/VtUHK0dX2790imF5qUIgyeVlntbs3YowaBqDgDs61yQLPw+JYZWJEYFmAsbKBZr6sK7tLe5mQ82ioFVdgXRy8dnGyq3r3NcOwKb/Ny+fVndcXhepgLHyTk2yJJm8KNKpEzYCCNQQMFb+XlMj1rX98O7dS/erMSQvaSBwxuSS+xorH1znPf1O/8QnNn/XIASaxCbg4XeivxfbnIkXAQTqC6SZiKedylFjy9fUH5lXTiNg8vK3fK2Tu3nQNGPz2kgFTCYvVCbNoZmZmW2RTp+wEUBgC4Ht2d5vSTO5TVknjr8bTbLy+7YYkqenFEht+QO+1sd94kNNn3IBYn25ycunaRPHnS0c6/yJGwEEqgXMeQsPN1Y+oq0RJ7X/amqLtHpUnplGwGQLc8bKLScZHz/gmvLx5SRffOI04/PaiAXOPq98qLGyPGWSnJRcxasjJiB0BBDYQGBntvhIY+WgrjYc/xXAPWpGauVz50zkjA2G5aEpBFav9f8Zb2uUyZVTDM9LhyDg4cSRm3fsWXjAECyYAwIIzMy4S/gaK9d527GcOLls/YHAx90nDHg3Ezhrsu9hJpfrPa7Rv7k3hM2ioVW0Akkmv6JNIvfb02gBCBwBBI4LuLv4mUz+RVsTarb/h9nJ0jcdH5w/agns2rXv/nf/RPO9NY3XH3RV/p3Y8pm1BudFwxIw2eKFHhLp0K7zlx40LBlmg8C4BNL5xTPVFwfb+N1+5Y7H2PIAnyDWz7PtT977QGfmoWafWJNM3sOJf/XXYFCvXP396Jc9JNSvDwqGySAwIgF30xdjxd/3ydMcCOTy/rmnlt86Iu5GU3VfzaRW/tFDrT6x87dyi7uAUKOAaDQMAff7XA9JddfcZPEpwxBhFgiMR8DtANyJeR5qwPody7R/38Cd56pzbs7ue4yx8jHfa5TY4oerR+WZUQgk2eIeT4n1GU4kGUXKMMmBCMzu2ZcYK1/wtP1Pu9M/+fWfn7ULTxgIrbdpmMnCdwZao9/2FiQdRS2wzeMZpddwm+Coc4HgRyKQzJePN1a+2JOd/+rBQHG7sfITI1mCLafp3qEb6+9CTGtrfewujfvuv2UAvGAcAsaWz15LDu2/iZU3zszsP20ccswSgfgE5rLF7zBW/k27rQdrn8ufjvnEYndiZJrJmwL53ppkxWx8WUvEwQTcPbt9ngHsDgK4D3iw5aJjBBoLzGbypLvfZfs48ffkj/B9//cn3KcUjScaaUP3NUiI7/tXDyaOuEsHR0pD2CEFElv+mOcjzmuS3UsPCRkzfSOAQH0BY4unGiv/7nk7973jX9/f140tXjWGnwqu/r5/v7HivgZZb+Dt79SWP1U/W3jlqAS27917emLlo16TL5NP8euAUaURk+2pQGoXrMfrxp+8U/q417pxyg6w/Nchn7Hu7sDn8xPYirW4oqepSVh9EUgnxfkVyXPyBj/Nfy+bTK7iFwJ9WWXiGJtAYstzjZVbA2zbR01evNmd+GusvCVI//c8GHj7kL6/npuUxlj58+BuefFmzssa21bfcL4BN+RDqS1ePoaP8xrS0wwB7wJJVny3sXI4yE4mlzcsLS3dywW9ch5RGzszK0dMLm9z5zJ4x2qpw5VfYGRylbFyV5B1WXfQlFr5S/fpbktTY5jYBVbvBBby50Ffdhcfctcf4Kg09mwh/j4LpLnsNbb4WpidTHH12s5/zWDl7HUr7wsz3infix8xVt5+rI6sRdDvf2cn5Xxi5f+25HPU2OJvecPV75zoZXTJpHy6/lbBp2ywG31tcFOal7+f5uVLXLGa27Oww504yLUEepkWBBWRQJqJGCt3hNnZlK+pOnjfaYtnmDz8O9v183KXyE3y4vnnTOSb+7ZE6fyFD149wfqD62MO/XeaFe+Yu+CCb+ybB/FEImByeWXoJKX/WgdJGx048di6jzk7yqPbjJWDiZXLUlukfdqsk6z4HmPl6yFc3Hyrbh6T5AvfFeLCNVPMw51B/6d339HwB7v8BZI738nk8kPuq4pwB2Gb1I5c3sDPsPu0RUYYy2QyubfJ5F1TbHzslLrfKbEG3ayBO9H1yj5815rk8v3Gyp0htlt3+/Ae7/xPzn33/bq7be7+uUzOC3nrYdf36gnU+93H7m18t1+1vputUYS7IULuUsB9f2RyeX9VsvH4Jkfh3eyITi6C/Her61Ae6PIgYPXSsUFOLEts+YtVtagH7/zr5PmdxpbXuouUud/Dp3m55K6zv3onwm1Vczvx+P7T3Gtdm5W2mbzC/QLCWPlIqAOuKevrEZOVP3kiXv5CwIPAStIHuBPVlMldZwPnNa3u7Dj4qcjhTn5vbaw8J9R5O0kuP1tVSiLZ+W9VG9wJhTcZK59YuS+Ke9Nz7P/Xrzx27Dn3mq366ep5d2L1YtUa8TgCKoFzJnJGwMtTdrXRMG5/C1rMa7Pc9jkBJiufa9zP4wKsZ2LlZ6qKx0B2/jHn2tGVA5Vz5bFVa8TjCHgRWPkkgK8D4i4WAXYQIXY6sfeZ2uJyLxtdjU662vnP5UUW8MqCbGc1ttXEym/yi6kaGwkv8SOwck4AJwZSnGoUp9h34sr4r/OzxW3ey9074Jcq46zK5SNJVry4anR2/p1/FeDu5/C9VevD4wgEE3AX/3Bn1ob6vjFQQasqdDzOzjxEDhwOtgGudpzk8rJA28oRk5c/XhU/O/9ud/6JlT+e3XPRt1etD48j0IrAseuLFzcGKkIhijJ9srNvKwduDbkRuktqB9rujriL1lTFzs6/053/Z931HarWhscRaF3AXTY4zeRNgYpRW8WacTgw8J0Dwb4CSLLivwfa3pbTvHhWVREJuPM/kmbli1c/VQx2K9xAZr7zZqP+Vm6JHPI6BlVrzuMI1BJwF9pY+fkMO5KNNmAeG1lehDoJ0Nji5wPtyO5KbPnMqo097M5fXrA27sqlwFu9Vn6n7+hr1IXiz3baix+35sO/CPRWYOWWoLk8L7HyyUBFqsYG0/cNmvhGkBshfga4LbXya4Hs7nKXzq0qLG3t/NePn+SLT3TfdYf6aWMgR1/16Yix5R+6Cw6tN+FvBKIQcNegTjO5xNjin3u+ofnaYOlnZO/wt8hr3xcC2mYy+Y0txmyag1/f7AIyXez81xe5uUlpzLHb5ga5tHEg06ZrsezuHTCXLX7HegP+RiBagTQvdxtbvNpYublnG1vTjZR27Ow3yQH/lwJe3X42GbPxp0q3J3mxr6q4BLzIzxF3576qcTd63H0MbvLytzq+0VCINXB93ppmxWuTycL2jebOYwhEL+Cuj37s3uTl/zRWPsBPCBsX7VBFiH51BzZBbgaUZPKiQAfOtyd2YaGqsHT9zr8qrl3nLz3I5PK81RoSd866i6pl5XO3P3nvA6vmy+MIDFLA3S7T3T3LvRNY/XjzGpPLh1avu/2lTm6hqdsBxF2MmHuT9Qt6O+BjP7MNcle/20xePq2qsPTpnX9VjO7xObvvMas/h7wu0EFSk5zYqo2Ldb+x5c7N5sZzCCCAAAIjFTh2sa0g59Dc5n6xU8Xa13f+VfGuPZ7OL56Z5nKpsfLWnl2e+LC7pbo7UEnnZddavPyLAAIIIIDAhgLGls8O8K72VvfufsMB3TvqcNf2P5JmJ37qVzW+r8fd141JtrjH3Ro3teWfGCufCWBZ9U7/MytjZuVPGls8lev0+1pV+kEAAQRGImCs+P5Y+ytzk8WnVPHF8rF/VfxbPZ7OX/jg1C5Y9517mskvrX5S8A+rBweHpzhAcK/9rLHy964P11dqix91fbsxtoqD5xFAAAEEEKgUMOfKY6fYIVW9E13/+M2b/aZ86Dv/Suh1T+zate/+xhaPdl8lPH6+PMt9XO/+f+zvxTPdc+4165rwJwIIIIAAAn4F3I14PB4A3DRrF55QFSE7/yoZHkcAAQQQQKBlAWPldZ4OAA6ZbGGuKvyhfOdfNT8eRwABBBBAICoBY+VP9QcAxY1JVsxWTZx3/lUyPI4AAggggEBHAsbKe5UHAEc2+8kZO/+OFpZhEUAAAQQQ2EwgzYp3KA8AjppM3rPR7WPZ+W8mz3MIIIAAAgh0KJDk8rvqA4BjV3b8mx17Fh6wNhW+81+T4F8EEEAAAQR6KGBs+V89HQAc/ySAd/49XGhCQgABBBBAYL2Aux2stwOAY58EuJtvufsWrL82gI+/p76r3/p58jcCCCCAAAII3FNgW2rlcwF22D52+mt9sPO/55rxXwgggAACCOgFTF78dI8PAFq9tr9ekx4QQAABBBCIRGDuggu+0Vj5Qg8PAtj5R5JDhIkAAgggEKnA3TedeU7PDgD42D/SXCJsBBBAAIHIBIwtX9OTgwDe+UeWO4SLAAIIIBCxgLufvLHy7o4PAnjnH3EOEToCCCCAQKQC7op+7sp+HR0EsPOPNG8IGwEEEEBgAAIrJwVm8lctHwTwsf8AcocpIIAAAghELtDyQQA7/8jzhfARQAABBAYk0NJBADv/AeUMU0EAAQQQGIhA4IMAdv4DyROmgQACCCAwQIFABwHs/AeYK0wJAQQQQGBgAisHAVbe6unEwNuMLf7TwIiYDgIIIIAAAoMV2LZ6++A7FQcCN8xO5JzBCjExBBBAAAEEhiowt2dhh8nkKmNleYoDgS+ltnj57t1L9xuqC/NCAAEEEEBgFALGljtNJq8wVv7GWLl9g4OBQ8YWVye5fP+OPQsPGAUKk0QAAQQQQGBsAmefVz50ds++JJ1fPJN3+mNbfeaLAAIIIIAAAggggAACCCCAAAIIIIAAAggggAACCCCAAAIIIIAAAggggAACCCCAAAIIIIAAAggggAACCCCAAAIIIIAAAggggAACCCCAAAIIIIAAAggggAACCCCAAAIIIIAAAggggAACCCCAAAIIIIAAAggggAACCCCAAAIIIIAAAggggAACCCCAAAIIIIAAAggggAACCCCAAAIIIIAAAggggAACCCCAAAIIIIAAAggggAACCCCAAAIIIIAAAggggAACCCCAAAIIIIAAAggggAACCCCAAAIIIIAAAggggAACCCCAAAIIIIAAAggggAACCCCAAAIIIIAAAggggAACCCCAAAIIIIAAAggggAACCCCAAAIIIIAAAggggAACCCCAAAIIIIAAAggggAACCCCAAAIIIIAAAggggAACCCCAAAIIIIAAAggggAACCCCAAAIIIIAAAggggAACCCCAAAIIIIAAAggggAACCCCAAAIIIIAAAggggAACCCCAAAIIIIAAAggggAACCCCAAAIIIIAAAggggAACCCCAAAIIIIAAAggggAACCCCAAAIIIIAAAggggAACCCCAAAIIIIAAAggggAACCCCAAAIIIIAAAggggAACCCCAAAIIIIAAAggggAACCCCAAAIIIIAAAggggAACCCCAAAIIIIAAAgggMBKB/w8JyCu09wLSQwAAAABJRU5ErkJggg==;" parent="wZx2sVjV_vOqR1eELIkU-5" vertex="1">
          <mxGeometry x="30" width="60" height="60" as="geometry" />
        </mxCell>
        <mxCell id="wZx2sVjV_vOqR1eELIkU-6" value="" style="group" vertex="1" connectable="0" parent="1">
          <mxGeometry x="555" y="680" width="120" height="106.5" as="geometry" />
        </mxCell>
        <mxCell id="R1Exj3h-KAIHVMebI0o6-11" value="" style="shape=image;verticalLabelPosition=bottom;labelBackgroundColor=default;verticalAlign=top;aspect=fixed;imageAspect=0;image=data:image/png,iVBORw0KGgoAAAANSUhEUgAAAgAAAAIACAYAAAD0eNT6AAAAAXNSR0IArs4c6QAAIABJREFUeAHt3QvUbvd8J/BvLkSSSlSiJIqkpbSdJlh16bAU7aq4tR116zRUUEOVuhTFUMPUjEbpdJhgRosynTWtUK2hzCJhhri0y31a0RGhpAgSgshtnv84R07Oed9z9n7e/fz3f+/9edY6Kyfv2e/e//9n/57/7/s+7/PsnXgQIECAAAECBAgQIECAAAECBAgQIECAAAECBAgQIECAAAECBAgQIECAAAECBAgQIECAAAECBAgQIECAAAECBAgQIECAAAECBAgQIECAAAECBAgQIECAAAECBAgQIECAAAECBAgQIECAAAECBAgQIECAAAECBAgQIECAAAECBAgQIECAAAECBAgQIECAAAECBAgQIECAAAECBAgQIECAAAECBAgQIECAAAECBAgQIECAAAECBAgQIECAAAECBAgQIECAAAECBAgQIECAAAECBAgQIECAAAECBAgQIECAAAECBAgQIECAAAECBAgQIECAAAECBAgQIECAAAECBAgQIECAAAECBAgQIECAAAECBAgQIECAAAECBAgQIECAAAECBAgQIECAAAECBAgQIECAAAEC/QSOTXJSkjslOSXJA5I8PMlvJvnXq109xx8GakANqIGN18DvJHlqksckOTXJLyS5e5LbJbl5kmutzoEHgbUEfiTJLyZ5WpI/SvKeJBcmucofBmpADaiB5mvgsiR/n+RNSU5P8sgkd05y3bU6gm+atcAPJ/m1JP81yRc8uZt/cgtiwqgaUAPr1EAJBu9N8vwkP5vk8Fl3NpPbUuDQJPdN8qrVS/jna/gavhpQA2pgkTVwaZKzkzwjyc227Ba+OBuB2yb5gyRf9GRf5JN9nZ8YfI+fNNXAMmrgyiTvTHKaXxXMpufnmF1vFvmYpq/pqwE1oAbUQIcauCTJ63a9sXA+3XBBM7nRrjd/fL3DyZbwl5HwnWfnWQ2ogb418L4kP5/koAX1z8lOtfwe56Wrd/B/S+OX9NWAGlADamCgGvhwkgclOXiy3XHGAy8/8b9y9WaO7wx0svumRNv7yUINqAE1MP8aKB8vfOCMe+mkpnbI6jP6j0vyNY1f0lcDakANqIFKNfD21UfHyzVjPEYSuMPqdzN/W+lkS/bzT/bOsXOsBtRAnxooHyN8nusJ1E0A10vy8iTlYxt9TpZteakBNaAG1MDQNfB/k9yzbhtc5tFun+TTGr/gowbUgBpQA43VQLnOzLWX2Zo3P+sneJOfJ3xjT/ihf5KwPz+dqoFp18D7k5y4+Xa4nCN8f5I3Wvg1fzWgBtSAGphADXw1yf2W06I3N9Ny+d7zJnDCpfZpp3bnz/lTA2pg6BoovxIon1TzWEOg3K3Jlfw8KYd+UtqfmlIDaqBWDbwhyXXW6H+L/pYHJykfsah1khyHtRpQA2pADWyiBt61uhFd+fSaRweBx/uIn+Aj/KkBNaAGZlQDH0lyfIf+t+hNnj+jE76JJGmffkJRA2pADUyzBsr72Vw9cJuI8xzNX+JXA2pADaiBGdfAZ1f3rbnJNj1wsV9+9IxPuLQ+zbTuvDlvakANbKIGPpHk+ovt9ntN/JeSXCEASP1qQA2oATWwkBp4T5Ij9uqFi/vfuyb59kJO+CaSpH36CUUNqAE1MM0a+Kskhy6u6++a8I8nuUjzl/jVgBpQA2pgoTXwX5YYAI5MUn4PIrkyUANqQA2ogSXXwGlLCwGv1vyFHzWgBtSAGlADuSRJeUV8EY+HOeGe9GpADagBNaAGvlcDH1/CmwJ/LPn/aWcOL/eU1HZukrOS/GmSV/nDQA2oATVQpQb+MsnfJLlgRp8iKz1kto9yQ4SScqbW/D+f5OVJHprkZ5L8aJKjZ3uWTIwAAQLTEijvpP/BJLdP8i9WP2Q+ZdcPZpdPsN88ZFr03Uc7pSv9laBSLkt8hyQHdZ+iLQkQIECgEYFjdv3g9vok35hIGPhykjLuWT1uPoHP+39qdfvhJycpY/UgQIAAgfkIlFeg753kNUlaf2Vgdh8NfGvD6euLSR6X5FrzqXUzIUCAAIFtBMp70d7UcE+6MslPbTP2yX35/o1ClzfxPS/JdScnasAECBAgsFOBuyQ5p9H+9KFVfzpkpxMc+/u/L0m5+1FLb/wrL/+UN/UdNzaO4xMgQIDA6ALlh9RPNtanSs98wugyOxzAsxtD/VyS2+1wTr6dAAECBOYlUH4F/JLG+tVXkxw1Veby0/+FDYGWl3r81D/VajJuAgQIbF7gXyX5TkN96+mbn/JmjlA+i9nKS//lnZ+HbWaa9kqAAAECMxL46SRfaqR/lXFM7rbBh++6QtPYAeCKXReFmFFtmgoBAgQIbFjghCQfaSQEPHHDcx189+VjdWM3//Iu/3sNPjM7JECAAIElCJRfY5dLDo/dy/5xSq9glzdTjP3O//I5yvLOTg8CBAgQILCuQLmA0PsbCAGPXncCtb/vFxvA+je1J+14BAgQIDBLgeOTlHvCjPlKQLkuwCQeZ44MVa777Pr9kygVgyRAgMAkBMqNhr41cm87qXWp6ye5dESkkpKObB3J+AgQIEBgcgKnjtjbyqsPp7cu9pgRgco1/W/WOpDxESBAgMBkBV4wYo8rv4Zo+vLA7x0R5+cmW1IGToAAAQJTEDg4ybtH7HP3aBXpFiOivKVVFOMiQIAAgVkJ3GHEXvfaViXLjQvGeJdkudhP82+OaPWkGRcBAgQI9Bb4s5H63VeSlFchmnuMdX/lVzUnYUAECBAgMGeB8or3ZSOFgNu2BlvemPC1ETDKxzJu0hqG8RAgQIDA7AVeOkLPK6+y/1ZrsuUWu2O8/P97rUEYDwECBAgsQuAHknx9hN735tZ0nzYCQrlX8vVagzAeAgQIEFiMwHNG6H0XJzm0JeG3joDwxy0BGAsBAgQILE6gXHtmjFe/79iS9EUjIJR7DngQIECAAIExBcoVaGuHgCeNOeE9j11ulFB78t9McsSeg/B3AgQIECAwgkC5+VztHviKEea55SHvNsLky0cOPQgQIECAwNgC5WN5tQPA2WNPevfxy32Ka0/+EbsP7r8ECBAgQGBkgfMr98ELRp7v9w7/4soTL1f+Kx+/8CBAgAABAi0IvKRyHyw/dB/dwsTLdfhrvgLwnhYmbQwECBAgQGCXQLkZXc0+WI5V7kkw+uMfKk/8jNFnbAAECBAgQOBqgRtW7oMlADzk6sOP97faHwF81nhTdWQCBAgQILCPQLlBT+17Azxxn1FU/sJBScrv5Gu+9OENgJVPssMRIECAwAEFPlu5Fz77gCPa8AZHVp5wCRqnbHhOdk+AAAECBPoKnFO5H57ed4BDb3+jyhMuAeCkoSdhfwQIECBAYIcCZ1buhy/b4Xh3/O3lnsg1X/4vxzp2x6O2AwIECBAgMKxA7Y8Cvm7Y4fffW+0rIF2apLzvwIMAAQIECLQk8IzKPxCPfkXcu1SecHmThQcBAgQIEGhNoLxBveYr4u8YG+CulSd83tgTdnwCBAgQILCFwMMq98OzthhD1S8JAFW5HYwAAQIEGhUQADacgLwC0GjlGxYBAgQWLiAACAALfwqYPgECBJYpIAAIAMusfLMmQIDAwgUEAAFg4U8B0ydAgMAyBQQAAWCZlW/WBAgQWLiAACAALPwpYPoECBBYpoAAIAAss/LNmgABAgsXEAAEgIU/BUyfAAECyxQQAASAZVa+WRMgQGDhAgKAALDwp4DpEyBAYJkCAoAAsMzKN2sCBAgsXEAAEAAW/hQwfQIECCxTQAAQAJZZ+WZNgACBhQsIAALAwp8Cpk+AAIFlCggAAsAyK9+sCRAgsHABAUAAWPhTwPQJECCwTAEBQABYZuWbNQECBBYuIAAIAAt/Cpg+AQIElikgAAgAy6x8syZAgMDCBQQAAWDhTwHTJ0CAwDIFBAABYJmVb9YECBBYuIAAIAAs/Clg+gQIEFimgAAgACyz8s2aAAECCxcQAASAhT8FTJ8AAQLLFBAABIBlVr5ZEyBAYOECAoAAsPCngOkTIEBgmQICgACwzMo3awIECCxcQAAQABb+FDB9AgQILFNAABAAlln5Zk2AAIGFCwgAAsDCnwKmT4AAgWUKCAACwOIq/7gkJ/jDQA1Ur4HDF7fatD1hAUAAaLtCNzC6czZ8zq+y/zAIgy2eB6ds4Plsl+sLCABbFOmQi9d5658b37khAQFAcxryOW5f3etJANjQorbmbgUAAWDN0pnutwkA3RdszY3VkDUgALS1bgoAAkBbFVlhNAKApjZkU7Ov7vUkAFRY4HocQgAQAHqUyzw2FQC6L9iaG6sha0AAaGsNFQAEgLYqssJoBABNbcimZl/d60kAqLDA9TiEACAA9CiXeWwqAHRfsDU3VkPWgADQ1hoqAAgAbVVkhdEIAJrakE3NvrrXkwBQYYHrcQgBQADoUS7z2FQA6L5ga26shqwBAaCtNVQAEADaqsgKoxEANLUhm5p9da8nAaDCAtfjEAKAANCjXOaxqQDQfcHW3FgNWQMCQFtrqAAgALRVkRVGIwBoakM2NfvqXk8CQIUFrschBAABoEe5zGNTAaD7gq25sRqyBgSAttZQAUAAaKsiK4xGANDUhmxq9tW9ngSACgtcj0MIAAJAj3KZx6YCQPcFW3NjNWQNCABtraECgADQVkVWGI0AoKkN2dTsq3s9CQAVFrgehxAABIAe5TKPTQWA7gu25sZqyBoQANpaQwUAAaCtiqwwGgFAUxuyqdlX93oSACoscD0OIQAIAD3KZR6bCgDdF2zNjdWQNSAAtLWGCgACQFsVWWE0AoCmNmRTs6/u9SQAVFjgehxCABAAepTLPDYVALov2JobqyFrQABoaw0VAASAtiqywmgEAE1tyKZmX93rSQCosMD1OIQAIAD0KJd5bCoAdF+wNTdWQ9aAANDWGioACABtVWSF0QgAmtqQTc2+uteTAFBhgetxCAFAAOhRLvPYVADovmBrbqyGrAEBoK01VAAQANqqyAqjEQA0tSGbmn11rycBoMIC1+MQAoAA0KNc5rGpANB9wdbcWA1ZAwJAW2uoACAAtFWRFUYjAGhqQzY1++peTwJAhQWuxyEEAAGgR7nYlAABAgTmIiAACABzqWXzIECAAIEeAgKAANCjXGxKgAABAnMREAAEgLnUsnkQIECAQA8BAUAA6FEuNiVAgACBuQgIAALAXGrZPAgQIECgh4AAIAD0KBebEiBAgMBcBAQAAWAutWweBAgQINBDQAAQAHqUi00JECBAYC4CAoAAMJdaNg8CBAgQ6CEgAAgAPcrFpgQIECAwFwEBQACYSy2bBwECBAj0EBAABIAe5WJTAgQIEJiLgAAgAMylls2DAAECBHoICAACQI9ysSkBAgQIzEVAABAA5lLL5kGAAAECPQQEAAGgR7nYlAABAgTmIiAACABzqWXzIECAAIEeAgKAANCjXGxKgAABAnMREAAEgLnUsnkQIECAQA8BAUAA6FEuNiVAgACBuQgIAALAXGrZPAgQIECgh4AAIAD0KBebEiBAgMBcBAQAAWAutWweBAgQINBDQAAQAHqUi00JECBAYC4CAoAAMJdaNg8CBAgQ6CEgAAgAPcrFpgQIECAwFwEBQACYSy2bBwECBAj0EBAABIAe5WJTAgQIEJiLgAAgAMylls2DAAECBHoICAACQI9ysSkBAgQIzEVAABAA5lLLnedxXJIT/GGgBqrXwOGdn6U2rCEgAAgANeqsqWOcs+FzfpX9h0EYbPE8OKWplcBgBIAtinTIxes8NdacgACgOQ35HLev7vUkALS1HAoAAkBbFVlhNAJA9wVbc2M1ZA0IABUWuB6HEAAEgB7lMo9NBQBNbcimZl/d60kAaGsNFQAEgLYqssJoBIDuC7bmxmrIGhAAKixwPQ4hAAgAPcplHpsKAJrakE3NvrrXkwDQ1hoqAAgAbVVkhdEIAN0XbM2N1ZA1IABUWOB6HEIAEAB6lMs8NhUANLUhm5p9da8nAaCtNVQAEADaqsgKoxEAui/YmhurIWtAAKiwwPU4hAAgAPQol3lsKgBoakM2NfvqXk8CQFtrqAAgALRVkRVGIwB0X7A1N1ZD1oAAUGGB63EIAUAA6FEu89hUANDUhmxq9tW9ngSAttZQAUAAaKsiK4xGAOi+YGturIasAQGgwgLX4xACgADQo1zmsakAoKkN2dTsq3s9CQBtraECgADQVkVWGI0A0H3B1txYDVkDAkCFBa7HIQQAAaBHucxjUwFAUxuyqdlX93oSANpaQwUAAaCtiqwwGgGg+4KtubEasgYEgAoLXI9DCAACQI9ymcemAoCmNmRTs6/u9SQAtLWGCgACQFsVWWE0AkD3BVtzYzVkDQgAFRa4HocQAASAHuUyj00FAE1tyKZmX93rSQBoaw0VAASAtiqywmgEgO4LtubGasgaEAAqLHA9DiEACAA9ymUemwoAmtqQTc2+uteTANDWGioACABtVWSF0QgA3RdszY3VkDUgAFRY4HocQgAQAHqUyzw2FQA0tSGbmn11rycBoK01VAAQANqqyAqjEQC6L9iaG6sha0AAqLDA9TiEACAA9CiXeWwqAGhqQzY1++peTwJAW2uoACAAtFWRFUYjAHRfsDU3VkPWgABQYYHrcQgBQADoUS7z2FQA0NSGbGr21b2eBIC21lABQABoqyKNhgABAgSqCAgAAkCVQnMQAgQIEGhLQAAQANqqSKMhQIAAgSoCAoAAUKXQHIQAAQIE2hIQAASAtirSaAgQIECgioAAIABUKTQHIUCAAIG2BAQAAaCtijQaAgQIEKgiIAAIAFUKzUEIECBAoC0BAUAAaKsijYYAAQIEqggIAAJAlUJzEAIECBBoS0AAEADaqkijIUCAAIEqAgKAAFCl0ByEAAECBNoSEAAEgLYq0mgIECBAoIqAACAAVCk0ByFAgACBtgQEAAGgrYo0GgIECBCoIiAACABVCs1BCBAgQKAtAQFAAGirIo2GAAECBKoICAACQJVCcxACBAgQaEtAABAA2qpIoyFAgACBKgICgABQpdAchAABAgTaEhAABIC2KtJoCBAgQKCKgAAgAFQpNAchQIAAgbYEBAABoK2KNBoCBAgQqCIgAAgAVQrNQQgQIECgLQEBQABoqyKNhgABAgSqCAgAAkCVQnMQAgQIEGhLQAAQANqqSKMhQIAAgSoCAoAAUKXQHIQAAQIE2hIQAASAtirSaAgQIECgioAAIABUKTQHIUCAAIG2BAQAAaCtijQaAgQIEKgiIAAIAFUKraWDHJfkBH8YqIHqNXB4SwuBsUQAEAAW9zQ4Z8Pn/Cr7D4Mw2OJ5cMriVpu2JywAbFGkQy5e57V9/hc5OgFAcxryOW5f3etJAGhryRUABIC2KrLCaASA7gu25sZqyBoQACoscD0OIQAIAD3KZR6bCgCa2pBNzb6615MA0NYaKgAIAG1VZIXRCADdF2zNjdWQNSAAVFjgehxCABAAepTLPDYVADS1IZuafXWvJwGgrTVUABAA2qrICqMRALov2JobqyFrQACosMD1OIQAIAD0KJd5bCoAaGpDNjX76l5PAkBba6gAIAC0VZEVRiMAdF+wNTdWQ9aAAFBhgetxCAFAAOhRLvPYVADQ1IZsavbVvZ4EgLbWUAFAAGirIiuMRgDovmBrbqyGrAEBoMIC1+MQAoAA0KNc5rGpAKCpDdnU7Kt7PQkAba2hAoAA0FZFVhiNANB9wdbcWA1ZAwJAhQWuxyEEAAGgR7nMY1MBQFMbsqnZV/d6EgDaWkMFAAGgrYqsMBoBoPuCrbmxGrIGBIAKC1yPQwgAAkCPcpnHpgKApjZkU7Ov7vUkALS1hgoAAkBbFVlhNAJA9wVbc2M1ZA0IABUWuB6HEAAEgB7lMo9NBQBNbcimZl/d60kAaGsNFQAEgLYqssJoBIDuC7bmxmrIGhAAKixwPQ4hAAgAPcplHpsKAJrakE3NvrrXkwDQ1hoqAAgAbVVkhdEIAN0XbM2N1ZA1IABUWOB6HEIAEAB6lMs8NhUANLUhm5p9da8nAaCtNVQAEADaqsgKoxEAui/YmhurIWtAAKiwwPU4hAAgAPQol3lsKgBoakM2NfvqXk8CQFtrqAAgALRVkRVGIwB0X7A1N1ZD1oAAUGGB63EIAUAA6FEu89hUANDUhmxq9tW9ngSAttZQAUAAaKsiK4xGAOi+YGturIasAQGgwgLX4xACgADQo1zmsakAoKkN2dTsq3s9CQBtraECgADQVkUaDQECBAhUERAABIAqheYgBAgQINCWgAAgALRVkUZDgAABAlUEBAABoEqhOQgBAgQItCUgAAgAbVWk0RAgQIBAFQEBQACoUmgOQoAAAQJtCQgAAkBbFWk0BAgQIFBFQAAQAKoUmoMQIECAQFsCAoAA0FZFGg0BAgQIVBEQAASAKoXmIAQIECDQloAAIAC0VZFGQ4AAAQJVBAQAAaBKoTkIAQIECLQlIAAIAG1VpNEQIECAQBUBAUAAqFJoDkKAAAECbQkIAAJAWxVpNAQIECBQRUAAEACqFJqDECBAgEBbAgKAANBWRRoNAQIECFQREAAEgCqF5iAECBAg0JaAACAAtFWRRkOAAAECVQQEAAGgSqE5CAECBAi0JSAACABtVaTRECBAgEAVAQFAAKhSaA5CgAABAm0JCAACQFsVaTQECBAgUEVAABAAqhSagxAgQIBAWwICgADQVkUaDQECBAhUERAABIAqheYgBAgQINCWgAAgALRVkUZDgAABAlUEBAABoEqhOQgBAgQItCUgAAgAbVWk0RAgQIBAFQEBQACoUmgOQoAAAQJtCQgAAkBbFWk0BAgQIFBFYHEB4C4bbvhX7bX/z1Y5jQ5CgAABAgT6CTxir361d/8a+v/f0W94w29928oTvjTJQcNPwx4JECBAgMCOBJ5ZuR++aUejHeCbb1F5wiVB3WCAcdsFAQIECBAYUuCllfvh64Yc/Dr7ulHlCZcAcPI6A/U9BAgQIEBggwJvqNwPX7bBuXTa9ZGVJ1wCwD07jcxGBAgQIECgnsD7KvfD0+tNbfsjXVF50uWNFh4ECBAgQKAlgfIm9aHf6Le//T27hclftMRJtwBvDAQIECDQhMDBSS6r3Auf2MLMz6086dF/79ECujEQIECAQDMCY7wf7tQWZv9XlQPAOS1M2hgIECBAgMAugVMq98Hyq4HbtaD/+5UnfmWSkrY8CBAgQIBACwJnVO6DJQAc1cLEHzXCxH+thYkbAwECBAgsXqBcnO5zlfvgF1pRr3054JJ8yq8dPAgQIECAwNgCP1m5+ZceeNbYk959/BuOMPlvJSnXIPAgQIAAAQJjCjxvhB7Y1JvhvzoCwP3GPOOOTYAAAQIEknxkhP73hJbka38SoLwE8uqWAIyFAAECBBYncOIIzb/0v9u3JP2kERDKBYiOaQnBWAgQIEBgUQL/dqTed0hLyrceAaGkoBe1hGAsBAgQILAYgeOSXDJC7xv9NsB7n+HyMYgvjwBxaZIT9h6M/ydAgAABAhsWePkIPa/84NvU7/93G//5SBij3xN5N4D/EiBAgMAiBG6V5PKRet5JLQo/diSMcmXA27QIYkwECBAgMEuBN47U776UpLzi3tzjJklKMy4vUdT+8/bmNAyIAAECBOYocKcRetzunvpHLYO+Y0SYe7cMY2wECBAgMHmB8u77ckO63Q259n/v1rLgw0aEuTDJD7eMY2wECBAgMGmB/zBij/tMqy//7z6j1x3pYxG7U9gnWrlD0m4Q/yVAgACBWQg8csTmX3rc705Bsbwrf3dDHuO/b05y8BSgjJEAAQIEJiFQbnr3nZF7W/nkQfOPe4yMVELHC5tXMkACBAgQmIJAudZMeff9GD/Q7j7m+6cAVcZYfvo+d2Ssglbej+BBgAABAgTWFfi+JB9toJ+dtu4Exvi+RzQAVq4S+OAxJu+YBAgQIDB5gesneWcDvay8+e9aU9K8dpLPNgBXXgko92pu8sIJUzqhxkqAAIEFCZTft7fwSnbpYeUie5N7PL6RAFAAz0xy5OQEDZgAAQIEagucsrre/tca6V9fSHKd2gBDHO+IJF9sBLGEgA8luekQE7MPAgQIEJilwBNHvMZ/6VN7/3nKlJWfvsWE9p5gzf//pyR3njKosRMgQIDA4AKHJXllY/2qXNyuvAlxso/Dk3y6MdQrkrzGbYQnW1MGToAAgaEEyqfWHrr61Nh5jfWp8oPxJH/3v/eJuW+DsAW3fErgxUmO2XvA/p8AAQIEZi9wryQfbrQ/fXBOF7T7i0aRSxC4KMkzk5T3LHgQIECAwLwF7pDkrIZ7UnmV+nZzOgU3G/keAV3eZ/D5VeJ6bpLbzgneXAgQIEAgRyf5l6v1/U0NN/7dfeqMOZ6v1t4QuBt7q/+WCy/8YZK7Jzl0jifDnAgQIDBzgRuvPon260ne1sB1/LfqM1t9rXxy7vvneF7KxYH+dgLpa++TUt6JWd40+Kgk905ymyQ3nNPvZ+ZYbOZEgMBiBMqvb2+epNyw55eTPCtJuXb+lRPsN7O+em05SRdP8KTsHQrK/1+262qH5yR5Q5L/VvHPYxbz1J7ORMvHdU6vWAM1682x6j6/eR/Y++1JPt7QBXu26hF9v/aK6Sx364/0QTMJAH1P7pDbv2p9ft+5AYE7JfkHdb3PRUyGrHn72vciMUzmY1I+jTDJK/6ts56+zGK5o8VSAFin6ob/nnKDjuevXnIs79q1GDNQA2pgnRr4epJbDr88tbvHknTKpXnXwfI9iQAwfm3/2ETf0+L5Y91RA23VwK+Mv5zVH8EtknxZCFgrBAkA9et19xHLnSV/M8m31O5atav5tNV8nI9xz8dLdy8sS/zv7ZN8w0LaeyEVAMZ5tvzg6l4S/1O99q5XTWbcJsO/Tf9yl9pDxlnK2jlqufXidyyqvRZVAaB+/ZaPF31VnfaqU42nzcbjvIx/Xs5e0pv+DrRcnzrRz2zaEUzNAAAOO0lEQVSO9UQSAA5UUcP9e7kox59q/Bq/GlADA9VAecd/uTKhxx4CTx4Id6ymXPO4AsAehbPBv/5sks+pSwu/GlADA9VAuTvucRtcsya966d4JaDTE00A2GyZl0+p/IFa7FSLNYOvY43/0rVzsP45ODfJiZtduqa/94ftusqeQtu+0ASAzdV5uRnUJwZK+2p4+xpmw2ZJNfA3SX5gc8vWvPZ8nyTftAhv+xOYADB8vZd34z7DG1K3rbklLdbmKpwMWQPlk0PXHX7Jmvcey+VVvet66yeiADBs7f9Qkv8tcGr+akANDFwD5b4O5UZ4HmsI/HiSvxv4hAyZ7MbalwCwRjFt8y2PTFIuxTnWuXRc9mpgfjVQ7kT47901dptVt8eXy13WXmeBvkaDEgB6FNA2m5bfx/2FurpGXWlE82tEzmn9c1qucHuvbdYdX15T4FEuv/q9xVoAWLOIdn3bfZP8k+b/vXrSJOo3CebzNP9fScoVQz02IHBykk9auN0MaM3aKq8m/Wf1o/GrATUwcA3sfsn/0DXXJt/WUaAs4i9c+EcFvQLQsVj22OyfJ/nUwE96P8XN86c459V57VMD5X1qd99jrfHXCgI/keTdC13QBYDuBXatJL+b5PKF1kqfhcy2Gp8a6F4D5aPqz/Qu/+6L8dBblluzlgsHfXFhi7sA0K2SfjRJuQCHRY2BGlADQ9bAXyY5odsyZKtNC5QbtrwoySULWewFgP1XVAmGj/emUcFnIevBkI3NvvYflD6a5Of3v/z417EEyke7XrCAz3ULANtX2I2TvN3Cr/mrATUwYA28P8kvJCk/XHg0LnBMkucl+dqABdBSMhYAti7AB69+8v/KTM95S/VnLPv/KZHPfHzOTvJzWy83vtq6wPWS/EaSD8ysKQgA16y8cp5dLGo+i64G6lyOWQMXJXllkvLJIY+ZCJQ3hP27JJ+dQRgQAK4uyp+ZyTkdc8FzbA136TVQPiX0liS/vPo18uFXLy/+NjeBg1cfHyxN4z8m+T8TDQMCQHKdJC9OUi7AsfTFy/zVgBroXwPlTeN/neRJSY6bW6Mzn24C5U1jD03y6iSfm0gzWXoAuE2Sj0/kXFmY+y/MzJhtoga+neSdqx8anp3kzqvrg5RrhHgQuIZA+WznKas3ED4hyRlJ3pHkHxtrNksNAOXVm6cn+U5j52MTi5V9aoJqYL0aKBfo+XCS/77rzeCnJvnJ1d35yquGHgTWEiiXIC73jb/1KhTcZXWBmXJDmV9Z3VTmMas3i7ytckNaYgA4MUm50caUF8VvrK4a9vwkv+0PAzWwdg08bdd1Pk5Lcv8k99j1hr1yddhyIx4f1VurxfmmdQWeU7kxLS0APHz1e7qLKxsPHTTem+Tm6xaY7yNAgACBNgUEgM2clxusXnF548Qb/2VJnrV6KfKQzRDZKwECBAiMKSAADK9/nyQXTLz5l7uEld89ehAgQIDATAUEgOFO7JFJXjHxxl9+ffASnycerijsiQABAq0KCADDnJmfSvKpiTf/8omR8qYkDwIECBBYgIAAsLOTXD6PW+7dUK7GNfSb72rur3zs6Po7o/DdBAgQIDAlAQFg/bN1qyQfnHjjLzedKp819iBAgACBhQkIAP1PePms7uOSlIt21PwpfehjlSuL3bT/9H0HAQIECMxBQADodxaP33UN7qGbcc39lcuKPtlFR/qdeFsTIEBgbgICQPcz+sDVT/4XTvyn/g8l+Wfdp2xLAgQIEJirgABw4DN79OpKeK+deOO/YvXRvhesLud77QNP1xYECBAgsAQBAWD/Z/luSc6fePP/9K57QOx/pv6VAAECBBYlIABsfboPS/Ki1e03r5x48//j1TyO2nqKvkqAAAECSxYQAPY9++WuiR+beOP/UpL77Ts1XyFAgAABAt8VEACuroSDk5TbdV468eb/5iQ3unpa/kaAAAECBPYVEAC+a3JikndNvPFfsroJ0aP3PcW+QoAAAQIE9hUQAJLTklw88eZ/TpJb7Ht6fYUAAQIECGwtsOQAcGySMyfe+C9bvVHx2av7ERyy9en1VQIECBAgsLXAUgPAvVcvl18w8eb/d0lut/Vp9VUCBAgQILB/gaUFgCNXb5B72cQbf7ls8EuTHLH/U+tfCRAgQIDA9gJLCgB3THLuxJv/55Ocsv3p9C8ECBAgQKCbwBICwKFJnpvk8ok3/z9Lcky302orAgQIECCwf4G5B4BbJvnAxBv/15I8ZP+n0b8SIECAAIF+AnMOAI9N8s2JN/93Jrlpv1NqawIECBAgcGCBOQaA45O8deKN/9tJfmv1q4tydUIPAgQIECAwuMDcAsADklw48eb/4SQ/MfiZtkMCBAgQILCHwFwCwNFJ/mTijf+K1Uf7fi/Jtfc4P/5KgAABAgQ2IjCHAHDXJJ+ZePM/L8ldNnKG7ZQAAQIECGwhMOUAcFiSF64uhXvlxJv/q5IctcW58SUCBAgQILAxgakGgJOTfHTijf/Lqzn80sbOrB0TIECAAIH9CEwtAJR3xT81yaUTb/7/Y3VJ4hvt57z4JwIECBAgsFGBKQWAE5KcPfHGf0mSx2z0jNo5AQIECBDoIDCVAPCrSS6aePN/X5If6XBObEKAAAECBDYu0HoAOHb1mfjXT7zxX7Ya/+8kKfck8CBAgAABAk0ItBwA7pXkCxNv/n+f5PZNnGmDIECAAAECewi0GADKfe7PmHjjvyrJf1pd2KfMxYMAAQIECDQn0FoAuEOST068+X8+yT2bO9MGRIAAAQIE9hBoJQCU34+XsZTfl5efnqf658+THLOHr78SIECAAIEmBVoIAOWd8e+fcNMvYaV8QuGhTZ5hgyJAgAABAlsIjB0Afj1J+Wz8VH/iL+M+K8nNtrD1JQIECBAg0KzAWAHguCRvmXjjL1cjfEqScnVCDwIECBAgMCmBMQJAuf59uQ7+lH/q/0iSkyZ1pg2WAAECBAjsIVA7AEz9an5XJDk9SbkToQcBAgQIEJisQO0AMOWf+s9L8tOTPdMGToAAAQIE9hAQALr9KuI1SY7aw81fCRAgQIDApAUEgP0HgPJehftP+gwbPAECBAgQ2EJAANg+AJRPKZRPK3gQIECAAIHZCQgA+waAcl2Ccn0CDwIECBAgMFsBAeCaAaBckbBcmdCDAAECBAjMWkAA+G4AKPcgKBblngQeBAgQIEBg9gICwHfvPljuQuhBgAABAgQWI7D0AHBGkiMWc7ZNlAABAgQI7BJYagD4wuoOhPdSBQQIECBAYKkCSwwAr09y7FJPuHkTIECAAIEisKQAUO5D8KtOOwECBAgQILCcAHB2khOccAIECBAgQOC7AnN/BeDSJE9NcrATToAAAQIECFwtMOcA8NEkJ189VX8jQIAAAQIEdgvMMQBcmeSFSQ7bPUn/JUCAAAECBK4pMLcA8Jkkd73mFP0fAQIECBAgsLfAnALAnyQ5eu8J+n8CBAgQIEBgX4E5BIALkzxg36n5CgECBAgQILCdwNQDwFuTHL/d5HydAAECBAgQ2FpgqgHgm0keu/WUfJUAAQIECBA4kMAUA8AHktzyQBPz7wQIECBAgMD2AlMKAJevLujz3CSHbj8d/0KAAAECBAh0EZhKADg3yR27TMg2BAgQIECAwIEFphAAXpbkyANPxRYECBAgQIBAV4GWA8AFSe7ddSK2I0CAAAECBLoLtBoAzkxybPdp2JIAAQIECBDoI9BaALg4yWl9JmBbAgQIECBAoL9ASwHgXUlO6D8F30GAAAECBAj0FWghAFya5Gmrj/gd3HfwtidAgAABAgTWExg7AHw0ycnrDd13ESBAgAABAusKjBUArkzy+0kOW3fgvo8AAQIECBBYX2CMAHB+krutP2TfSYAAAQIECOxUoHYAeG2So3c6aN9PgAABAgQI7EygVgC4MMkDdzZU302AAAECBAgMJVAjAPx1kuOHGrD9ECBAgAABAjsX2GQA+GaS30hy0M6HaQ8ECBAgQIDAkAKbCgAfTHKrIQdqXwQIECBAgMBwAkMHgMuTPC/JocMN0Z4IECBAgACBoQWGDADnJrnj0AO0PwIECBAgQGB4gaECwMuTHDn88OyRAAECBAgQ2ITATgPABUnus4mB2ScBAgQIECCwOYGdBIA3JLnB5oZmzwQIECBAgMCmBNYJABcnefimBmS/BAgQIECAwOYF+gaAdyc5cfPDcgQCBAgQIEBgkwJdA8ClSX47ycGbHIx9EyBAgAABAnUEugSAjyW5dZ3hOAoBAgQIECBQQ2B/AeDKJC9Kcp0aA3EMAgQIECBAoJ7AdgHg/CR3rzcMRyJAgAABAgRqCmwVAF6X5Ho1B+FYBAgQIECAQF2BPQPAV5I8qO7hHY0AAQIECBAYQ2B3AHhbkhuPMQDHJECAAAECBOoLPDXJ45IcVP/QjkiAAAECBAiMJeBz/WPJOy4BAgQIECBAgAABAgQIECBAgAABAgQIECBAgAABAgQIECBAgAABAgQIECBAgAABAgQIECBAgAABAgQIECBAgAABAgQIECBAgAABAgQIECBAgAABAgQIECBAgAABAgQIECBAgAABAgQIECBAgAABAgQIECBAgAABAgQIECBAgAABAgQIECBAgAABAgQIECBAgAABAgQIECBAgAABAgQIECBAgAABAgQIECBAgAABAgQIECBAgAABAgQIECBAgAABAgQIECBAgAABAgQIECBAgAABAgQIECBAgAABAgQIECBAgAABAgQIECBAgAABAgQIECBAgAABAgQIECBAgAABAgQIECBAgAABAgQIECBAgAABAgQIECBAgAABAgQIECBAgAABAgQIECBAgAABAgQIECBAgAABAgQIECBAgAABAn0E/h8qreAjcrCk1gAAAABJRU5ErkJggg==;imageBackground=default;" parent="wZx2sVjV_vOqR1eELIkU-6" vertex="1">
          <mxGeometry x="35" width="50" height="50" as="geometry" />
        </mxCell>
        <mxCell id="wZx2sVjV_vOqR1eELIkU-1" value="&lt;font&gt;Zero-shot prompting&lt;/font&gt;" style="text;strokeColor=none;align=center;fillColor=none;html=1;verticalAlign=middle;whiteSpace=wrap;rounded=0;fontSize=16;" vertex="1" parent="wZx2sVjV_vOqR1eELIkU-6">
          <mxGeometry y="52.75" width="120" height="53.75" as="geometry" />
        </mxCell>
        <mxCell id="wZx2sVjV_vOqR1eELIkU-7" value="" style="group" vertex="1" connectable="0" parent="1">
          <mxGeometry x="766.5" y="686.5" width="120" height="97" as="geometry" />
        </mxCell>
        <mxCell id="wZx2sVjV_vOqR1eELIkU-3" value="&lt;span&gt;Finetune&lt;/span&gt;" style="text;strokeColor=none;align=center;fillColor=none;html=1;verticalAlign=middle;whiteSpace=wrap;rounded=0;fontSize=16;" vertex="1" parent="wZx2sVjV_vOqR1eELIkU-7">
          <mxGeometry y="43.25" width="120" height="53.75" as="geometry" />
        </mxCell>
        <mxCell id="R1Exj3h-KAIHVMebI0o6-17" value="" style="shape=image;verticalLabelPosition=bottom;labelBackgroundColor=default;verticalAlign=top;aspect=fixed;imageAspect=0;image=data:image/png,iVBORw0KGgoAAAANSUhEUgAAAgAAAAIACAYAAAD0eNT6AAAAAXNSR0IArs4c6QAAIABJREFUeAHtnQe0NEW1tl+iZCUnEQFRUFEEBQTFBGIA/UXBHFBBMaFizmICM6goyFXBjCAKmMArIqAiChgQERFQJAdFcrr/vDLNN99xZs70TO/q6u6n1jpr5sz0VFc9tav27qpduyQSBCAAAQhAAAIQgAAEIAABCEAAAhCAAAQgAAEIQAACEIAABCAAAQhAAAIQgAAEIAABCEAAAhCAAAQg8B8Cb5F0OH+VMngrsgUBCEAAAhDIncDpkv6Pv0oZ/C73Rqd8EIAABCAAgStR/pUqfxtT10taBNGCAAQgAAEI5EpgGZR/5cq/mE1ZPddGp1wQgAAEIACBjTEAwgyArREvCEAAAhCAQK4EdsAACDMAnpdro1MuCEAAAhCAwO4YAGEGwLsRLwhAAAIQgECuBPbBAAgzAA7NtdEpFwQgAAEIQOBLGABhBsBJiBcEIAABCEAgVwInYACEGQAX59rolAsCEIAABCBwHgZAmAFwhyRvsyRBAAIQgAAEsiKwqKSbMQDCDADHA3hAVi1OYSAAAQhAAAKS1kL5hyp/GwA7IWkQgAAEIACB3AhshQEQbgC8NrdGpzwQgAAEIACBXTEAwg2AAxAzCEAAAhCAQG4E3oABEG4AHJtbo1MeCEAAAhCAwP4YAOEGwNmIGQQgAAEIQCA3AkdhAIQbADdJ8m4LEgQgAAEIQCAbAqdjAIQbAN4JcM9sWpyCQAACEIAABCRdiQGQxAB4FNIGAQhAAAIQyIWAI9T56bTqv99IOqjBfz8PYLJbLo1OOSAAAQhAAAIbByg6GxOvajja5wdweV/DmVB8CEAAAhBoEYEdAhSdDYAdG87oMQFcvtpwJhQfAhCAAARaRGD3AEVnA+CBDWd0nwAuv2w4E4oPAQhAAAItIrBPgKKzAbB8wxktJcmn+LkuVf1d3nAmFB8CEIAABFpE4EsVKrhCUV7REj6uR1Gnql5XaAkbqgEBCEAAAg0n8JMAJXdaw5kUxY+Ij7BpkTmvEIAABCAAgToJnBdgAHyrzgpVeO+jA9jsXGH5yAoCEIAABCAwFQGHpr05QMl9ZKrS5PejAwPYvDG/alIiCEAAAhDoGoG1AhSc18qbHgOgkIO3BfD5bJE5rxCAAAQgAIG6CGwVoOBsADQ9BkDRHhHBgH5UZM4rBCAAAQhAoC4CuwYZAE2PAVC0R0QwoL8UmfMKAQhAAAIQqIvAG4IMgKbHACjaIyIY0K2SFi9uwCsEIAABCECgDgL7BxgAbYkB4PaICAbkJZL16mhs7gkBCEAAAhAoCBwVYAC0JQZAwSgiGNDjisx5hQAEIAABCNRBwEf2VhXhrsinLTEAivY4I4DRHkXmvEIAAhCAAATqIHBlgHJrSwyAoj0iggHtW2TOKwQgAAEIQCA1gWUClL9nAdoSA6Boj4hgQIcXmfMKAQhAAAIQSE1g4yADoC0xAIr2iAgG5KUXEgQgAAEIQKAWAjsEGQBtiQFQNEpEMKB/FpnzCgEIQAACEEhNYPcgA6AtMQCK9ogIBuSlkpWKG/AKAQhAAAIQSElgnwADoE0xAIq2iAgGZAPgYcUNeIUABCAAAQikJPClAAPgVykrkOheUcGAnpmo/NwGAhCAQK0ElpBkz+c3S1qk1pJw84LATwIMgLZ6t0cEA3pr0RC8QgACEGgrASv/IweUjQPFtG2duIlt50NpiuA9Vb22LQZA0a4RwYAOKTLntVYCL5T0OUmL1loKbg6BFhKw8v/2EEVzjqS2eYs3qfk8C3PTkHaZ1RB4ZZMglChrRDAgz8CQ6iPgA5kckKmQ+a9LWqy+4nBnCLSLwCjlX3S4f0tiHbSeNl9rYOAr2qOK1yfXU53wu0YEA7ogvNTcYBSBVST975A+gBEwihifQ6AEgfmU/6CyOUiSryelI7DVkMFvsE2mff+AdFVIeqeIYEC3S7pb0lpwMxN4iCQbX6NkHCMAOYHADATKKP+iE/5M0poz3JOfliOw65gBsGiTaV7b6tsREQzIfO9brtm4ekYCz5V0wwSyjxEwI2h+3k0C0yj/QtFcJslBV0jxBN4wwSBYtMukr5fHF7u2O0QFA3pCbTXq1o3nrvdPItMYAd2SEWo7I4FZlH/RIW/tbxWcsSj8fB4C+wcYAG2MAVBg3DCAl2W+rU6TBbccXket9xdjzrhXjIAcWpAyZE+gCuU/2BG/JmnZ7Gvd3AIeFaDQ2hoDwK0cFQzoY80VoUaUfL71/sExZ9R7jIBGNDWFrItA1cq/6Ihn94IH3b+uSrX8vj6NruBc1euHW84sIhiQDTFSDIFJ1/snkX+MgJg2IteGE4hS/kWnvFbSMxrOKMfiRyiztk9nRwQD+m2OwtHwMk2z3l+MN+NeMQIaLhgUv1oCVv6DEf7GdZ5Zvrujt13qQwTpqKzxNgl4+nf77lhZCfPMKCIY0HWExq60sVfrORKfGCTflvEvEjGw0vYis4YSSKX8Bw2HH0tataG86iz2RpJeLslPMJcEDo5tj+wYEQzI8u32Ic1O4KGS/hYo38VYhBEwe1uRQ4MJ1KH8i87nDr5Fg9mlKPrqkl6aQOEXbVK8LpeicjXeIyIYkNl5huvXvZmA9/Zlm5j05RvZ8fxvTKD8C1nHCCjfRvyiBQTqVP5F53MMez/RkhYQcAS+t0j6hSRHmCtYpXq1T0HbU1QwoLlt5HgYVjC7SFqh7VBnrJ/HowNqkHe3GUbAjI3Hz5tFIAflPzhY+jz7pZuFsLLS+jCfR/ROVfQ2sohT/QY5T/L+tMpqlm9GUcGAxvG1sXuspN16im6lfNHUUrLo9f5x7VJ8hxFQS9Nz09QErPyHnepXdIS6Xu2ZvUFqGDXez9si35OJ0h9s8zbHACia+141PWkWnG+TdLKkvQibPW88/4JZild2BxQ9hNdWEsjtyX9up75a0pNaSf7OSt1TkkP3nlmzAprLffD/j7SYf1E1z7r8K5M2sDHg0+w8M9C1ZYLU6/2Dcj7qPTMBRS/htVUEclf+RYf0urefjNviQGXuT5d0XE1r+gXXSV/bHgOg6NS/zMQAGGwXH27zTUk7tfxUTfeJutb7B3mPeo8RUPQSXltBoCnKf7BDfr/ha6XrSnq/pIszVDSDnOe+f3IrJH7+SvxP5u1iZ8xPS9py/qo06gqv9/80c/buExgBjRIrCjuKQBOVf6GU/ipps1EVy/DzxfpPb3b2qsODv+A2y2vbYwAUYrN3A5RQ0Y6OMvhqSSsWhW/oa6r9/QW3WV8xAhoqaBT7TgJW/jk6/JXpmPae3j3zBvW++T0k/alBSmVUG7Q9BkAhSk9sYFu5L9hJc7sGRh10PP/rG8gcx8Cix/DaKAJNfvIfppwO6oURvltmLWCnvv163tzXNHBgG8a4CzEAChGqeyfAMP5lPrOx+TpJdy8qlOmrx6Gc1/snYc5MQKbCRbGGE2ib8i86qc+p98Bdd/KyxFck3dISxV/w7UIMgEJ2ctoJUPCf5vXfvbDan8k0DHFT1vsn4Y4RUPQcXrMm0IZp/3Ed8spelLwdamqBbSQd0w/5Oq6MTf2uCzEABkUnx50As8iOYws46qB9UepOD5F0fssMZJYD6pYq7j+WQFuf/OcOit477XjufopLkbzm2gTP5bmcyv7fhRgAg/KS+06Asu1XXH+upD1rjK6Z4/7+gs2sr8wEDPYg3mdDoO1P/sM6rr3tIz2jrfgdk3/Yvdv4WVdiABSdtkk7AaaRt8t7FXVMjVShhxeXtG8H+gszAUUP4jULAl158h82CPpp50EVt4KjEfpUt2H3a/NnXYkBUIjLEzrSxtdK8uzO2kXFA17btN4/SR9nJiBAiMiyPIE6lb+P7bw1g0HU24u8zWjW9Kh+jPZJBoC2XfN3SRvOCrBhv7dCvLDBMRvKyuDNkg6RtF7F7ZTD/n4fxZx6myFGQMWCRHblCNSp/B22dHtJVpq5RLv7lKQlyyH8z9Vb9EP1lh1Qm3a9p4RPkHSwpDdJ2lnSJjWuFU/RVCE/8fZSH8P81P5ZDZ/rndD4Y0kXZWDcRsiYd698XtK9K6CZw3q/HYM9a/fwGs54wAioQIjIojyBHJR/Ueo1JP0kk8HylBJTnT6R7zst9ur3E9EPJXmt28skqZwmC7low6tnCWwoOd7DiT0D4bpM5LwKw8CGgI1Bh60umzz+5LC//9Q55ccIKNuSXN84Ajkp/wKetx59IBNlemnPa//RRcGGvK7ZH/i8m6CKgTSXPBx+2L4LH5L02AwDJw1pisZ9ZEe3B0t6WT9e/AUtkCEvDXjWw4GtJkm5rPfbABk244cRMEkrck0jCVj51xXe19P+9owflzwVd1UGg6KVuz2gB596l5H05hqmCSMNBPthHM/Z8uNEMvy79fuhoB1HoclRIW0I7C/pHmOI5bC/306NzxpTRn+1uSQfLx7Z9+bmze6AeRqFr2cjkOOT/7AaeUrRU3NzO0gd/3+rv1XQsfpz8VWYlYMHti/3jxledlgD8FltBNxHH9kLxvM+SQ401MRDoWzAv37IDFIO6/2/k3S/CVuXmYAJQXFZ/gSaovwLkp6as1PerMquit/7EJUq8qkzDzs6HSjpcb1jhj0NTWoGgbUkvaofSKppxoCXN57Xn2bPYb3/S5I8i1cmYQSUocW1WRJomvIfhPjM3tOEp+zqVJ5Nvbed+L7WW9ffsedfYRkgNZuAnWUdoe9/JTXJ/6TuZQ0vPb5khqbHCJgBHj+tl0CTlX9BzlN2nrprqiJOWW7HVfh+/8mrK0fzFnLSpddV+46EP6dfjB0XHOhr0woEAyOgAohkkZZAG5R/QcxTd57CS6lMm3QvH+/q7Xr2sCZ1i4BjEHxcko9jbpLMRpf1yIqPO8YI6Fa/anRtrfxz9vafFu4LaojYFT1QTZu/va7tOe6dFYO7FaZly++aTcB+Mzv1ZaJJSwTTyv+o33kWzLt1IvoEuwOa3Uc6Ufo2PfkPazBP6Xlqb9QA0PbP/bRvL+tVhsHhMwj0g9u8v+dAaOfPtveHwfo5JPXWwRLATEAwYLKfnkDblX9B5u69MLSe4hvs/G1+bw9wRx10gKKIJ5uCK6/tIuCls1f0fEL+0oG+4qiVqYxijIB29ZNW1Kat0/7jGsf78z0V3lbl/29JB0naeBwEvoPAPAQW7S8PnNzCvuKDfHyMsKOJpkwsB6Skzb3GEujKk/8wCJ7y89Rfm4yAv/UP3BkXVW0YCz6DwHwEtumFIz6qoUGG5vbxyyaILjofj1m+ZyZgFnr8thICXVb+BUBvi/pRC4yA0/thSgnWU7Qsr1EEfCbB0Q3uMyeVOLgriqHzxQiIpEveYwl0cdp/FBCvjdv7t4ke0GdK2oX1/VFNy+eBBLbsnwcx9+k61/895e8zBzz25ZJYDsilJTpUDpT/8MZ+TC9IyiUNebJxIBdv3cKxb3hb8mk6Ao/oH1mcq+J3uf7VN5TTUZn8ThgBk7PiyhkJMO0/HqDPYc/Z4emn/bj842vBtxBIT8AG6R8yNKC9PLZBehyl7shyQClcXDwNAZT/ZNTM6aOSPGWYy1ONn/gfNVnxuQoCtRGwD8peGR1P7J0wS9VGo9yNMQLK8eLqEgSY9i8Bq3/pU2o423uuweHgPazxl287flEvgZX76+11nUTog3xeWi+Cqe7OcsBU2PjROAIo/3F0xn+3rqRTa5gJuEiSYxXg1T++ffg2bwJWaKkPHjqnF+xrk7yxjC0dRsBYPHxZhgDT/mVoDb/WU4gHJzICru7vSFh6eFH4FAKNI+BgQn4avzxBH/Ix1m04zZLlgMaJeX4FRvlX2ybPl3Rd0CDmg0gO6P2tVG2RyQ0C2RBwzI1vBvWfm/qhi7OpbAUFwQioAGJXs2DaP6blN5L0+4oHsRN6JzA+KKa45AqB7AjsKOkfFfYhR7/cKrtaVlMglgOq4dipXFD+sc3tKUZPNc512Cv7v9f5fUwxe/lj24vc8yOwYv+sirJ9Zu71x3Zg1gwjID/5zbZEKP90TWMnPU89zh2U5vvfHso+hKQNa5XpaHOnNhKYdjbAUTvfI8n+BV1IGAFdaOUZ68ia/4wAp/j5wySdX8II+J6ke09xH34CgbYSsG/A4SX60MUdjYmBT0Bbe0AF9eLJvwKIU2Zx9962oyPnGcD+2d/Wx3T/lJD5WesJOJKglfu4GbQTe0sHa7aexOgKMhMwmk1nv0H519/0VuyOgHbLkAHsB5LWqb+IlAAC2RMY5RuQ40E+dcHECKiLfIb3Rfnn1SjbDjzF8NSfV9tQmuYQGJwNcD96WnOKnqSkGAFJMOd9E9b882yfNSR9PJMzx/MkRKkgMD8B+wZ8TJKjcZL+mwA+Af/NpFOfRAXVGLcG5+/sxb59p0hTWQhAAAL5EcAIyK9NkpXotUPWm+dT3rN+j/JP1rzcCAIQgMC8BOowAv5n3lJxQRICX05oBNzIk3+SNuUmEIAABMoQsBFwbUJd8K4yhePaOAI+qOa0RA3v4Bs7xFWFnCEAAQhAYAoCD+kvzc46wzvJ77/ToQBMUzRF+p/cK9FJWxaOqyStl76K3BECEIAABIYQWLlkMLJJlPyoa/4kyXFPSJkReMSIPeijGnKWz8+QxHG1mQkAxYEABDpHYDFJxyWaAfYSw/07R7hBFU7pFHhYg7hQVAhAAAJtJOBtkrM8zE3629sl+dwGUuYEvpBIICw4L8+cBcWDAAQg0FYCO0tyhMRJlfgs172zrRDbVq+UToEOe+ulBxIEIAABCKQjsFFCr3+c/tK1ayV3SukUeImktSopNZlAAAIQgMB8BJaXdHaiJ3+c/uZrjUy/T+kUeIqkJTPlQLEgAAEItIWADx37diLlj9Nfw6UmpVPgJxrOiuJDAAIQyJ3AexIpf5z+cpeECcuX0inwRROWicsgAAEIQKAcgcdLcjC2WZz5Jv0tTn/l2ibbq1M6BTpU8GbZkqBgEIAABJpJ4N6Srkyk/HH6a6aMjCx1SqfACyStMrIkfAEBCEAAAmUIOOja6YmUP05/ZVqmQdemdAp0ZCpHqCJBAAIQgMBsBA5NpPxx+putnbL/dUqnwH2yp0EBIQABCORNYO9Eyh+nv7zloLLSpXIKdISqp1dWajKCAAQg0C0C2yQ83wWnv47IVkqnQE8pbdwRrlQTAhCAQFUE1pR0caKnf5z+qmq1huST0inQTiUrNIQLxYQABCBQN4ElJJ2cSPnj9Fd3a9d0/5ROgUdJcgQrEgQgAAEIjCdwcCLlj9Pf+HZo/bcpnQLf1HqaVBACEIDAbAT2SKT8cfqbrZ1a8+tUToEWuB1aQ42KQAACEKiWwBaSbkpkAOD0V23bNTa3lE6BV0lar7GkKDgEIACBGAKrSfp7IuWP019MGzY215ROgWdIcmQrEgQgAAEISItLOiGR8sfpD4kbSiClU+BhQ0vAhxCAAAS6R+BjiZQ/Tn/dk61SNU7pFPjyUiXjYghAAALtI/CsRMofp7/2yU5IjVI5Bd4iybMOJAhAAAJdJLCJpOsSGQA4/XVRwqaoc0qnwEskrTVFGfkJBCAAgSYTuIekcxMpf5z+miwpNZQ9pVPgKZKWrKGO3BICEIBAHQQWlXRMIuWP018dLdyCe6Z0CvxkC3hRhbwIOPLkKpLu1xtsN5f00F541e36f0+UtEv/z++Lz32d//wb/5bolXm1aVtK855Eyh+nv7ZITE31SOkU+KKa6shtm0dgOUkPlLSjpFdJ+mjv/yMkeTbJTzxXSPJplP8345/zcF7O07HZv9W/l+/pez9A0rLNw0eJayRgubFD3qyyOd/vcfqrsZHbdOtUToE3StqsTeCoy8wEvD/aStZP635q8rTpeRUp9/kG0DLfX903EPbvneDmUK6ePSPWxczN37oM7iPpmgTK37KL01/rxKeeCtkp8FeJhPaC/tRrPTXlrnUT8BGoT++dHvlxSb9MeBZ6GWU/6bU390Jf/6Jfl50luW6k7hLwTNHvE42j35VkPwMSBCohkNIp8DhJi1VSajLJncCqkp4jyYGh/ppocJxUgUdc59mLQyU9G0M3d9GsvHzfSCTfOP1V3nRkaAIpnQL3AXkrCdiw27r3dOL29axSirXQCEVeRZ6u+6k9R8P3StqKJ7ZWyntRqb0TKX+c/grivIYQSOUUaOcrTwWTmk/AU5E2Hr0+fnGigbAKBZ06jyv7MyE76c7Y8M1veWpgAo+RdGsCucfpD3lLQiCVU6Ct2Y2T1IibRBDYRtIBKP2pvL0v6htMD49oGPJMRmAdSZclUP42VnH6S9as3b5RSqdAr2et0G3cjaq9o5vZC/63iQa91E/pddzPfeDNkuwvQWoOgbv1l3hSyAxOf82Ri1aUNKVT4FEEZMlaZhwsx4F07OR0E4p/qif+SZSE2X5d0mPpD1n3h6Jwn0/UF3D6K4jzmpRASqfANyWtGTebhIDDN78g4damSZRkV645p7effC9iDUwiprVc41mwFLKI018tzctNCwKpnALt4LJDcVNeayVw977y8Tp1ikGOe4zm7PVlB0hauVaJ4OaDBLZINBOG098gdd7XRiCVU+BVvT3U69VWS268Wj+ozfUo/uwMHx8p63DI+AnU20/dR/6eqH/g9FdvW3P3PgE/EaZa+7WxQUpLwE+Xfsr8V6KBjSf+0U/887GxIeDtllZEpPQEPpaoj/h4Xw6qSt++3HEIgdckEvobJN13yP35KIaADbv3SfI643yKh+/zYmRjzUYbO2hi+saoXNdOEOvfD1srjSoAn0MgJYHlE+5zfV3KinX4Xg7cY+e+S1H8jTd8HFzIzoKE1k7XoX2qabRB/Mp01eFOEBhN4AMJhN2d6ecMYqMbocJvHLXszERtGj1Ikv8CRXQWTrQV9pL5s/LW5Uj5sz8UswDztwNXBBJYS5LXHCMF3Xnb6Yyp/8CGlLSupOhBK1pOyH/+vniEJEenI8US8NjoI6IjZdL+BiQI1EYgVaALpv7jmtjT/d6zzDp/7GAdqQjK5m2D2pEFWRaI61fOOXop4BYejGIbkNxHE3CM/hQHXJzMKWmjG2HGbx7YP6++rALh+nYYC15We8CMMsTPxxP4XvAsgEMAkyCQnMDhwYJtJYPXf0yzLtE/gvbmBG2IsZC3sWAZeLckywSpegJeWoteJnVoaBIEkhHwU4OjUEUP7o4ySKqWgAMpnZKg7aJlg/yr7X+/Yjq52o42kNtbgvvbacQEGKDN23ACRwYLtAd3vP6rb0av9Uc/jdSlmP/Z373gKdFP9hxH3yjpxZKeKslnVnjJ6t69IDkr9v+WHcDr98XnvsbX+jf+rfPwORQOruO8fcqh71VXPSPv++9eFLuXDHDhbTUEFk9wOuZO1RSVXCAwnoDXjaOf/u2ktOH4YvBtCQKrSHLksEjlkSpvB7g5qRfp7sBenIKXS9qmr7xL4KjkUhsMNhL2lPTZ3mmI9lVpS6REG/icLVCJmNyVySMl3RHYB3+Hr9RdrHkTSODbgUJcKBEHLiFVQ2AzSecnaLOi7ap+vViS/U0sE5s3YJBbvx9E6SBJ3nsfOehXzXowP8ez37IaESSXPoHDgvvhLpCGQCSBTRI8/Xt9mu1J1bSio/nZkXJwYM/9vaehj+lvTWzDfvXVe4aAB2YP/tH7wqtuW4ec3b0aUSSX/vkMkTLgI6K93ECCQAiB6Kd/Kyum/mdvuqUkHdIgxe+nzU/0p9TbPIC5btv2fRSadJSyZzPuNrtYkkN/yahqQ20wv+dDGQIRBOwYFb32/66IgncszzUl2aN7cFDI8f0lfUXoNfwunmrmAEz2ITigIWcu/FLSGh3rSxHV9ezmHwL7p2cBLFskCFRK4IuBQmsFdaGkZSotcfcy8/bMC4LbaRZjwgbk8f0pcfadL5BPK4Xt+r4OKYJrTduGnrXYdEGxeTclgScH99FnTFkufgaBoQR8xGV00BhvuSJNT2D7jLen+VRBH017z+mr15lf2u/hvb2p4suClcS0RsA1kgg8M7s4/jiwfR0XgASBygj40IlpB4xJfndcZSXtZka7SXJc8ElYp7zmz33v/aW72Swz1dpr7nbijJwunlYWPEvxsplqx489kxK5pPo4EEOgCgLe7xx5UIxnFu5XRUE7msdbM1T8DuL0xI6u7VcthvaP8JSx1+CnVdgRv/P2RgdIIk1P4KuBbcpD1fTtwi8HCLwjUEg9MO07cC/eliPgE90iBvdp83SUPPYil2vDMlfbTyA3B0/6b5kWXPhaR530Vstp+9t8v3PcDBIEpibgaUiv384naNN+/w9Jy01duu7+0E+FDnc7Lfeqf+eAN0/hiT+JQLrt/5+kszNq/4/T9lO3feTy6jenLhU/hEB/DbJqZTGYH0FGyouZt/gcnMngf6WkVxF8pHwjVvAL76J4jaSrMpEFxwpg+1n5hnXI5agl1tv651+ULxW/gEDwdOO5HEFaWsb89JeD8rcTmA/HWal0DfhB1QSsQD4lyYP9oHFdx3sbAZZRUjkCHw5suw+WKwpXQ+BOAlsHCqUHp+cCujSByIFiUoVxpqSHlS45P4gm8OCes6C3f03ajlHX2TAklSPgcNE+AC2iTa7o+Vk5MigJAqUIfD1IIC3k3trEdGGp5tAHAttjkoHHYZq9l58APuXaLeXVDjXsQ5PqPvLZcQxI5Qg4FPYk/XCaa15Urihc3XUCawXvK7cTE2lyAnVv9fMBTRtMXlyurJmAz9P4RaBCmUQJsUWwnBA4zHLUwV2nlysKV3edwD6Bg4e3MbFOOLmEvTiwLeYbyL3W721ePPVP3l65XOnZAG8TrStAlOME8ORZThrsyzFfn5z2+4eXKwpXd5WABw6fwT6toM33u8d3FewU9X50ghDMo9rr/P5hNVMUm59kRGDLnr+NHW5HtXPk5zY+HLuANBkBh8qOigvgoEMkCMxLwNPzUYOCI8SRJiNw/956ruOuR7XFuHyP7sUZuMdkxeSqBhBYQdKRNcnSv3r33qQBjHIponfAOLebAAAgAElEQVRSjOub0353I7t2cmnivMvxvSABtODunHfVsymdj/St41Q/byWzox8OmtmIQmUF8bKblwTq2C7o2SSOEp6sKe8beEaAY3aQIDCSgKegogaI8yT52FPSeALeslNHuFcH9WG6dnzbtOHbHWoKHuSzDBxZlDQ/gR8EPYQ5VDcJAiMJvDtI8Pz0/4qRd+WLQQKHBLbBqOnDv7T0QCbPpNj5aae+Q9rekhwYxY6N3nbl6Vb/+b0/83e+xs5rO0raqve982hb8o6Oc2qQM7MmzU/AflKj+uqsn282/+25oosEPO0bNe3scKXLdhFqyTr7iNVZO3jZ33u72Koly5nT5ZbbjXux8Z/ZV+DH9OPke82zLItR1zsvx963b4TjMewqaaOGL5U4guDPKmQ0it3cz1+Sk/BkXBY/rc9lV8X/n8m4zhStRgI+vrUKARuWh7cVksYT2CLQA3hYm/izbzQwSpi3JG7bW6ryKZXfl/TPQLkdxa343E6a9pl5u6RHNvBMhKUlHZGYn40pTqkbPxb4W5+TUshZla+WWbc7CQILEYiK/OcO71CXpNEEVpH0t6AOP2rw+FyDnmA9Q/HSvrKqU+GPYll87rJ9q9eWjt3gNm1Csl9O6mUnzzRyjsR46bCSdhjfQraqfCUM+3j2nft2+cBY1J/vHM3yFbbSqLKDz5fXpxsQjGlFSZ4uPi7QMXU+TrN87yBKP+wbA7lvqfQOAR/pO0t9y/722+W7Sed+8f6gNvHMGQkCdxF4YZCgeVB46F134c0wAqnX/e3slnPy9LCdxaIORymrqKq43sFdDu/vssg5Cqa3CVZR30nz8EwJaTSBqF1ZNk6b7PczmhjfTEXg+KCOz7aT8c1xn57X+b+D2A8bhN83vji1fevpzj16znV/TMhiGJ8Un53VX9/N9YQ274RIwcH38KFF3vdOGk3g2KD2eOXoW/JNlwj44J+ovf8EnhgtSQ657L3RqQbbHI9p9Tqwt55enpBDKt7z3efSXsCXd2YacfGjCdvj15w1MXqQkBQVmdUHfJEgoDcEdXY7/+HoM1rAfGTqfEqiqu89pZ7T1PNy/ah0dYU6roprFflc249BcPfRopL8G8tKSsdAG4Gk4QT8oPCPgLHChzWtN/yWfNolAmcECJcHRg6fGC1Fjo1+cxD3uUrJW/1yCe3rLXyvleSog3PL2fX/7fH96oy2Enp3QKotgu4LPvuCNJzAh4L6y9uG345Pu0LA54ZHDbyP6QrEkvW0Mvb0WxT3wXxPymifv8MM/yFRvQcZNO39nyQ9uaRMRV1u3wwf4JWCoZfDcjFUo3hOm699hfzEXnU7uD+SOkzgrQFCZSF13P+cppxzamI/AVfdkYfl5zZYLYOK28fkO4nqPIxDUz/z03cOYYgdz+DPidoPx7TRHfYnQW3giJakjhI4LUio7NxE+m8C6yby+vcUu2d36kw2AF9Q08EzTVX6c8vtwELeHVG3MW0lcXXQWDFYZx8dvE6dQpvxvZ8TxJ9lgIwbPbJo9w6aVnKHxqoc3nIpnoRvl+QT3+pMjvwYtX1pUGF05b2DIXkmpc7kJZyo3UKD7eh4CaT/JuBtozaQBllV8d67MEgdJBDl/f+7DrKcpMr2iaiiw86Xx1smKUzgNU+QdEmius7Hok3fe6vkUwLbbZKs35WoXR81SWE6eM2Xg/izG6CDwuRT4CIGSA8SpIUJ2KM66nSvwTb8bo3Txd6u5GN1B8vD+2p52BHswzXuFPBShEP4Rrerdya5z5AWJvCkIPavW/g2/Nd2AmsHTv8/oO3wpqhfinC/f+nFc19hirJV8ROHFf1x0OAUrWyamP+JktaoouGmyMPnGpyfoK05Nvi/G8fbaCMOCPJuIVKHCEQpJIdyJS1MwAFeLgseMB3be6uFb5vsv017h/b8Pbh+TVTS0WW+UJLjSdSRtkngD+BIiXUZtHUwnfSenw3oa/YbqsugnLTeXFchgaMDhMgDnqPbkRYm4Pj70cqgrmWX7YMck6J5tSV/nyPhaeE60j4J5Po9dVQs83tuG8R9t8zrTfEqInC3wK1odT2RVISm8mxWTqAgHVSojvXS3SV55qEtyrSp9bhFUh2Dt30+ooMEeRsk4cQXHpbsh3FBQL9z3AlSBwjYSztisHPgGdLCBPYLYl20n4/M3WDhWyb5zwFbIiKTFfXitVwfdVvU4cjlWBM3BMv4B5JIdLNuEnFYk7cYLtksDJR2GgKfCuqwB05TmBb/xo5x0Uf9vrEGfu8Ikp8USt/Hz3pt2caq9z/bmc5/fu/P7Kvha1KUJeIejuyZOkVFEy34uA/lENEyNddx99s6SEYfO+6mfNcOAvYWLzpXla9Paweeymrx8SDORZudWcMxqk1Q/g5W85vezIj3TL+9d/7AM3pb1x5U8kwEB13xb3bp5+G8nGeKQDhF+077mtoI8FLA6cGyvm9lvbIdGfnMhIhYGx9rBx5qMYqAPcWnHVjG/c5rwd4eRLqTgNctI58kzXvzxLBfEyQ74+Rq0u/89O4jj62wVwzk4mOMHRHPCsmzBvaenrSMKa/bO5DBsKwfFmwcuS/Zn4a0gMD/BMieD6IiNZiA94n65CiHgn2FJFt0Dj/7e0leL44ahOwMRFpAIPpJef8Ft0ryzg5/ua35+6nTByvVuX3Jh/V47d2zMVF9a5p83VYvSiIZC27iJcBpyjrpb+qOcLmgpnm8c1TISdmVuY4w7nm078hS2It//f6TiA8K8dOI42efVaNXNtt1FjSX2ydieq7oxD6UJeXT0BNrlKuizsWr1+8/UuP+9wWt/N/vvGRg5yyXsShvna/eHeBtmqmSZ72uCqz7P3BSW6gpfVRz1Cyjxxjrk+P7M2tv7h/s5dkv6546dh0tVPm2/+NpTE/xekrT8D296cbwVGeO044ODEK6k4AjmEUO/CmPTH1g7ynbW7Ei6zNJ3t72tJckD3q5J3tS+xTEczPgdq2kBycE5tmQSdpz2mtemLAuTbhVisPFhrXVzb1TKi/uL4P54dMPoe6f1lfWWwRwmkB6BpW8n6AN0uuKOQy4wxp91GceZLz0QLrz2NbImP+OtJiKtU/0qzvC3zn9qexUda5Shl1m78//c7BSHNUvi88dMdA7UlIk19nryMW9q371UmbdRyOn4DjpPV4cyHrWtuv8LIKngjfuKfUd+9bRAZK+1+8gtqBmBZzL74+ZVFo7cJ2nyCLbJdVpcPbs/mlwXcZxuqbvw9KGqUbX4VU1G/Y+pyEVy6cHy41P1STdScDbI3OcER7Xt4vvrAO9I+0ESYf2o8i+tBdc6vF9vdmE2T55u5APvxk2Vd+ELUNFY8zy+jZ6410Evhk4+Hl2KNXTzycD6zGfrHkmzLMPbUt2VjysRmdKB6VKkSyjPs1vvnae9vuvpqhEg+7h7anTssz9d1nMIgxO1c9dj88dYIryPa5BnSWyqHbMuymwMzqCY4r01MA6jJNHTx134Rz4R9e0LOCdAanODYjyULf8uI+tkqIjNOQeXn8f16/a/F2YL4KDaXi9KTrMZdMbx9NPPu2OJHnvdVR7ptpm6SfvOrzYHYe8S3K0vCQ/yUbJy6h8L0+4bfLUwPo5JgXpTgKO3jeqvfn8zuOTvWW41DZST0MCb34Gf6AX3kXADnpRMuOteNHJU7c/CqzDMDY2sLt87ru38aZ+yLAfUoqlpJ0CZel30Z2hQfnb1yxqO+CwPtvUz6zTJ04YAJMps0MmJtruC6Nic7uz2chKMWBbGaXs3Pbw9zbDrifHD0i9ZdDe49HJ4WojdwQ4+iDpTgKpDfeU40RV98IACBjgHSGOJEUdsGThTzFYO6KdHW6q6mzz5XMaB7ws1G3sP/KLhPy91XithUoQ88/LAutE3PoFbfaGQM7z9eWmfI8BECAkfnrpevKTjqOURXQEn07nnSbR6aig8g9jclwvYp5j6pMWJmC/AG/XG8Ys4rNSA+LCRZ34P09PR/mUOEZFipmxiStb44UO9hQhI23Ks5S8++I2VT6iLj5bwPvFu57suR7B13mmCLH85MDyz+Xy7UQGTVNl0lEEv56wPXxmSHTaJ7A+Xnoj3WkI+WFhbn/j/wVMMAAqFhDv9SVJn6mYa9FpvcPiXsGAHbnt7KDyF/UoXq3YPFtCGk/AjCLjSRTt4Vf7l0Qb8esEnhToeBWkOwk4oM5g2/J+YR4YABULyLfoef9RaI6JHdHZjk3A16fpRZR9bp6e9vfTLWkyAp46T7Uc4CiF0emHQXLmvodReWfrfT6I8dy+3NT/MQAqFpAPRo8aDcg/0vv//wXX3+vw3hce3aF/xZr/VC1pnwBHf4xunyt6x4b7XpHJkVKj6rFFZMEblLeD1EUxbkO+GAAVC0gK7/Tc+1/U+qaPE44+AOddFcvDsEHCW/1SHUSTu6xMUz7Hene89GFsq/wsOpy3Z3+i1qgtxyRp5wRyUqXMpc4LA6BiAdmWXic/3UYI8ieC2d4jwba/GxMfRRuMrLbsN0kQLMiHLznkeWT6dFBfOSWy0A3K23ISMRa1JU8MgIoFxHvHu5wcjzzqJK5o7+Z3VywLwwaJLkf4q7pfRO6nL9ru7VUXek5+UbtlfOjaSnPu1cV/l6nxoKlChnJ+xQCocNB36Mmu78F9boU8BztO9P5mxxWI2ptd1OMbXRyBg+v8lSB5K9osOuaEnfUuCqrDrsHsm5J9FN9CRpr8igEwRee7SpKPmzxS0sd708Y+hMMxvjduSo8ILKePdo3oENHT/9Ehfx3+lUA/1QveCglCBvs89sh0QFCf+UJkoRuU94Y9x9EdJb26P1477oa3a3uJJ2KsalKeGABDhMDrtOdJOl7SQZLsSWqP3c0leZ2YNJrAX4fwrKJDPGL0LWf+xrM2kYcW+cjZLhzpO3NDTJlB9Mlv0Yd7RS0D/HlKnl362dKS1pe0nSQ/BPgYYStF7zT5V9BYVsV4WFUenTQAUPAxXdxx1KsSzMF8bKlHBmaJGoCLOhwag5tcBwh8LUj2ijbcZuBeVb+1bPscguJeVb6uUXVhO5afnUD94OcHQD8I7j9gILThtMFWGgAo+Hp6adS+5lJCOkXVI9eR/RTRdcfQKZqk9E+s6CKndL9UukTlfuBp6SoVf5HX08oVg6tLEphrIHjG2DPHnkG+NahNi7at4rXU2OqLq7jprHmg4EtKaaLLvU4/a9sO+31kbAV3YMvTsPtW8dkrE7HnNtJege14Q/DyX9SOho8gGLUSGGcgeKdGFWPMLHlkaQCg4GuV2alv/ssAgfb6+dpTl2j+H3pb3iwdaNxv7fi32PxF4IqKCHgq/dzA9nxRReUcls26QeX++bCb8VkWBBwIatD/wIecDc4geOwbN75U8V3tBoAPXbEX/VMk+Rhde/WSmkfAwnxzgMBGOzJ5uq6KjjQsj0iF0TwJSVNie+wPa4sqPvtBcBUiHGhvShA9MxhLZ7NfVtID+zvMrCMjHJVrNwBKFaCzopB/xaPO3v5iYNUdjjdqne5CDvoJbLnRWTtU9AVBRoBlJTKEc5QvygNG4+KbBhGwrqzCkB3Mo5T+rb0ADWqsrhX1+QHCaUHdPRBk5PT/KwLLTdbjCfgkv8FBrsr3kbM6ewaV+9njcfFtQwjUrn9rL0BDGqqLxfxw0OAV+fRyRFCZHVHQkQVJ9RDw3u6oQ3a+GVilqFk0TigNbLSEWdeuf2svQELY3Kocge8HKFPvjY461zxy77WNIVK9BByhs8on/yKvqwNjUthh9NqAch9Tb1Nw94oI1K5/ay9ARSDJpnoC/wgYuH5WfTHvytGnNhaDetWvPoGMVC+BTQPbN/JQKnvtVy2P9okgNZ9A7fq39gI0vw1bWQPHuK960HJ+BwbSemdQmU8PLDNZlyPw26A2fku5YpS6+nMBZfZ2Mi+LkJpNoHb9W3sBmt1+rS191JnbLw8k9sOAgdZGy2sDy0zW5Qi8MaiNI6fUoxwYNyqHjqszJFC7/q29ABk2CkW68yTEiBmAqKlW+xVEhI31kxax1/PpEQ4gFRFMxaeBRvmmRJ1L8YR8moWSTEmgdv1bewGmBMfPYglEPbU4jGZE8rHNEQaLp5xJeRHwSX4RbX2/oGo6zkBEeb3FkNRsArXr39oL0Oz2a23pPxowaHkHQFR6VkB5PWjb85yUF4EDgtraB19FpYidAPtFFZZ8kxGoXf/WXoBkqLlRGQIR++nPLFOAktd6X3TEU9ZOJcvB5fEEfBpeRFvvE1j03weU2WM3qdkEate/tReg2e3X2tJHbF06KpCWnbiqVgo+2evugWUm6+kIeBkp4tS170xXnIl+FSGfJ010Zy7KmUDt+rf2AuTcOh0u2zkBCtVHC0cln9JXtQHw66jCku/MBM4IaO+zZi7V6Aw+FVBeHyRDajaB2vVv7QVodvu1tvRXBAxY3sIVkRaR5OOmqzYADosoLHlWQuCrAe19vSTLUkR6c0B5HRqZ1GwCtevf2gvQ7PZrZekdvvT2gAFrtyBaawaU1cbE24PKS7azE3hXUJuvNnvRhuYQcaSxl0Giti4OrQQfVk6gdv1bewEqR0qGsxJYJWhwfcqsBRvx+62CyvuMEffj4/oJ7BrU5lsEVS3KcTFqW20QBrKdQ6B2/Vt7AeYA4d/6Cdw3aHB9RFDVbFhUPf3v/Ij/H9RgFWQbdS7Akyso27Asos6puM+wm/FZYwjUrn9rL0Bjmqo7Bd08SKFGhS71ee5VGwDEWs9b3pcJaHPL0AuCqu0jsKuWUednQ4jUXAK169/aC9DctmttyR8eNFg5jGtEiogPf11EQcmzUgIRjp+vr7SECzK7V1Cf2nLBLXjXQAK169/aC9DARmt7kaNilzskakR6X8DgemlEQcmzUgL2gq/6qfq9lZZwQWarB5TVdX/kglvwroEEate/tReggY3W9iI/Pmiwigqq8+GA8p7b9kZuQf3OC2j3fYO42FmvamPF+W0XVF6yTUOgdv1bewHScOYuJQjsGDRYRZ1f/smA8p5egheX1kPAoaWrVqpRwaqifBaeVA967loRgdr1b+0FqAgk2VRHYOeAgdUDteMLRKQDA8p7YkRBybNSAj8LaHfLUkSy7FdtrDg/by8kNZcA+re5bUfJIQABCEAAAhCAAAQgAAEIQAACEIAABCAAAQhAAAIQgAAEIAABCEAAAhCAAAQgAAEIQAACEIAABCAAAQhAAAIQgAAEIAABCEAAAhCAAAQgAAEIQAACEIAABCAAAQhAAAIQgAAEIAABCEAAAhCAAAQgAAEIQAACEIAABCAAAQhAAAIQgAAEIAABCEAAAhCAAAQgAAEIQAACEIAABCAAAQhAAAIQgAAEIAABCEAAAhCAAAQgAAEIQAACEIAABCAAAQhAAAIQgAAEIAABCEAAAhCAAAQgAAEIQAACEIAABCAAAQhAAAIQgAAEIAABCEAAAhCAAAQgAAEIQAACEIAABCAAAQhAAAIQgAAEIAABCEAAAhCAAAQgAAEIQAACEIAABCAAAQhAAAIQgAAE2k9gKUnrSdpc0taStpO0haRNJa0jafH2I6CGEIAABCAAgXYT2EDS8yUd0FP0J0u6WNL/zfN3q6QLJB0v6YOSniZptXZjonYQgAAEIACB5hPYStJHJZ0zj6KfzxAY/P52Sb+U9HZJNipIEIAABCAAAQhkQOAekvaWdFaFSn/QABh8f4ekn/QMjGezXJBBy1MECEAAAhDoJIFV+9P0/0yg+AeNgOL9eb1lhT16ZViyk/SpNAQgAAEIQCAxgSUk7SWpLsVfGADF67m92YddEjPgdhCAAAQgAIFOEdhWkhVuoXxzej1a0hqdag0qCwEIQAACEAgm4O17H5Nkh7yclP7cslwhaedgFmQPAQhAAAIQ6ASBe0o6NXPFP9cQOAgnwU7IJpWEAAQgAIEgAo+W5KfquQq2Cf//QNIKQVzIFgIQgAAEINBaAk+RdGNDlX9hoPxa0sqtbSEqBgEIQAACEKiYwAsl3dZw5V8YAWdiBFQsHWQHAQhAAAKtJODwuw7JWyjQNrzah2HZVrYWlYIABCAAAQhUQODxkm5umfIvDJjvSFq0AkZkAQEIQAACEGgVgQ17AX6uaanyL4yAd7aqxagMBCAAAQhAYEYCy0n6Q8uVv40AxzHYfkZW/BwCEIAABCDQGgKHdkD5F7MAPpb47q1pOSoCAQhAAAIQmJLAUzuk/Asj4FNTsuJnEIAABCAAgVYQWEnS5R00ALwU8NBWtCCVgAAEIAABCExB4DMdVP7FLMDxU/DiJxCAAAQgAIHGE9ikhfv9C+U+6etjG9+KVAACEIAABCBQksB3O/z0XxgIx5VkxuUQgAAEIACBRhN4sKQ7EhsAf5P0WUnPlvRISRtJWk3SAyQ9TtKLJX1d0tUJy2UGGze6JSk8BCAAAQhAoASBbyZUssdI2qJE2RaXtJOk0xOVkR0BJRqHSyEAAQhAoLkE1pB0SwLl+ntJ28yAaRFJz0pwHPFlkhaboZz8FAIQgAAEINAIAm9NoPy/V2GwnXUk+VjfYt0+4hVnwEaILoUcJPB6SYfzBwNkABkoIQOXBivTgwMO3XGo4lMCy+3ZCsZSGOQgAxOfV+HCRljD5AlXZAAZmEYGTpK05OBTSoXvV+85CtqRcJpy8Ru4NUUGJo5PgQGAUDdFqCln+2XVMfZXqVDhD8vqYZJuwwjACGqxDGAAtLhxUYTtV4RdbeNXDNPYAZ916eCirspSl+uNAYABgIWPDDRKBs4PnPqfa0OsK+km5KNR8tFlhV627hgAdG46NzLQKBl481wtHfz/EchHo+SjrBLs8vUYAHRuOjcy0CgZuH+wwp+b/W7IR6Pko8sKvWzdMQDo3HRuZKAxMuDp/9TJOwJ8pG/ZwZXrYZa7DGAA0LEZ2JCBxsiADxWqI12IjDRGRnJXujmVDwOAjk3HRgYaIwMO/FNHOgEZaYyM5KRgcy8LBgAdm46NDDRGBt5bh/aXxHHGTOfnrsynKR8GAIN/Ywb/aQSc37Rr4N6nJgPgaMYJxokWygAGQAsbFaXXLqVHey5oz7qWABx2mHaAQdtkAAOAjs3Ahgw0Rgb8JF5H8jG+bRv8qQ9tigFAx2ZgQwYaIwN1bAN0NECUJQzaKAMYAHRuBjdkoFEy8MDEUwB7Ih+Nko82KuqoOmEA0Lnp3MhAo2QgdSjgU5GPRslHlLJsY74YAHRuOjcy0CgZ8DLA3RLNAmyPbDRKNtqopCPrhAFAB6eDIwONk4FXJTAAlpD0J2SjcbIRqTDbljcGAB2cDo4MNE4GLpW0arAR8E7konFy0TYFHV0fDAA6OZ0cGWikDJwsackgI+AZHADUSJmIVphty39iA+D1kg7nDwbIADJQQgai988fImnRio2AR0u6MdgoPLsEQ8ZddE+UDHiWiwQBCEAghMAHgxWpn8i+L+keFZV+D0k3JyjzdhWVl2wgAAEIQAACWRLYLIEytRHwR0nbzkBgbUlfS1TWcyUtMkNZ+SkEIAABCECgEQRSetJ7NmCrEgp2DUn7SbohkfK3seLlVBIEIAABCECg9QRenVC5Fk5aF0k6SNIze0f5PkTSOpJWk/QgSU/uKfw3STqlBke/KyQt1/oWp4IQgAAEIAABSctL+mcNRkBhDOT0+jYkAgIQgAAEINAlAimcAXNS9MPK8g+e/rsk8tQVAhCAAARMwF76V3V8FuC5iAIEIAABCECgiwS87j7sybgLn51UwjGxi7JBnSEAAQhAoMUEFpd0egeNgOslbdjidqVqEIAABCAAgXkJbCHpto4ZAXvOS4ULIAABCEAAAh0g8O4OGQBHMvXfAYmmihCAAAQgMBEBx+7/YQeMgN9KWnYiIlwEAQhAAAIQ6AiBVST9ucVGgAMR3bsjbUk1IQABCEAAAqUIrCfpkhYaAddIenApElwMAQhAAAIQ6BgBK8rLW2QEXCnpYR1rQ6oLAQhAAAIQmIrARpL+3gIj4OL+WQNTQeBHEIAABCAAgS4S8Hq5neaaGhToTEnrdrHhqDMEIAABCEBgVgJLSTq0gUbAN/D2n7Xp+T0EIAABCHSdwCI9x8CXSfp3AwyBayXtwT7/ross9YcABCAAgSoJeIfAjzM2Ao7vzVa4jCQIQAACEIAABAIIbCfprIwMgb9JekFAPckSAhCAAAQgAIE5BJbs7RJ4iaSzazQE/irJMf3vNqds/AsBCEAAAhCAQDABhxB+iqTvSrolgTFwh6T/lfQsST7JkAQBCEAAAhCAQM0EVusFEHqFpGMlXVehMeCTCk/pGRhvk7R+zXXk9hCAAAQgAAEIjCHgaflHSnqdpK9I8p78qycwCjyL4Kn9H/We8N/fn13wGQUkCEAAAhCAAAQaTGA5SRtI2lzS1pLsUOgwvZtIuqekxRpcN4oOAQhAAAIQgAAEIAABCEAghsA9+k9Ou0h6vaQP9CKffUTSQZI+KWlfSW/qHe/6HElbSlo5phjkCgEIQAACEIBAJIG1+xHOvJ56jiR7Q5eN0X5uz4nqMEm7S1o9srDkDQEIQAACEIDA9ASspPeW9JspFf44A+F2SSf1vbZXmL6I/BICEIAABCAAgaoIbCHpiET7qm0kOMb7wZI2rKoC5AMBCEAAAhCAwOQEvFZ/3BRT++Oe9Mt8d2v/5Dd7aZMgAAEIQAACEAgmsFbfec/T8mUUdtS13ou9vyRv2SJBAAIQgAAEIBBAwPHUfYRplDKfJd/zJT02oM5kCQEIQAACEOgsAUc3OyZTxT9oNHhWwtsLOXCls6JKxSEAAQhAoCoCm/bDnQ4q2tzfeyfCOlUBIB8IQAACEIBA1wg8oxeg54YGPPkPM0gu6gcf6lqbUV8IQAACEIDATAReIMme9sOUa1M+8ylvj5+JAj+GAAQgAAEIdIjAqwOC+dRlNNzUP6WtQ81HVSEAAQhAAALlCTxPUi5b/KoyGrxV8InlUfALCEAAAhCAQDcIPKkF0/6jjAYvB8vX7PMAAA+pSURBVGzVjWaklhCAAAQgAIHJCTi07jUNX/MfpfyLz6/sRQ9cb3IkXAkBCEAAAhBoN4FlJf2h5cq/MAK8RXDpdjcntYMABCAAAQhMRuDAjij/wgg4ZDIsXAUBCEAAAhBoL4HtW+TxXyj4SV53aW+TUjMIQAACEIDAeALLSPpbx57+C+PgCkmrjsfDtxCAAAQgAIF2Etino8q/MAK+0M5mpVYQgAAEIACB0QTu1eAwv4UCn/X1DknbjEbENxCAAAQgAIH2Eeia498oY+FXkhZpX/NSIwhAAAIQgMB/E1hbkkPkjlKK0Z870uAlkn4r6cKay+K6OgASCQIQgAAEINB6AvslVv4+UfCYntJ/WT8Qz2JDCK8k6amSDpZ0ceLyeRaABAEIQAACEGg1gSUlXZZIwToG/0G9vzVLEl2iZwTsIclH+kbPRhT5b12yjFwOAQhAAAIQaBSBXRMp1dMkrT8jGUfs2z9Reb8+Y1n5OQQgAAEIjCBweKKBvHii4zXd0/Nc1t+Q5BgDVaXnsmMh2UzI3Lbk//r6Eexhn7sMHD/pII8B0A1hPizIq/5pHY1YmPsAQPm60a9pZ9p5mAxgADCzcdfT6a+DD9p5F6zvYj2sM/IZgzQygAyklAEMAJTSf5SSPf3XmXQ6aMrrvF//p/DGCEAGkAFkIAsZwABAEP8jiB+eUqmX/dkWLAVk0fFTPmVwL55qkYE8ZQADAANA10pauawmn+H6o2GOEYAMIAPIQO0ygAGAEOprMyjzaX76DJjX3vF5IsvziYx2oV1SygAGAMpI3qaXMi2XQfjglJ2MezGoIwPIQI4ygAGAAaBVUmr//r1+AndmAZABZAAZqFUGMAA6LoDX1KD8fcsDOs49x6cBysRTKjLQLRnAAOi4IjqnJgPgjR3nzkDbrYGW9qa9c5QBDICOK6KTajIA9uw49xwHA8qEkkIGuiUDGAAdV0S/qckAeG3HuTPQdmugpb1p7xxlAAOg44ro4poMgH06zj3HwYAyoaSQgW7JAAZAxxXRrZIWq8EIcOwBBhsYIAPIADJQnwxgAKCI9PDEBoDPBLgI7hhAyAAygAzUKgMYAAig3p/YANgM5rV2ep646nvigj3sc5IBDACUkX6f2AB4D8wxAJABZAAZqF0GMAAQwv8I4U6JjIDlJV0G89o7fk5PIZSFp2JkoB4ZwABAGf1HGXkWYNEERsD74I3yRwaQAWQgCxnAAEAQ7xLEvYMNgAdKug7ed/Hmqaeepx64wx0ZuFMGJjYA7Cm+C39ZMNg/SIneJunxQUbASpLOCyp30ZmdPzIKA2QAGUAGJpOBbYPGe7INJLC6JCvrQvFV+Xq1pK0qLvuKkk4MKu9g3d9UcbnJDgIQgAAEIJAdgRMCFepNkl5cUY3vK+nswLIWBsDNklarqMxkAwEIQAACEMiWwIsSKNWvS7rPlASWlfQ2SdcmKKeNgC9OWU5+BgEIQAACEGgUgaUkXZ5Aud4i6SBJXiuaJGTwhpI8FX9JgrIVT/9eDvFMAwkCEIAABCDQCQKpt9RdJelwSe+StHvf4c4zEd498FlJ5yRU+oXy9+tXOtHaVBICEIAABCDQJ2DnOjvtDSrDrr2/QdK9kQgIQAACEIBA1wi8s+MGgGcjSBCAAAQgAIHOEVhO0oUdNQL+JGnpzrU4FYYABCAAAQj0CTyxgwbArZK2RAIgAAEIQAACXSfw5Y4ZAe/teoNTfwhAAAIQgIAJeCkgRcCdHJwMj5twSyKSAQEIQAACEOgEgQdJur7lMwF/luTdDyQIQAACEIAABAYI7CjJ6+M5PKlXXYbLCPgz0NK8hQAEIAABCMwh4CA9VSvfuvP7p6SHzKkn/0IAAhCAAAQgMIfAnpJub4kh4AiEePzPaWD+hQAEIAABCIwi8MLAY4NTzQg4xsH9RlWQzyEAAQhAAAIQGE7gUZK8dp5KYVd5n1N6BxGtObxafAoBCEAAAhCAwHwE1pd0RsOMgAMlLTlfxfgeAhCAAAQgAIHxBJaQ9GZJPt63yqf0qvO6tGesPHV8VfgWAhCAAAQgAIGyBB4m6dQMjQA7LB4saaWyFeJ6CEAAAhCAAAQmI7CIpOdJuiATQ+AEtvhN1nBcBQEIQAACEKiCwKKSdpJ0Wk2GwMmStquiIuQBAQhAAAIQgMB0BDbvhdjdX9KVwcaA9/QfJMlhi0kQgAAEIAABCGRCYClJO0j6hKSzKggm5LX930naT5K3JC6eST0pBgQgAAEIQAACYwgsL2lbSa+R9Mnek/u3Jf1S0p8knd/7/GpJF0s6r7ec8BtJx0j6tKS9JT1G0gpj8uYrCEAAAhCAAAQgAAEIQAACEIAABCAAAQhAAAIQgAAEIAABCEAAAhCAAAQgAAEIQKAaAo4S+lBJPkb8A5K+2nPYdWyOX0v6Y9+/5/Sec/AvetcdK8lhut/Uj9i5VjVFIBcIQAACEIAABKIJOBDYQ3onhb5D0s8l3TTj1t+LJH2l5xj8rN5W4hWjC0/+EIAABCAAAQiUI7B2/zyQv8yo8Med/3GbpON7W4h36c0meGaBBAEIQAACEIBATQT8tP+tCmJ6jFP8w777u6TXSlq2pnpzWwhAAAIQgEAnCWwk6WhJdwQ+8Q9T/HM/u1zSXswIdFIGqTQEIAABCCQk4OBbjuSZ29HfdijcPiEHbgUBCEAAAhDoDIGtJZ1b8xP/3BmAuf8fJskRRkkQgAAEIAABCMxIYDFJ+9awzj9XuU/6/197yxObzVhnfg4BCEAAAhDoNIGVJR2X+VP/MMPgRkkv7nTLUXkIQAACEIDAlATWlxS5rW+Y4q76s/dNWXd+BgEIQAACEOgkgY0leatd1Qq5jvwcXXDRTrYilYYABCAAAQiUIGDlf0VLlH9hcBwkyVEKSRCAAAQgAAEIDCGwjqQLW6b8CyPgQ0Pqy0cQgAAEIACBzhPwHv+zW6r8CyPgFZ1vZQBAAAIQgAAEBgh4evyIlit/GwEOYPSogXrzFgIQgAAEINBpAm/tgPIvZgEulbR6p1ubykMAAhCAAAT6x/fe3CEDwIaAzzEgQQACEIAABDpLYKne8bpndUz5FzMBu3W21ak4BCAAAQh0nsA7Oqr8bQRcLWmVzksAACAAAQhAoHME1pZ0XYcNABsBn+5cq1NhCEAAAhDoPIEvdVz52wC4TZIDH5EgAAEIQAACnSCwgaRbazAArpH0I0mHStqvd8LgOyV9StKRkk6XdEcNZfpyJ1qcSkIAAhCAAAQkfT6hor1W0sclPVrS4vPQX7N3BsFLJJ2YsHw2hO4zT7n4GgIQgAAEINB4AnZ8uymBgvU9rPhXnZLYE/qzAoXXfuTrAVOWkZ9BAAIQgAAEGkPg9QmU/z8kbVEBkcUk7ZugvF6aWKaC8pLFFAQ2kbQdfzBABpABZCBcBqLj/Z8myVP5VSbv2bfDXuQswLuRvUplb7NJBeDw4IaNFBryju2U8IUvMtAcGfBJgqtNOvCXvO516IlQA6jqfnb8pO2LAdCcDl61kJAfbY8MtEMGHFNg00kH/SmvY+tic2QFAwCLtVEWK4qoOYMLbZVfW71rSqVe5mfLSbqMcbUR4yoGAILaCEFFmeSnTGiTZrXJFT2P/xXKaPIZrk3hxIj8zS5/GAAYABgAyAAy0AEZ8HHCqZIPMLLBgZLOmwEGAEJKJ0UGkIEOyMB9U2n//n0cSRADIG8GGAAIKZ0UGUAGWi4Df0ms/H27XVvOtA3GDQYAQsrgjwwgAy2XgUNqMABWbjlTDAAamIETGUAGkIHsZWCfGgwA3/JKZCNr2WAGAAHNWkDbYGVTh7zXQbvQPnvWZAD8ifE16/EVAwABzVpAuzA4U0cMhGgZeG5NBsAZjK9Zj68YAAho1gIaPTCSP8q3CzKwV00GwLmMr1mPrxgACGjWAtqFwZk6YoREy8AHazAAFpF0LeNr1uMrBgACmrWARg+M5I/y7YIMfLUGA+BejK3Zj60YAAhp9kLahQGaOmKIRMrA5ZIWTWwE7MHYmv3YigGAkGYvpJEDI3mjeLsiA1smNgC+y9ia/diKAYCQZi+kXRmgqSfGSKQMfDKhAbCqpOsZW7MfWzEAENLshTRyUCRvlG5XZOBGSeskMgI+wbjaiHEVAwBBbYSgdmWQpp4YJJEy8PkEBsC6km5iXG3EuIoBgKA2QlAjB0XyRul2RQbu6B/SE2UHLCHpZ4ypjRlTMQAQ1sYIa1cGaeqJQRIpAzdI2jzIAjiY8bRR4+nEBsCyklbkDwbIADKADITLwK+CFeklkrau0Ajwk/+BwWW2UfR0ZK9S2VuuQhkgKwhAAAIQqIDAGxMoU6/Tv7SCsq4u6cQE5b1A0mIVlJcsIAABCEAAAtkSWE+S1+sjlwKKvE+RtO0UJJbvle/dCcP9vmOKMvITCEAAAhCAQOMIHJfIACgMgZN7e/c983D/MaSWkbSTpIMkXZGwfD5TYOUx5eIrCEAAAhCAQGsIWNEWyjn1q0MH/1zSsZKOkGRnsbMl3VxTmfZrTatSEQhAAAIQgMA8BBy7/5yaFG5qg2Pc/f7VczBcbR5WfA0BCEAAAhBoFYFnYQDoDa1qUSoDAQhAAAIQmICAZwHO6LAR4BmQJSfgxCUQgAAEIACB1hHYStLtHTQCXOdHta41qRAEIAABCECgBIEUQXbGrcPX8d1HSvDhUghAAAIQgEArCawg6a8dmgU4XdJSrWxJKgUBCEAAAhAoSeDBkhzHv46n8ZT3vFLS+iXZcDkEIAABCECg1QT2aLkB4DgDj2l1C1I5CEAAAhCAwJQEPthSI8BOf8+ckgk/gwAEIAABCLSewCKSvtAyI8DnHnh2gwQBCEAAAhCAwBgCNgL2b4kRcJukl4ypK19BAAIQgAAEIDBAwEaAY+SndNCr+l7X9wIdPXWgTryFAAQgAAEIQGBCAs/pneJnRVq1co7O72+9w4YeOmEduQwCEIAABCAAgSEErEj/3CAj4HuSVhlSDz6CAAQgAAEIQKAkgaV7wXP2zTxssE/2s7Ofly9IEIAABCAAAQhUSGBrSadmNhtgL/+vSrpnhfUkKwhAAAIQgAAE5hDwE/Zze/vqz87AEDhBko0SEgQgAAEIQAACiQj4OOGnSTopsSHgrX3fkfTwRPXkNhCAAAQgAAEIjCBwX0nvl/SXQGPgj5LeLmntEWXgYwhAAAIQgAAEaiSwoaRXS/rWjKcMXiTp2/28NqixPtwaAhCAAAQgAIEpCKwkaZveVkLHFHiLpI9KOkjSlyUdLulgSQf08n2PpN36B/asNcV9+AkEIAABCEAAAhCAAAQgAAEIQAACEIAABCAAAQhAAAIQgAAEIAABCEAAAhCAAAQgAAEIQAACEIBABIH/D7kXHYHmgGPlAAAAAElFTkSuQmCC;" parent="wZx2sVjV_vOqR1eELIkU-7" vertex="1">
          <mxGeometry x="36.5" width="47" height="47" as="geometry" />
        </mxCell>
        <mxCell id="wZx2sVjV_vOqR1eELIkU-8" value="" style="group" vertex="1" connectable="0" parent="1">
          <mxGeometry x="849" y="685" width="120" height="100.13" as="geometry" />
        </mxCell>
        <mxCell id="wZx2sVjV_vOqR1eELIkU-4" value="&lt;span&gt;DRAFT&lt;/span&gt;" style="text;strokeColor=none;align=center;fillColor=none;html=1;verticalAlign=middle;whiteSpace=wrap;rounded=0;fontSize=16;" vertex="1" parent="wZx2sVjV_vOqR1eELIkU-8">
          <mxGeometry y="46.379999999999995" width="120" height="53.75" as="geometry" />
        </mxCell>
        <mxCell id="R1Exj3h-KAIHVMebI0o6-20" value="" style="shape=image;verticalLabelPosition=bottom;labelBackgroundColor=default;verticalAlign=top;aspect=fixed;imageAspect=0;image=data:image/png,iVBORw0KGgoAAAANSUhEUgAAAgAAAAIACAYAAAD0eNT6AAAAAXNSR0IArs4c6QAAIABJREFUeAHtnQn4dVP5/m9jpkhkyC9SmUuaJ6FIUTQYKqlQSCkpJakUikQZQyShDGkioZJKZShDyhSVWWZChvD/75uz33Pe855h72cNe62973Vd3+uc7z57eNZnPXute6+91rMAJREQAREQAREQAREQAREQAREQAREQAREQAREQAREQAREQAREQAREQAREQAREQAREQAREQAREQAREQAREQAREQAREQAREQAREQAREQAREQAREQAREQAREQAREQAREQARFoH4G5AGwF4EwANwH4H4D/pz8xkA/IBxx84HEAtwD4PYCdACzQvqpTORKBvAmsAOByh5tcQkFiST4gH6jiA/8GsFbe1aWsF4H2EHgxgDvV+OspTz4gH4jkAw8DWKM9VahyIgJ5EmDjf1ekm77K04H20VOkfKAbPsDXjPPnWW3KahHIn4Aa/25UtGpQVc6p+sAO+VejyoEI5EdAjb8ahVQbBdnVHd88K7+qUxaLQN4EVgNwh7r99b5XPiAfaNgHrs+7KpX1IpAXAT35d+fpSk/SKuvUfeDevKpPWSsC+RLQk78ahNQbBNnXLR+VAMi3PZHlGRFQ49+tilUNqco7Bx+QAMioEZGpeRJQ46/GIIfGQDZ2z08lAPJsU2R1JgTU+HevUlVDqjLPxQckADJpSGRmfgTU+KshyKUhkJ3d9FUJgPzaFVmcAQE1/t2sUNWQqtxz8gEJgAwaE5mYF4EYU/02ArCw/sRAPiAfALCKMZ6ABEBebYusTZxArCf/NybOQeaJgAjEI/B/EgDxYOtKIjCKQKzGn12MEgCjSkDbRKCbBCQAulnuynUiBGI2/hIAiRS6zBCBRAhIACRSEDKjewRiN/4SAN3zMeVYBCYRkACYREe/iUAgAk00/hIAgQpTpxWBTAlIAGRacDI7XwJNNf4SAPn6jCwXgRAEJABCUNU5RWAMgRhT/djQj/vTIMAxBaPNItBBAhIA1Qv9WQA2APApAIcDOAnAmQDO6n3yf27fCcBbAJCtkgjMINB0468egBlFoS8iIAK9Rmrcw8Kk7V2IAzAHgPUAfAvA1RMeqiZx+juAwwCsC4DnU+oogRQafwmAjjqfsi0CYwioB2BWMEsC2BvAzcZGf5wguBHAVwAsPusltaXNBHw3/qcDuMjonHoF0GZPU95EoB4BCYA+Lzb8hwB40Fi3jmv4h7f/F8BBEgJ98G3+5nvA3xmFOp2n6FL6o9FJJQDa7G3KmwjUIyABAMxePO1vA4CvNYYb65D/3wNgB70aqOewOe0d4smfjT+TBEAPhD5EQATMBLouAJYpoqOeG7nhHxYVvwfAAYZKLSIQsvEnJgmAFjmLsiICDRHosgDgiP67Gm78SzFwR2/AYUNuoMv6JBCq23/QRgmAQRr6LgIiYCHQVQGwBYD/JdL4lyLg0d6rCEs56phECIR+8i+zKQFQktCnCIiAlUAXBcAuiTX8pQDg5+O9OAPW8tRxDRKI8eRfZk8CoCShTxEQASuBrgmADyXc+A8KgY9aC1THNUMg1pN/mTsJgJKEPkVABKwEuiQA3gHgsUwEAF8HcIyCUgYEYj75lzgkAEoS+hQBEbAS6IoAeF4D0/wGn+gt3+8G8Bxrweq4OARiP/mXuZIAKEnoUwREwEqgCwLgKQ6B0ywNt89jLgAwl7VwdVxYAk08+Zc5kgAoSehTBETASqALAuBzmXT7jxMOn7YWro4LR6CpJ/8yRxIAJYl8PxmB7NnFamKvBfAmAJv0/tYHsAaA5ypKWL6Fm4nlbRcA7EJn6N1xjatl+60AjirGE3wewJYA3tb75P9HA7jN8/XuL663dCb+1Akzm278CVkCID9XWwTAxr144xdXrJgeAvDX3opk71b88PwKPXGL2y4AjvfUGHPw4HEAVseToYMnFStX/aOo57U5rc8iMoaPOWbSBfVbPAIpNP7MrQRAvDJ3udLcvaf6UwE84qEyYEX0CwDvBTCfi2E6VgRavhzw8gA4mn64Ma37/9kAXmT0lpcCOMeDDQxapAGBxkLwdVgqjT/zIwHgq1TDnIeN88cB3ODh5h9XYbGrkUFNFgyTBZ21AwTa3ANwpId7b18Pr+HmBHCAB1sO7YA/JpvFlBp/QpIASNNVZgOwOYBbPNzw4xr+4e13FtfbtkLXZJrEZFWTBNoqABYAcJ/DPciue95TPtP2DvbwnudqhfP6NEjnqkYgtcafVksAVCu7mHstC4DdhcMNdKz/zwewcswM61rZE2irAHif4334lUAlyx4Fl/qA44CUIhJIsfFn9iUAIjpBhUsxyhgDd7jc3D6O5Yjh91ewV7uIAAm0VQBwzI31fvp5wN40DhD8pYNtP5TbxiOQauNPAhIA8fxg2pV2d7ihrZXUtOMOCliJTeOh3/Mh0EYBwHfu7C6fdo+M+p0DdRk1MGRayWElQr7u4/RhpcAEUm78mXUJgMAOUOH0VPOHGSuaUZWP720nAOAsBCURGEegjQLglQ735MHjQHnefriDjS/xbItON0Qg9caf5koADBVa5H852M/HKGPfjf7w+dhlSKGiJAKjCLRRAHzYoXEN/fRflgF7AYbv1ar/b12eRJ/+CTQZ3rdObiQA6tDyv+9eDjdw1Rvd13582lASgVEE2igADjTem5eOAhRw25VGOzmQUCkAgRye/MtsSwCUJOJ/cpqfr8Y51nm0vnh8P8nhim0UAGcY788vRy6wrxrt5ABHJc8EcnnyL7MtAVCSiPu5nMMAo1iN/ajrcHAT340qicAggTYKgAuNDet7BsFE+P5Oo53nRrCtU5fI6cm/LBgJgJJEvE++S/+z8aYd1SjH3nYVAC6NqiQCJYE2CgD6ueXeWruEEunzVUY7L4tkXycuk2Pjz4KRAIjvnq6RvMZVSpyydHkviNCvirUDeIPfZawcxl2j3P6F+Nh0xYQJtFEA3GS8d1aJXE7PN9p5XWQ7W3u5XBt/FogEQFy3XNRzoB+uBrgrAFYC4xJfN3zKoazLRn/wk0ujLjPugtreOQJtFADWMNxcPChmss4EuDGmkW29Vm7v/IfLQQJgmEjY/zlAaLAhtX7nyN9NAHAaYZ3E7knru81hW79Z58Lat9UEJAD697UEQKtdvZ+5nJ/8y1xIAJQkwn8u5OHpn4uL7Fn8MUqZNTEC2E4eljh9CMAzrUbouFYRkACQAGiVQ0/LTBsaf+ZRAmBaSfv7nVPohp+i6/zPbnefi3is72Emwpf84dGZMiYgAdC/t9UDkLEjVzE9927/wTxKAAzSCPvdZeQ/n/w53cd3ei2Ahx2Eyb8MryF850Hna56ABIAEQPNeGMGCtjz5l6gkAEoSYT+tA3XKHoKQo+5dQp7SvteERaezZ0BAAkACIAM3dTOxbY0/aUgAuPlE1aN3dHjKPi/CU/ZpDvbtURWC9mstAQkACYDWOjcz1qZu/8GCkgAYpBHu+ykODezrwpk148wuS4v+fsZZ9KWrBCQAJABa6/ttfPIvC0sCoCQR9tMakOfMsGbNdPbvGUUKwwPPM9OZ9E/XCEgASAC00ufb3PizwCQAwrvtksaGle/Xtwxv3owrbOBg5wtmnEVfukhAAqAvALYAsE7Ev62M960CAU25U9va7T+YbQmAQRphvq9lvEEfBfCMMCaNPCvj+//HaOtGI8+ojV0hIAHQFwDlwN3UPyUAJtydbX/yL7MuAVCSCPfJJwJLZXBJOJPGntm6BCoDCyl1l4AEgO0et9QLvo6RABhzv3al8Wf2JQDGOIHHzdYAQByZHzsdYBQru8c2VNdLioAEgARAUg5pNaYL3f6DbCQABmmE+f5ZY6N6RBhzJp6V8QYsTxjfmHhW/dh2AhIAtvvGcq/5OkY9AEN3ZZee/MusSwCUJMJ97mZsVA8KZ9LYM+9itPWQsWfUD10gIAEgAZC1n3ex8WeBSQCEd1suxWtR7SeHN22WK+xttHWfWc6kDV0iIAFgu8ct9YKvY9QD0LtDu9r4M/sSAOGr6e2Mjeofwps2yxVONNr6+VnOpA1dIiABIAGQpb93ufFngUkAhHdb6/z6uwHMFd68ma7AxX0sTxgx4xXMZLD+SYKABIDtvrHca76O6XwPQNcG/I2qKSQARlHxu41Bcqw3LQOKxEq8H6x2MtaBUncJSADY7x3rPed6XKcFQNef/MuqSgKgJBHukwF2rEvuHhzOrFnObB2syIooZsCiWQzXhsYJSABIADTuhFUN0JN/n5QEQJ9FyG8XGJ+u7wOwREjDeudeAMC/jTZeE8E+XSJtAhIAEgBpe2jPOt9P/nz6OadYE/2Xmf7dY6z035hFaadj5NeNnOlfMabYfcnBvu+mg1mWNERAAkACoCHXq37ZEI2/63uYXI+XAKjud9zz9Q4NLFfbe0W9y9Xae2UA9zvYt2mtq2nnNhKQAJAASNqvVwRwp0Mll2tDHcpuCYB67s7R/C7+dzMAVrK+09MBXO1wXzwIYCHfRul82RGQAOgLAE7fjdkjbH2N25lBgKx8r3Co5EI1ojmfVwKgfh1tjbNf+slFABavf9mxRzwNwG8d74vvjT27fugSAQmAvgBYPnLBr2S8hzsjAD5oBFRWvPrsO3fJQgKg/l3O6YCPO/ridQA4iNU1sZLyIYo1/c+1JNpxvARAv46UAEjMp9kdUzZc+vTDQgLA5uQ/8+CLfF+/K4D5DCbMDeDjABhkyPVeONdwfR3STgISAP37SQIgMR+3Tm9yrSDbfLwEgM3JOZjPtReg9KubioZ8h4pjA/jqYFsA//TQ8JfXX9+GQEe1kIAEgARAsm7NUdRlpaVPPyzWTLa00zeM7819+iEFxZ8A7AuA6w5s0vvbBgAX9+GgpMc8X/PM9DHLwogEJAD697R6ACI6XpVL/c9z5eez8s71XM+tAl77jCSwFIB7M/bJhwBwVo2SCJQEJAAkAEpfSO5TAqDvnD4Ex7XJlXB+Br0/YwHwifxwy+LABCQA+nWsegACO1vd00sA9J3ThwBQA1DXA0fvf3yGIuAXAGYfnR1t7TABCYB+HSsBkNiNIAHQd05XAcCR31zcRsmdAEfxX5iRCLgKwMLu2dYZWkhAAqBfx0oAJObgEgB953QRAOd5DkSTmJs0Yg7HA/gcme9SvpOOvQXAco0Q0kVzICAB0K9jJQAS81gJgL5zTqrkx/3G4DM76ck/mFc/GwAZj+Pf9PZbAXC9ACURGEdAAqB//0oAjPOShrZbBcDbAazT4b/XAYjtzA25SOOXZQV6aYIigOsE6Mm/cfdI3gAJAAmAZJ3UKgC4UIqSCMQiwEV1Tk1IBPy6WIr4GbEyr+tkTUACQAIgWQeWAEi2aGTYEIHZAHCWBefaN9X1z/vliwDmGLJN/4rAOAISAP37NXavqRYDGueVve0SAFMA6efkCDwPAKfcxRYBXHHwZcnRkEGpE5AA6N+rEgCJeasEQGIFInMqE+AYFDbKoYXAvwAwdLCe+isXjXYcICAB0L9HJQAGHCOFrxIAKZSCbLASYOCdNwM43XNMf64hcDaAjQDMaTVOx4lAb0Eqi0hlSOxUE6e+WvIkAZBYiUoAJFYgMsdMYFkA3wHwqLFyYoXGhv8HAPjuUEkEfBBQD0BfLEgA+PAoj+eQAPAIU6eKSoCVyUcBHA3gLwB8rmxJEXEZgOOKxYl2BPCCqDnTxdpEQAJAAiBZf5YASLZoZNgQAYZZfhOAAwFc4/CUb+m65DEMSHRYMe5gQwAMVawkAlUISABIAFTxk0b2kQBoBLsuWoMAu+P3BnB7A43+OLHwHwDH9AJh1ciKdu0gAQkACYBk3V4CINmi6bRhfNrfGsAFCTX648QAoxTyVcT8nS4xZX4cAQkACYBxvtH4dgmAxotABgwQmLs35e6GDBr+YUHAHgoGCWLUQiURKAlIAEgAlL6Q3KcEQHJF0kmD5uo9Rd+YYcM/Sgh8BsC8nSxJZXqYgASABMCwTyTzvwRAMkXRWUPWAPC3FjT8w0KAvRiMI6DUbQISABIAyd4BEgDJFk3rDeOCUof35t4PN55t+p+LGC3T+tJUBscRkACQABjnG41vlwBovAg6acAmAO5q4VP/OOFyH4CtOlnSyrQEgARAsneBBECyRdNKw+YBcECHGv5hQXAygKe1smSVqXEEJAAkAMb5RuPbJQAaL4LOGLACgEs63PiXYoCLC72yM6WujEoASAAkexdIACRbNK0ybG0A96jxn7GAykMA3tWqElZmxhGQAJAAGOcbjW+XAGi8CFpvwPs8x+kvn6Rz/+TCQzu3vvSVQQkACYBk7wIJgGSLphWGfb6BUf6M2f8LAAcX4YM/Ukwx3LgXspfd7lzU5/nF8sGv6G3jNL0PFe/l9y+65c8A8M8G7P06AC5rrNROAhIAEgDJerYEQLJFk71hX4vU5c9G+wgAmxXTCpf0QO0ZxUqAnKXwzaKb/spIefg2gNk82K5TpEdAAkACID2v7FkkAZBs0WRt2G6BG05OIWQMgdUjNJwrFyXBEL/XBs7TQVmXuIwfR0ACQAJgnG80vl0CoPEiaJ0BOwZsKC/sdekzdHDsNAeAtwA4J2D+vhw7U7pecAISABIAwZ3MegEJACs5HTeKwBaB3qGz0V1v1AUb2rZmb5xBiIGIn2woT7psGAISABIAYTzLw1klADxA1CmeIMBBdpze5rNRvLkYmMdZBKmm1wO4wnOeHyuWQV4/1QzLrtoEJAD6dcLytem5HbCS8d7komSdSBIAnSjm4Jnk4LubjDfbKMFAv9y3+FsguOXuF2B0Q44ReNBj/u8E8Fx303SGBAhIAEgAJOCGo02QABjNRVurE+D7+N95bPy4ih4H9+WWVilmD1zmkcPlABbMDYLsnYWABIAEwCxOkcoGCYBUSiJfO3xO9+PKeYvkiwJPBfB9jyKA0wOV8iYgASABkKwHSwAkWzRZGMb3/o96avD2jDClLxZUDuRjpL9RrzfqbOM53hTLaF0nCAEJgP59oDEAQVzMflIJADu7rh/5FE9d3mzk2jjy/T2eQiBzQJJWEMz3bpMAkABI1nslAJItmuQN+6qHJ1z637uTz6ndQE5d/K8HTt+ym6AjGyYgASAB0LALjr+8BMB4NvplPAFOr7H6TtkFzid/xg1oe9rQEystIZynp0gASAAk67nWSvzpyeZIhsUg8FMPT7WfimFoItfY3MOYAM60UMqPgASABECyXisBkGzRJGsYp+iVT/HWT66+17XElRGtvMrjNugatBbkVwKg7/caBJiYQ0sAJFYgGZjzB8eG7HwAc2eQT98mcrU/154TRh2c07dhOl9QAhIAEgBBHczl5BIALvS6dyxD1JZPo5ZPRrhbunvYZuSYSw1zVL+FXXkMZxco5UNAAqDv7+oBSMxvJQASK5DEzTnTsfF6W+L5i2HeGgAY779s0Ot+/imGkbqGNwISAH1flwDw5lZ+TiQB4IdjF86ysuNAth92AVLFPB7hIAAoGF5d8TrarXkCEgASAM174RgLJADGgNHmWQgc6tBoPQDg2bOcsbsbOIvmdgeeJ3YXXXY5lwCQAEjWaSUAki2apAzjojT3OzRYOyeVmzSM2dqBJ+/bpdLIhqyYQkACQAJgios097MEQHPsc7ryex0aq38DmDenzEaydY4iCuJVDlx3iGSnLuNGQAJAAsDNgwIeLQEQEG6LTn2KQ0PVpYA/dYv8Aw5cz6l7Me3fCAEJAAmARhyvykUlAKpQ6vY+XOL2QWNDxWl/PF5pNIG5inDI1xrZciaBXgOM5prSVgkACYCU/HEmWyQAZsKhf0YQ4LzzulPVyv33GnE+bZqZAFdCLHnV/fzozKfSfwkSkADo+7emASbmoBIAiRVIguZ836GBWjHB/KRm0pIAHjUyPj21zMieWQhIAEgAzOIUqWyQAEilJNK143pj48SQv0rVCJxhZHwvAA4mVEqXgASABECy3ikBkGzRJGEYw/bW7ZYu998+iRzkYcRmDpxXyyOLnbVSAqBfh+gVQGK3gQRAYgWSmDkuDdMyieUlZXMWcngNIKGVcskCEgASAMl6qARAskWThGEHG59Mr0nC+ryMuMDI+vi8stk5ayUAJACSdXoJgGSLJgnDfmNslL6VhPV5GbG3kfWleWWzc9ZKAEgAJOv0EgDJFk0Sht1gbJS0ZG394nujkTXXWZit/uV0RCQCEgASAJFcrf5lJADqM+vKEQzfa1229vldgeQxn5wOWA6grPv5TI926FR+CUgA9P1agwD9+pbz2SQAnBG29gRsxOs2RNyfomGe1lIJmzFO67MwXyOsWTq7AwEJgL5PSwA4OFKIQyUAQlBtxzk3NDZG/2hH9hvJhXUg4BaNWKuLViEgASABUMVPGtlHAqAR7Flc9P1GAcCgNko2At8zMv+E7XI6KgIBCQAJgAhuZruEBICNWxeO+oixMWIjpmQjcJCR+Rdsl9NREQhIAEgARHAz2yUkAGzcunDUzsbG6LAuwAmUx68YmX81kD06rTsBCQAJAHcvCnQGCYBAYFtw2t2NjdG+Lch7U1nYxcj8kKYM1nWnEpAAkACY6iRN7SAB0BT59K/LhtwyIp3CQclGgMv7Wph/13Y5HRWBgARA36c1CyCCw9W5hARAHVrd2nc3Y2N0eLcwec2t9RUAQzYrpUlAAkACIE3PBCABkGzRNG6YdRDgLQDma9z6/AyYE8BVRtFFsaaUJgEJAAmAND1TAiDZcknBsLcbGyN2YR+h8LS1i5AD+Szd/zzmg7WvpgNiEZAA6Pu1XgHE8rqK11EPQEVQHdxtcQCPOzRKxwJYoIPc6maZUROtqy6WgmHluhfV/tEISABIAERztroXkgCoS6xb+1/hIADYOLFLW2Fqx/vMSwFc4sj4VvW2jAecwC8SABIACbjhaBMkAEZz0dYnCezl2DiVT6g/BrCioM4g8GwAxzn2sJRs+bpFKV0CEgASAMl6pwRAskWThGFLO4wTKRuo8pOLBJ0KYJ0kctaMES8CcIxHpmS7ajNZ0VUrEpAAkACo6Crxd5MAiM88tyue7KkXoBQC/OSiN9sD4DiDtqenA9gGwDkBOP667fBakD8JAAmAZN1YAiDZoknGsOcA+G+AxotC4FEAvwCwbfFkzOu0JT0LwFa9Ho9HArHjvbtaW4C1OB8SABIAybq3BECyRZOUYZ8N1IgN9grwO5cSZiChdwNYLqPBbcsC2LQ3mv/KSKz2S8pDZMw4AhIAEgDjfKPx7RIAjRdBFgbMBeA3kRq2QVFwN4BfAeAc+Q8U31cHsFiDxBYF8CoAWwBg1D4ufXxHA1wuAjB/gxx06eoEJAAkAKp7S+Q9JQAiA8/4cosAuKaBxm5QEJTfKQwuBXAagKMAcP0BRi5kz8H6AF4D4AW91wocyLjwmD9Wznz1sErxKuLVANYD8C4AHy7K6Yu9gEY/603VuzORvN8EgHYr5UFAAkACIFlPlQBItmiSNGwFAGyAyoZYn3FZsLfhxUl6howaR0ACoH+PKBLgOC9paLsEQEPgM74s57D/XSIgugi6WVP+srxrJAAkAJJ1XAmAZIsmacOWAHCuREA0EfAXAMsk7REybhwBCQAJgHG+0fh2CYDGiyBbA7h6Hd+TcyqfXgWEY8DAQVpdMdvb5InxGpb7496Es8wVPy150iuAxApVAiCxAsnQnLUBXG2sECyVSFeOuR7ABhn6g0yemYB6APpiQQJgZt9o/D8JgMaLoBUGcJrgDgDukRAwPRkNihoGXdpbKym24r5gJiQAJACSdWYJgGSLJkvDODZgXwDsvhxs1PR9Oo8HAByid/1Z+v0koyUA+r6vHoBJntLAbxIADUDvwCWf2usRYDe2Gv/JDG4r/IFjKRhkSKl9BCQA+v4vAZCYf0sAJFYgLTOHrwY2BHAigAclBmaIoYeLOP4/AbBx0d0/T8vKXNmZmYAEgATAzB6R0H8SAAkVRstNWQjAlgB+DoDd3V3rGXioiFD4SwAfAsAVApW6QUACoH+vqwcgMZ+XAEisQDpiDp961wXABW0ua7EYYMCkgwC8WbH7O+LZs2ZTAkACYFavSGSLBEAiBdFxM9g7sE7BgO/CT21ogR3XHon7izz8vlhz4AAA79Ngvo57dD/7EgASAH1vSOybBEBiBSJzniAwe2+RHi7ss1MxlerIXuTBJlbeGxYGdxULDl0A4OhiXMPOvTEOzwMwh8pOBEYQkACQABjhFmlskgBIoxxkRXUC8wJYEQADEL0fwBd6T92MmMfeAz6F87XCdQDYWPPvvhGvGfjEXv7O2QqXA/gDAK7+d2zxnv7A4pjdAGzVe12xkrrxqxeS9pxBQAJAAmCGM6T2RQIgtRKRPSIgAm0iIAEgAZCsP0sAJFs0MkwERKAFBCQAJACSdWMJgGSLRoaJgAi0gIAEgARAsm4sAZBs0cgwERCBFhCQAJAASNaNJQCSLRoZJgIi0AICEgASAMm6sQRAskUjw0RABFpAQAJAAiBZN5YASLZoZJgIiEALCEgASAAk68YSAMkWjQwTARFoAQEJAAmAZN1YAiDZopFhIiACLSAgASABkKwbSwAkWzQyTAREoAUEJAAkAJJ1YwmAZItGhomACLSAgASABECybiwBkGzRyDAREIEWEJAAkABI1o0lAJItGhkmAiLQAgISABIAybqxBECyRSPDREAEWkBAAkACIFk3lgBItmhkmAiIQAsISABIACTrxhIAyRaNDBMBEWgBAQkACYBk3VgCINmikWEiIAItICABIAGQrBtLACRbNDJMBESgBQQkACQAknXjNgmAVQHsCuC7AE7SnxjIBzrjA0cD+ExR3isnWNNKAEgAJOiWT5rUBgGwGIAfo+9k/0/fIQbyhy76wOMATgDw9IRqXAmA/r24fORyWcnYFtwY2c7GLpe7AODNda2xkLtYQSrP/cpILNrL4ioAfDBIIUkA9P1MAiAFjxywIWcBMDuA89X462lfPiAfGOEDZw3Uc01+lQCQAGjS/yY03HdLAAAgAElEQVReO2cBsOmIm15Pdf2bTSzEous+sP7E2i/OjxIA/ftQPQBxfK7yVXIWAD+RANCTn3xAPjDBB46rXBOG21ECQAIgnHc5njlnAXDdhBu/608+yn+/0hGL7rK4zLF+9HG4BEDf/9QD4MOjPJ4jZwFwlwSAnv7kA/KBCT6QwmhuCQAJAI9Ntt9T5SwALp9w4+upr3/TiYVYdNUHLvBbXZrOJgHQv//UA2ByoXAH5SwADpUA0NOffEA+MMEH9glXdVY+swSABEBlZ4m9Y84CYDUAj024+bv61KN89yscsegui0cArBC7Qh1xPQmAvg+qB2CEgzS5KWcBQG77SwDoCVA+IB8Y4QN7NFmxDlxbAkACYMAd0vqauwCYE8CxI25+Pfn1bzqxEIuu+cDhABgoLIUkAdC//9QDkIJHDtiQuwAos7I5gL9LCOhJUD7QaR/gwOBNykohkU8JAAmARFxxVjPaIgDKnK0CYEMA2+hPDOQDnfCBrXv3fArv+8t6aPBTAkACYNAfkvreNgGQFFwZIwIi0HkCEgASAMneBBIAyRaNDBMBEWgBAQkACYBk3VgCINmikWEiIAItICABIAGQrBtLACRbNDJMBESgBQQkACQAknVjCYBki0aGiYAItICABIAEQLJuLAGQbNHIMBEQgRYQkADoC4ATADBGQ6y/E43TglNYRCqK60sARMGsi4iACHSUgARAXwDkEpBKAmCKcnp6R29mZVsEREAE6hCQAJAAqOMvUfdVD0BU3LqYCIhAxwhIAEgAJOvyEgDJFo0MEwERaAEBCQAJgGTdWAIg2aKRYSIgAi0gIAEgAZCsG0sAJFs0MkwERKAFBCQAJACSdWMJgGSLRoaJgAi0gEAbBcDNUwaJ5zLaf5ydN7TA7yplQQKgEibtJAIiIAImAm0UAJe2XABcbCrpDA+SAMiw0GSyCIhANgTaKACOb7kAOC4b73I0VALAEaAOFwEREIEJBNooAN7ecgHwjgnl2aqfJABaVZzKjAiIQGIE2igA5gBwdUtFAKMAzpWYDwUzRwIgGFqdWAREQATQRgHAYt2upQJg5y75rARAl0pbeRUBEYhNoK0C4CkAbmqZCHgAwCKxHaTJ60kANElf1xYBEWg7gbYKAJbbTo4C4BAAfOL2+Xerg02Htd0Zh/MnATBMRP+LgAiIgD8CbRYA8wO43aHBpQDwmVYB8LjRHh63kk9jcjiXBEAOpSQbRUAEciXQZgHAMvmSscFlEJ4HASzpsWCPcLDlDI92ZHMqCYBsikqGioAIZEig7QKAS8Pf59Dw7u2pTGkH3+GPi+43bft6nuzI6jQSAFkVl4wVARHIjEDbBQCLYz+Hhvc/ABb2UKa7OtjwdwCze7Ahu1NIAGRXZDJYBEQgIwJdEABL9Lrzpz1lj/v9c47lyXn7jN8/7vzTtn/Y8frZHi4BkG3RyXAREIEMCHRBALAYvuXQAN8BYAGHstzM4dp3O17bwezmD5UAaL4MZIEIiEB7CXRFADwHgLU94RP6xx1c4DwHAbCPw3WzP9RaYBxwoSQCIiACIjCZQFcEACl836EhZhf+3JNRjvz1VQ7XfBTAsiPP2pGNEgAdKWhlUwREoBECXRIAqzrMw2cvwAcMJXSCgwD4geF6rTpEAqBVxanMiIAIJEagSwKA6E91aJCvAcCFhqqmpQA84nC91ateqK37SQC0tWSVLxEQgRQIdE0AvMKhQWYvwDtrFNpeDte6sMZ1WrurBEBri1YZEwERSIBA1wQAkZ/t0DBfUkQXnK1Cuc0LgLMHpk3xG/f7eytco/W7SAC0voiVQREQgQYJdFEArOvQMLPBfnOF8trG4RpcMIirGXY+SQB03gUEQAREICCBLgoA4rzAoYE+t0J5/MXh/F+ocP5O7CIB0IliViZFQAQaItBVAfAOhwaavQBrTCgvlx6GhwAsPuHcnfpJAqBTxa3MioAIRCbQVQHA9/h/cxABp08op9McznvUhPN27icJgM4VuTIsAiIQkUBXBQARv9+hoWYvwEtHlNNyAB5zOO9qI87Z2U0SAJ0temVcBEQgAoEuCwAu0vMvh8Z6VKCegx3Ox9kJSgMEJAAGYOirCIiACHgm0GUBQJQfcWiw+aS/8kB5LAjgXofzvW3gXPrqsHiD1gKQ+4iACIjAdAJdFwDzALjZodEefGf/SYfzsCeiTpTB6SXbgj3UA9CCQlQWREAEkiXQdQHAgvmMQ8PNUL/L9BrvfzicZ8dkPaRBwyQAGoSvS4uACLSegAQAwK77uxwa7wMBuEwr/A+AhVrvaYYMSgAYoOkQERABEahIQALgSVB7OAiA/wJg7P5xYX2nbT+oYll1bjcJgM4VuTIsAiIQkYAEwJOwFwFwn0MjPq2RH/f74wBWiFjeWV2qbQJgUQCvArCO/sRAPtAZH+AKdKkOTJYA6DeJ+zcgALg8sdIYAm0RAAwNeY5jgIhxClLb7V1vYid2sXzg0SJ87K+LlejWHFPXNbVZAqBPniwejiwC+DCoNIZA7gKA4Sb3jexQsSo0XUeNp3ygvg+wy3f3MfVdE5slAGamfmTE+pqhiKssLTyzhR36L3cBwFWdVEmKgXxAPjDsA6lM+5IAmLlBXR4Ae2uGyyvE/1vPfGn9N0wgZwFAR+Ic0RCOo3OKq3wgbx94EMDSwxVeA/9LAMwK/cQI9fadAOab9dLaMkggZwHQxIASNQp5Nwoqv26VH6eeNZ0kAGYtgRcC4KuakPfjl2e9rLYME8hZAFwa2IFCOqfOHfbmF1/xpQ+cO1zhNfC/BMBo6C5L+k67v9kzTO5KUwjkLADYxTPNEfS7GMkHuusDN0yp/2L8LAEwmvLqAevv40dfUluHCeQsAK4P6EBqNLrbaKjs21P2lw9XeA38LwEwHvrvAtXhjAuhVIFAzgLg54GcRw1AexoAlWW3y/KkCnVg6F18CAAuibsBgA8Vxn4RwN6B/rja3nsArFVMr14gNBgAbwpQh58Xwe7WXCJnAbBFAOdRg9HtBkPl367y3ziBmtoqADiLYT8ALivgufgzr8/39Kxn5wrI0SXG/6j8vTugra07dc4CYE4ADPQwygm0TVzkA932gQuKgECzJ1BjWwVASv57VVHXUkyFCKrD8/rK642BxUoC7uTXhJwFAElwkYfbPTqQL0fUefzd1GIplnV94ObeGvJ+a0vb2dogAEr+xxWvHuaxYRh7FEXalZ7q8F3GXkU/jCSQuwBgppYtFn35vScHKh1dn2p05AN5+sBZiU0Ba5MA4D1xPoDFRrYm9o1beqi/uWQwVxxUqkGgDQKgzC4XfTgYwOkA/qw/MZAPdMYHOCD4gAQXAmLd1DYBQBHAB66nlBWvh0+OMbjOUQR8y4MdnTtFmwRA5wpPGRYBEUieQBsFAEXAUZ7Jf9RBADCq4PM929OJ00kAdKKYlUkREIGGCLRVAFAE+Fxql3H7bzWKgF80VLbZX1YCIPsiVAZEQAQSJtBmAXCx55kWuxoFwJsTLv+kTZMASLp4ZJwIiEDmBNosANgLsJ7H8lkIwN01RcBfPYsQj9lJ/1QSAOmXkSwUARHIl0DbBYDvwXcfqyEA+O6fawooGQlIABjB6TAREAERqECg7QLgFs9P4Aw2dHgFEcDGn6GLlRwISAA4wNOhIiACIjCFQNsFAF8DLDeFgeVn9gSMW/GVUwY3tZxUx8xMQAJgZh76TwREQAR8EuiCAOCiPiHS/EV8AAYJ+jqAE4oARN8soga+S+F+/aGWAPDHUmcSAREQgWECvgUAG8JQqwEylj6f6Ov+vXM40/o/DwISAHmUk6wUARHIk4BvAbBSQAw/MDT+FAtcplgpQwISABkWmkwWARHIhoBvAbBMwJwfYxQAnL+vlCEBCYAMC00mi4AIZEPAtwAIueAN37HX7f7n/vtnUxoydCYCEgAz4dA/IiACIuCVgE8B8CAATpMLlayR+M4OZZDOG5aABEBYvjq7CIhAtwn4FABXBUb5PmMPAJfinTuwbTp9AAISAAGg6pQiIAIi0CPgUwCcGpjqK4wCgK8B1gxsm04fgIAEQACoOqUIiIAI9Aj4FABfDEx1HgCPGEUABxAqZUZAAiCzApO5IiACWRHwKQBirHp3iVEAcHxCyAGKWRV6LsZKAORSUrJTBERgHIElehHj9gHAJ9GfAzgWwH4Atgaw9LgDI2z3JQD4ZP7UCPZ+zSgAUpoNwPEI6xT52A3AoQB+AuBHAA4GwIGOXEBojggsk7+EBEDyRSQDRUAERhCYHcBmAC4AwIVhpk1f+wuAbRsII+tLAPxmBIMQm9hwTmM57ne2J6uGMKriORkk6TgA/6mQhzt6iw41KQ4rZivcbhIA4djqzCIgAmEIvA4AG/RxDdGk7VcDeFsYs0ae1ZcA+MjIs/vfOBeA24xsyf0iAIzhHzMtBuA7AB412P0QgG80YHNMPmOvJQEwFo1+EAERSJDAjsaKflAUsMfgK56XsR2HyocAeDjy+/UDDQ3pIN+TAscrGGT9GgA3O9pL2y8uRETIKIuDNifzXQIgmaKQISIgAhMI8J3tER4q+sGG6pQIT36v9mDz9ydwCfHTCyq+VhlkOfz9sAjv2d8K4AEPfEvb2fPx8hBAUz2nBECqJSO7REAESgJs/K1x6svKfdzneQCeUV7I8+faAO720EC9xLNdVU53uge7TwYwb5WLGfbx0RM0yifu6ZIIkAAweJ4OEQERiEYgZONfNgA3AXi9xxw9BcCeHl5V0D42xE0kjpQv+bh8XlnkgQGGfKWn9973u9g07ViKtk70BEgA+HJLnUcERMA3gRiNf9kYcFwAexn4zt6aODNhIwAcaFie1+XzsYZH1XP6nIv95bFsZ/hKwGXEPX2BoYpv9WRTadu4z06IAAkA662u40RABEISiNn4DzYCHHBHIcCZBrShSqJo+CSAKzw3Tmw0m0zLA2CAn0E+Lt/J9rsA1qsxHfOZAD4D4FqPdlTNA0XAy5osgNDXlgAITVjnFwERqEugqcZ/uGG4HQAHCjIE7xYANiniDqxfPOG/p5hr/omit+BIAH8L1DDdWExPW6guuAD77xwof2xcf1GMEfhqLz4D2XJQ33sB7NSbo+9bUA2Xb5X/Wy0CJAAC3DE6pQiIgJlAKo1/lcYh1D7s+l/XTNDvgXMCOCeQCAjFz/d5WysCJAD83iw6mwiIgJ0AG392EfuuwHM7H0PYppQYavmWjpcLZwf4HMyYRPlKACRRDDJCBDpPQI3/k8KHQXQ4mDC1xFHxPufc5ybKaG/rRIAEQGq3mewRge4RULf/k40/4/1zSd5U09s9TW3MsfEvbW7V6wAJgFRvNdklAt0g4Lvx/28xcp0D11zi2ZeVfczPsyNEJfThUZsC4MqEMdm4XouvlbhCpOt5yuNbIwIkAHzcEjqHCIiAhUCIxv8NPUNWBHC9x0q/rPxDfP4UwHwWgA0ds0ExUv/+TNju1VuXgMGZTvVoM0XASxvi7+2yEgDeUOpEIiACNQiEbPxLMzg/n8sFh2i0fZ1zvxrxBsp8pfD5IgA3JMyWMQe2GwIlETAERAJgCIj+FQERCE4gRuNfZoLv1Dlf31eD7es8dxZLGvOdes5pkV6cBF9MfJ2HMRS4SuCoJBEwQEUCYACGvoqACAQnELPxH8zM2wD8OxEhwBC7Sw0al/H32YpXLVsBoKDx1YC7nOdYAAtP4UkR8DOP9t6V6+sACYApnqKfRUAEvBFoqvEvM8An1kMAWOs9l4aJxzKyHaPdtTEt3ove1xTby3shhquylQhwuBG4IpOSCIiACNQhcITHpy6O9i8H/NWxgfuuDOCEiFPa2PDzKZlR9dqeVugFc+I7eFfBVOX4fxY9Ox+qsbbAIP8QIoC+lU2yqjUJgGyKWIaKQBIEuH57lQq9yj5s/NfxkKvnAuAgvBCvBtgA/gjAWxIN7OMB38RTcAAm11BgA12lTOvsw1DJvyx6VN7pQVT5FgFcCTKb9lECYKIP60cREAEPBNby+LTtq/EfzNZcAN4I4CAAf3dosG7u9SxsnlMjMAgiwHeOEWAI3T17MzKsbQ6nHZ4OYHsAz/Jsp28RcIZn+4KdzloY2SicYOR0YhEQgSoEGNb2EodGdfDJMETjPyoPi/beJ7PXgqLg5N4T55+LJ3r+/QrAj3vvvLlULUfzLzvqRNo2CwHGO1gdwNYA9gVwHAA2mH/oseXCQxygxyWZdwfw/qInZdUIUyV9i4ANZ8l5ghskABIsFJkkAi0i8O7MGv8WoVdWahKYGwCDMg2KTuv3v+bw6kcCoKaHaHcREIFaBM71UKHGevKvlTHt3EoCPnsCrINUo4GVAIiGWhcSgc4RWAwAB2xZn6J4nBr/zrlN4xn21ROwf+M5mWKABMAUQPpZBETATOB9avzN7HRgswTYE3Cao/9yRkDSqS0CgPNrN+uNwL0QwD/010kGFxdzvLmeOhseqnilZgl8xaEC1ZN/s2WnqwOuIuBxY3yCaOzbIABWA3ClQ0Xj0j2pY926d0Pyu6ZQ8C+LdifpQqMIHGW8L9X4j6KpbU0QcBUBjIeQbMpdALwEwH3GSiZk46NzpyEM2JC8Ktm7r/2GWUdUf7b9aJTDjAhw6uK9xnaGD6jJppwFAFf5+pexUNRAp9FAxygHrgw2f7J3YLsNO9p4f3Jhmee3G41ylwkBBjJyWU1y6ZTzmbMA+LCxconR6OgaaQmMnVK+CVts214O9+hNAJ7dYjbKWh4E9nHwYY4BSHosUs4CgNG41NCKQRUf+GMedU3rrOQCOFXKZ9w+HNTJ7lclEWiCgOssFq6DkHTKWQCwa3dcxaHtYjPoA3cnfRe217hnAuBT0GBZ1P3OkLBKIhCbAN/dcwxRXX8d3J9LTyedchYAdzgWzmBB6bubo6fO78Gk78J2G8fY+a7+sWm7EXnLHce68J3zc4q1Cl4IgIOk+cclerntGTmEp/VGw34ijvz/mwe/Xd9uQpwjcxYAF3koINeKSce7V+4xGF4V53bSVUYQ2NLDfXo7AEYV7HriwkrLFY3TxgXT3YoFiL4L4HcArq/5tEqelwI4BcABALbrLdCzUNcB9/K/twefZZ3D+DRJp5wFwFc9FFKMxkfXaF4kHJj0Xdhu4+YAcLmHe/Vb7cY0Mnec6bQOgC/1ViCMMeWZMVUYv4HjN7o4CHN5AI948Nd3jizRxDbmLADY1cWuXTWwYjDJB3gz86lJqTkC7Ap1HQvwaK9bu7lcxLnywgC26S2J+0AC9dsVAL5eLNn7yjjZb/wq1tgVg3UQlzTm9MHkU84CgHA/msANMljw+p6eGPl08ndhNwxkl7Xr/XFyS1HNBWADAD8A8JAHTq6cxx3Pbu3PAVimpeXA8RLj8l51+w0AlsiFT+4CgJx39rDiWNXC1X7uN0gshnziZKOjlAYBPhGxAXcpf64syAFtbUnsmeI7+NscubgwtRzLcjgbwOapx7qv6SgUYBYe5TGcNfDSmtdsdPc2CAACfDGAH9UcCFMWmj7dnD41fnwtxMFNL2/0ztLFRxHgnP4LHCtZNpi5pxcA+H7xNM3XGqndP3Xt4Vz3D+HJhXNyLpelHMuDomij3AC0RQCU3Dl947kD01/KaTD67E8JajOL57WgIip9ua2f7B691qHh4wj2pKOrTSg4Lk71Ew/jIeo20jH2Z+TGHTMOu82eZBdOn5pQ7sn+1DYBkCxoGSYCIjCDwOsdG8G3zDhTHl84mt7H4DKXBirWsbf2ZhBkMQhuwH3+4iAAGJU2t/w+kXUJgAEP0FcREIFoBI51qHC/Gc1KtwtxcN8OHV2x9E8ZLcfNJXuts1QeBrCim5s0d7QEQHPsdWUR6DIBhglm5Wl5Mk0+xjqAtQFwTr0lf205hu0LpxAumLijf9ChnL6ReN4mmicBMBGPfhQBEQhIgAPhrI1dqlOtGI732w75svJI+Tiu27JWQD9yPbV1uV8O/OOYs2yTBEC2RSfDRSB7Aq91aCg5bz61tAqAyxzylHIj7mobZzx8PtG1CC4xltnpqTlgXXskAOoS0/4iIAK+CDBMMFdqtDQuqY265tKx9xvzYsl/rsf8GsCSvhzIw3k4eM+66h8D0WWdJACyLj4ZLwLZE7COjj80kZzP21uUJ6UGmQ0ap0v+o7dQ0F2JCZNbikBCayZSfhwAaC27VRPJg9kMCQAzOh0oAiLggcAXjBXwjz1c2/UUTysG+zHuu7UBsR7HwZPn9Rbt+Uyxst87AKxcRBXkOgLsVRmXOD6BYyfWALB1MWf/a0XMlFMBMHyt1RbrccxDCgvmMDaDJQ8M2czVGbNOEgBZF5+MF4HsCVhHYDMUbZOJsxi4pK6l8ah7DN+fn18EudoLwLoAGFHRd2JY4m0BnBgxNDEH0W3vOyM1z/cGYxn+q+Z1ktxdAiDJYpFRItAZAhzMV7dB5P4MKdxU4pKxbAAsdtc5hoPTPtHA4jJ8smXDeEykcQ27N1WQAN5qLMdzG7TZ26UlALyh1IlEQAQMBKwVMLvAm0gvAsBod3Ua8jr7ciDh/sXaJqm8X14AAAc4MrBPnXzU3fewhqLp5ShAvfm9BIA3lDqRCIiAgcBmxoaF795jJ3aTh2r87yne3+8BYNHYmapxvTcC+J2xvKoIgv1q2OJr1/WM+bnclwFNnkcCoEn6urYIiMDHjRUwZw/ETHznzwiEVRqyOvvwiZ/z4xeKmRnHa3EQ4R8DsCC3TzvaVvdwrhpap7zKfe+oe6EU95cASLFUZJMIdIfAd4wVMKO3xUoc7R9iwB9XBlwmViY8X4fz5z/Qm25YNoo+PhmTfwvPtk463bJG/2NeOYUw6yQBkHXxyXgRyJ6AdRW2XSPlnPP8fXd7sychtxUNx+FeBMARDovpjBINbJdi8eGCTY8YRUCK0SjHldPI7RIAI7FoowiIQAQCz3JoODaKYB8vcbSxcRjVsHHbj4pBfuxRaFtig81u8XH5rrudr0ZWigTJumjT4ZHsC3YZCYBgaHViERCBKQQ+6dBgPGfKuX38zK7oug3XuP0ZOIZLA7c5sUv89x6Z/TVQzIPhMjjeaDOjLbIHIdskAZBt0clwEciaAOeacyT1uAZz0vZ/R8g5I+v5iu3PmAGrRbA5hUuwQeQSwJPKr85vMcZ6fMzB3hSiGZrLXQLAjE4HioAIOBB4l0Ole5LDdascykh7f3Owb7CB4+BBziDoWtrR4fXOID9+3zwwPMZcGL5m1f/ZS5FtSGAJgMCepdOLgAjMQmAeAFc5VLoMTBMyWdeHH240GKuA8fm7mthwWwfYDbK8DwCjL4ZM1yXsj8HyLQEQDK1OLAIiMIYAA74MVvB1vrNB4cjzUOn1DrYN5uPnADiDoOuJgXYe9MD0rMAgD3CwkastZtnLIwEQ2Kt0ehEQgZkIMJocF4EZbCzrfOfc+VBpbodxCYN54EA4Nf79UuJqhVzQaJCR5TujRoZKL3G075c5DgiUAAjlTjqvCIjAMAEuvcruXEvlXx6z4fBJPf6/i6NttJHv/Lvc7T+uOLbxwPbmwBETufhS6WeWTy6exABJ2SQJgGyKSoaKQNYEXuUhahzna4cacMWIfA84NgAc7Z9lV3Akz2LIY0vDOngMu+pDJY4tGbyW5TuDImUzNVACIJQr6bwiIAIlAVasnAdvqVAHj2Ho2VDpx4728T13V6b6uZTBDxw581VCKM58BXS9o33017MTX9RpRvlJAMxAoS8iIAKeCTAwDLtFBxtx63fOGpjTs33l6bjEL2PQW23jcduVJ9PnRAJPdZwBQtYUa6HSlo5+UPrQnb3AT6F6rLzkXwLAC0adRAREYIAAQ7iyq9a1S72sTPn51oHz+/7K8LyD16r7/UTfBrX8fBxw59IjRLH2gkCM5gDgOhZg0H8uAPAeAE8JZK/TaSUAnPDpYBHoPAFWmIsB4Oj+3QH8wbExHaw8y+8hR/6v4jgrge/9F+y8F9QHwEBBZflaPhm+N1R6paNPjMoPwwZzXQm+xqJAnj+U8XXOKwFQh5b2FYHuEuCyqR8HcCyAX/emy/lc/GVUpclt7EpdKiD27zk2RNmvCBeQ7aRTUzj+2YE9xwKEDA70DQfbxvny8HaOG7kBwPkAflosErV/T0hzLEKUJAEQBbMuIgJZEuCUJs7hvihCZThcOZb/vz0guec5zk8P2TMRMNvJnPrljk/a3wmYE3bZN+X39wI4BMASAfP3xKklAEIT1vlFIE8CLyyeRs5tsOGnAGDEwJDJZdEajm/g1EElNwKHOfjYw4GjQlIgxujlKsXu8CdjZnwOAHtLgiQJgCBYdVIRyJoAn7p9rYQ3XKlV/Z9doiFHUHNGAVcVrGrP8H67ZV3C6Rj/9GK0/N0O5fCRwFlZEwCFxnD5x/z/tFDjTCQAAnuPTi8CmRFgxDbXKXGulSPnUXNFvpDpzQ6V+j3F+9qnhTSuY+few6EszovAiq/BrG2l671QHs9VB737nDVTVG1KIiAC7SKwdgIV3W8ijZDm1L2ycq37+eV2FXvjueHiTi4holeIkINNE+gJOMP36wAJgAieo0uIQAYEGMKWI+7rNoY+9z8p0nxpPklZV6jjq5FnZFCeuZn4NQff2zNSZtcBwAF6Pn2+7rm85lUCIJLn6DIikDiBbzVYsXF1wC8Efuc/iP+DDnk9cPBE+u6NwJIAuNRz3QaR+18bcREexo24wminJW/Dx1C4eht8KgHgzX91IhHIlsCKDXb9cx70GyKT4wDD4Yq16v8MG6wUhoBLuawaxqSRZ12gaIQ5BbGqz/je77sjrTJslAAwQNMhItAyAvs2UJkxkMs3Q41unlA+DLJifd/MpX6VwhHY2MEPdw5n1tgzvwnAPx1stgoDzkpYaKxVNX6QAKgBS7uKQEsJXB25EuO0plCx3KcV0esc8rrTtJPrdycCDL5zl7F8GJ2yiUSbP9lAvIB3+cisBIAPijqHCORLgCOorU8idY7j4i/HFSsugrYAACAASURBVCFPm+5C51iDOnaX+7LHggMllcISsAYGYmCmaCF0RyBgbP/ti4V/Yolp3kvOSQLAGaFOIAJZE3CZD182juM+2VV5Vm+p3FSmDp9pFACMW68UngDXVhjnT9O2cxGfphPDZ78GwKEArnfIy7S8enkdJQHQtLvo+iLQLAGXEfGDlRSfwC7vrdX++WKBk/UizeevQ4+VM4P4DNpd9fs+dS6kfc0E+G7b2i59wnzVcAdy5b+te4LgjwBu9hRoi1N2nZMVdCpq3hmATiACHSfwWWODeHKxMuBzASzdwEA+a5E9x5hXigQO+FKKQ4DR/aoKs8H9vI2OD5xNvqrgEtr0x7WMeWXvmnOSAHBGqBOIQNYErO/EuVxqbolrHAw2GFW/s558am6ZzdjevYzldHGGeebDdFU/HNyPPumcJADqIWQAhnUBbNkb8PGhYhrI+wBwwQhFB6vHUnunQaBLAoArqw1WolW//ymNouqMFdZxKRxoGmzlvED0JQACgfVxWjrT+kVXzTG9dzfTKowrATBS2Ct8XFznEIEIBLokAI4yCgDe/0rxCPDV0rS6dtzvfCWVU5IASLC0OLeTy0xe5+CIFwFglyMHHimJQKoEuiQAOFd8XMMxafuuqRZeS+3igxef5ieVybjf1siMiQRAYgXGQCFXGZ1vlFNyadPlE8ujzBGBkkCXBMA/jPc1I9QpxSXwN2NZ8ZVsTkkCIJHSourkutQh1kLnCmLvSSSfMkMEBgl0SQBYQwA3FbVwsJy69v2HRgHAqHw5JQmABEqL0zI4rWnUE7zPbaxsu5bY+7FhMYZim4LvbsVyrxzhy7jdOwBg0A8uRDN716AklN+uCAC+1rPeyxrgG99hDzaWF+uXnJIEQMOlNReAU4zOZqlQvtxwfkNffsFiec4tegFhbq3IlUEtftKbXcHjleIR6IoAYBhfy/3KY+aJVxy6Uo+AdSrg4ZkRlABosMDY7X+iQ8VgrVAYfKVt6WXF0/wJAP7ryJPHH12UCyNoKYUn0BUBYA0CxDXqleIT2MVYj+Q2Y0MCIL5vPXFFjs7/ttHJrA3/4HEfayjfvi/L+Ns/D8DxsZ6gYOwFpXAEuiIA+Kpp8P6r+t1LyNVwxdfaM3NhnaplNLgfH+hyShIADZUW5+sPOk7s7xxsuFVDefdxWb4X5ZN6iEGTg2XBAZRchnVOH0brHLMQ6IoAWNV4v3MqsFJ8AnyNOFgPVP3+4/imOl1RAsAJn+1gvoev6lAh9+MSo++0ZaHRoxgJ8Y7IDM8B8H+N5rqdF++KAFjF6K+3tLPYk88VBw1b6l4O5s4pSQBELq3PGB3L4oxVjuE7Ro6GzyExHvrxDfK7DcA6OYDKyMauCIDljH7LHiil+AQ4na9K/Tm8z/fim+p0RQkAJ3z1Dra+Vxp2Mt//Pwhg7XpZib4350Iz1LHvvNc9HwVTbsE+ohdWjQt2RQBwLEldX+P+fMXFwcJKcQl80Vhe34lrpvPVJACcEVY7Ad8phX5fbalgymP4pPHqalmJvhfXdqd9pa1Nf7IcOS5AyZ1AVwTA0xz8l2vUK8Ul8HVjee0f10znq0kAOCOcfoJNAPB9u6+Gi6GCjwPwAwD/9njee4qYBC+enp2Je/A9OV8p8B3apwFwOs12ADbqBd2puzYB3/dbV430xXvUeSgCFF1xoitU+rErAoB+b/VjzUSp5Eped7Iu3MQVH3NKEgCBS4tLSz7sqZG+F8BwXHAGEuK4Al8C4/ZCWHDAUtXEio0LYBxZccVCTmv6UW+hIkZAnJQYryDlXhMOROSTnZKdQFcEAAlZxfrr7Xh1pJHA74x1NpdozylJAAQsLS7s4xqYpnz6/E8x3/3lE2zle2nOXS/3d/m8CQCXxJyU2PBv6rhwEQfVsSudYVKHkzUQh0u+Lceyd0PJTqBLAuBC4/0pH7P7l/XIqlFEh+uMXAZUl1wkAEoSnj8ZoMa6+MewU1FErFnBvg97fGL+VxGo6FljrsmoexcYK7PhvPF/XotLF5eJcfpH7Zfittym/ZSMU/nskgCwLjCT23vlVHzLasfCDvVPbgs3SQBYvWTCcasBuMvBiQYbOr4+4CC4qulTnq5LGzjWYPGBCy9QdHmzMvL1umEwn/zOMQ0cN5Byt/+wzecO8NHX+gS6JAD2Nd6bp9fHqiMcCPDhbfg+r/o/68ickgSA59JiyE9r99Gwk7Gh5eC5uml3BwcetuFSAHSStxSL5TAq2fDvOfzPHpTfAuDAnr0LUXMogD95ysuv6haO9p+JQJcEwNZGn2MwoLqDZ2eCrH9qEeB7fEu9dmOtq6SxswSAx3JYFsANRucZdji+z3eZb26dxjJsB//3JWhGnTvkNr6meDcABhAalSjW9isGUT7kUGZ8qlOyE7AKgBy7xV/h4Gcr2xHryJoETjKWE9ckyS1JAHgqsaUA/MPoOKMaQb7Pd0l8YuDSlKPO3fZt1/bGFFR9auLKfwz1a+EyaWCmS/l15VjreA+OqOf4Cy6+clhRdrv1lnN+DYBUu2HndxioyyBiSuEJsM7gTChLXcDexRQT88RB3e8A8HEA3wDwXQAUOr8x5tVLhErrvFiqlpQSF6a53AhylKPt7Clzs/fiBYy6Rlu3MRSnJXAKo63VXaCJ0xmV3AhwJolvX2Tv2WW98SocPzNqlomb1faj/2bMr3zNzrzOkS80lg99eHiKdp3r+t6XDT5XfD2taPQZ38X3PXa9D4PbIAA4D/wij4D38AF24BxcxY4rVPl2gNTOx/ESHx3It/Urn0irDHJkA8PRwkpuBFaP4JuMPcFeAtcgV245ffJoa68c86AVKX2UwORzWNcAYH24xORTB/+VPV/sOebA5ND1s5exT7kLgPkA/MEj7FDvNfkEdIZHO0M7V93zP1CIsA093l5vmDDgkTMU2O2sAEB+gPMeYvnVLXPr/mcBaDKwDsf1WG1f3w9ynWUCAev05qsnnDP0T3wQ2bN4AKJItPpW3eO8RDzMXQAc4xE4I+lVfWdtcShWtNboVnWdI+b+HOEfokJnlMJ39SIcchrWT4tFWdg7wy5CJb8EfuLxPqrqexyw1cTAOobKtk5z5UqYSuEIcCxQVf8Z3o89TLETo8B+InLDX+bbS7yDnAUAF84pYbh+8saOseLXgp4D+Ljm2/V4rmK4buy7TtfzTmAzj/dSHZ/i7A/OQmBFGjNxam0dO8t9KXYt41ti5i3na33FWC4sn7dGzjhjzVzsYG/pU5bPK3zlNWcBcLQn+KdEroA4gNJaAVmcJdQxHOjFUa1K+ROg+OWYilC+Mu285xUxIpaOiPGrDnn9QEQ7u3QpDpjmwLZpvjLqdwZrGzfV2DdD9hJznJKv9WVG5WfaNi5u5yXlLAD4zmcaqGm/cyDFPF5I1jsJo/sxyt80+1x+Z9CgY3td6JcEuNaO9bKsvRMnwDEcLv7meiwXdlorEiMORrTay3sp5KvCSAiSuwwfJqxlwkHWMRLbCmuMAmveho+jWPbmfzkLgLsdHIZQOXiQ84KbSozzz/nywwXs+j8r0q1GjFhmV70P0UT7Dm4Kmq4blMC3A/hjHX/mKwGO+4iRrNMBmZ/cFpyJwdPlGmzQrAs1sTxi9ESy59Yaq6TOPTBpX65Gy3ES3lLOAoAL2EyCNek3qvgUYhlwrihX/ptka53fqE4Xm+Ad8/ZC8VaZZjfuuhRO05YRnmCCfkqYAN/FWwOTjPOXutv5aum9ERgx1kdd28r9z49gX5cuwSXbS7Z1PznyPnScCY778BW6vG7+yv15XzAcvNeUswDgVLASTp1PBgxi4KBU0ioOka/KfDMCYp3BeFxN0DIOgWKl6bm2qZRbW+2gMD7beG+V/uj6aV2Do06ZMHKoixBep87FtO9EAn908LdvTjyz+4/sJabgc/Vpl+M5+JQh1b2nnAUA5+TWhcqGkjd+aonvJC3Rolh++xR/nGJYN/FpjyOwqw5m4VxxrtKl1H4C9A0u2FT3/vK5Pyu90GGez3TII58IY8wcaru3cRlyF78JWSdxYGLTQdy4tg0f2IKknAUAgdQJrkOQXCwo1cRpjYzvXPVmYAXEqSiuiT0QHFgy6bq3Fav5vc71Qjo+OwKMEujydDbJp6r8dvOUV1quQN85xe+n2ei6Xoir/bkfz6drlxVOOXMlZPqio39M859Jv99XZIzXD7quRu4CgBGY/lKhkDjYboWQnuLp3Kxwp0WTomNwQQmfTx9Uupv3hADfNZWOyeU1v1Y8DXLWglI3CXCA1trFa7NDPK60WfpXlU8GgfI26nmoCHkP/X3A36vYM7jPXYEFypC5rfuXi/cM8qz7nXVWqMQHHpdXRHXzwv0fAcCZaQypHqXOzV0AsPCpIlk5jerKZsSv78eC6ckTl+xN3RsOz8regSMAcPZAyESez9G7/pCIsz03G2L2orFy5FxkzonnYDqKxF8CoDi1VHzTjuH68KESZ8xMu/6k37mqm1J9AowCyQZvEttJv10zYqZTfStGH8GnbpeeiUl2M4gPZ9vw6Z4N/Xt6g/teEvppf1RW2yAAynyx4dyiGBG6VwGSa8Sz0lim/DHDT8455frlHGzEd0Acwa8kAikT4GI5fJXFCm5YwE6qFKf9xvExvL9DJI53cK3sY0xDC5H3ps7JUfsu0/7oLx8MaPzXHYTJKF9mxEC2RykNPn8CX5sEQEB/0KlFQARqEuBiTRyg6vKUN1iZHlXz+nV2/4hjhc+YJOw1U6pGgHFEBsu27ndGDAw1FZmviq3t4nA++Ho6VnCrauSH9rJmNIU59ENZ0b8iIAIJEmDgEusKb4MVKt/HcsBqiMTeNg44HLxe3e8clBuqUQqR56bOyVdHddkO7799QON/6ME+vo7mIkHJLx8tARDQk3RqERCBJwiwgWVY6uGKvO7/HM8TKvFdbF17hvcPPSc9VN5jnXdF43TnQc5/Dbh2CwWmdaXI0kbOmHptLKCu15EAcCWo40VABKoSOMCxkWV9FWpcDwc4+giAtEtVGB3bj/FXXEOfs3FeIyA311DY/wbwvID2eT+1BIB3pDqhCIjAGAJsZF1X8dxjzLl9bF4eANcjKJ/mLJ9spEIOUPORz9jnYChdHwuS0XdCJdrI4FOWMucxjNPPgG5ZJQmArIpLxopA9gQ4ApzduNaKliP2GbciVHKdm858sV6NvT59KB6u5+XsJR+L6ISOubCtg0+yzBlUKrskAZBdkclgEcieAJ+UXGYHvCYgAcbBcO2qZoPAgWBB4rcHzLvvUzNQm4/GnzxDxoJgvl1e/3BdmiyTBECWxSajRSB7Agc6PHHxKT1kosCw1o1srMo/RtX8WEhDEz433/m79PSUDPl5SsBokERIoWItb742yHaBNGumNQ0w4TtPpolABgTYQDw40FgOVvjTvl8UIX+fNto2yvY9AzdgEXDUugRH+/voRSFLvvIJ3d5s5FDW+9cik9jOEgCJFYjMEYEOETjSWPEyJsBTA3PigMXTjPaNEgE/jdCQBUZS6fSb9gbEjWJQdxtfE4Vc7a/M0H7GcmYPT+jQ7KWNQT4lAIJg1UlFQAQqEGCY67qNQrl/jAhri3peAIlPs6+qwCXHXRjrgWuylOXj4/OTkUD83mj3byPZF+wyEgDB0OrEIiACUwgwUtrtxsp3uynn9vUz1zawvqoY1QjyqfYzOUSJqwGQAXT4WmZUfq3bTo742mTaCqzj8sAQ0lknCYCsi0/Gi0D2BKzd7N+ImPO3BVga9tJi6Vcu/51z4qp5Ptd7KBtaPlmzRyFGYi9Ped26ny+KYWDIa0gAhKSrc4uACEwjwAFydSte7n/CtBN7/p3BfVzDxA7nk+f7ToqrxFVgx4FzXJRnOE+u/3MBHS4kFSu9wJgH9uQwpkXWSQIg6+KT8SKQPQEu4W1pNM5qIOe7Gm2dlr//9J6kF28gT3UuyYGRGwA4LxCHfwF4Zh2DPOz7emNervFw7cZPIQHQeBHIABHoNIGNjRXwuQ1Rc13PYJIY4JxyxkdIbWQ5Iy9yFT8f4XzH5f9WAAzFHDu9xeh/F8c2NMT1JABCUNU5RUAEqhJY31gBn1/1Ap7341PwV4w2j2v8hrdzmuPpADYDwFC6TSUO7vtqsbbBjYHzyyf/Jhp/cmXI5mH+Vf7nzIHskwRA9kWoDIhA1gQYLrdKhTu8zx8bzvUOADgPfNgu3/9zkZmjALwDwCKB88wnfYZp/lTR1X9hhLyRFd/5Lxk4X5NOb+0B+Nukk+bymwRALiUlO0WgnQQ+YWxofp4ADooXxvz33eiPOx8FB6fb7Vs0nG8HsAKAuRw4cAQ8wx5vD+CHAKzT4cbZO207R/vHHPA3ChVnYkyzc9TvXJwo+yQBkH0RKgMikDUBa/CY4xLJ9boeI9+NamimbeNo9KsAMNLg4b0u+88XNu0IYJveIjo7915bcHwBl9Rl78kdxoZvmj1Vf+c8/1hT/Sa5ykoOHEL3yEyy28tvEgBeMOokIiACRgKXGSvgPYzXC3HYMgFHxldtUHPZj23OFwMv6VynjDnGwjq9k/Ehsk4SAFkXn4wXgawJcBU1a+W7ZWI555xwa29GLo23q51cIChGbP+6rmEd5MgZIVknCYCsi0/Gi0DWBNg1bW1UXphozvlUyPfD1ny19Tgu6Rt6VT+rS/zMWF63JfIaw5pv8xrIqRakGYQOFAERiEpgDgD/NFa8DyQeS/85vWl8bW3M6+SLYmjbiHH9LU78BaMfksN7LRdM5Rj1AKRSErJDBLpFYHOHSveMTFAxyNENDvms09Cmtm9OYY7XcCijvzrOxGjUlSUAGsWvi4tAJwksVIxQv9mh0v1YRtTmK2zloLeY0wWbFgNXAlg7ozJib5TLFEjGTcgySQBkWWwyWgSyJsDANtZGinPhOeo+t8SoeidFCh5kZet63HUAPpz465lxfnOMg0/e32Akw3H5qbRdAqASJu0kAiLgiQDnp7s0NL/yZEdTp+H4AM7Xt9a9LuxCHcuxHIyMmPPqeOyxcOHzjxxXdbQ6oQYBNlV96LoikC+BDQEwzr1LRfuufLM/k+WlEHjQkYcLS9djL+2tV8Au9NwTwyBzhT8XJoxsmJUIkgDI3W1lvwjkQYDzvzl636WC5ZPmnHlkt7KVDIW7dfHO/ByHmAguTOsee3uxJsFBAF5eOYf57Lido3+SJV/zUExkkSQAsigmGSkCWRNgzPmbPFSurKDbnNgrsBuAqz2wqtuwT9r/od5aAVw5b+4WFwBDE/vwU8a3yCJJAGRRTDJSBLImwLj9kxqYKr9dnvN0K0PpMUY9F0o6E8B9HvhVYTy4zxW9yIYbAJjfYH+uhzDC5CAHy3cKpiwGqkoA5OqmslsE8iDwEk9d2+vlkd0gVvK1Bzl+FMCRAP7k4XXKYMPGEL2n9hYMYiTDZwTJRR4nZfe9j6WQOdMl+SQBkHwRyUARyJrAsR6eqHgOpVkJLAng1b2BeByFv3vvqZ2zDPguuvzjFDdu26+IR7ALgA8CWL/4feXcQ9nOisTLFoaZdo3bwMGufKWTdLIKgEH1qO/uXUZiKIbygdE+wIVaFk66FpVxbSSwqwfhylc4SScJgNGVjipjcZEPNO8DXOv+tUnXoDKurQT4KuA0RxFwVupwJACar+TU0KgM5AOjfeBDqVegsq/VBNjz5DIjgzEeZkuZkATA6IpHFbK4yAea9YE9U644ZVtnCPA9vsu6FUm/vpIAaLaSUyMj/vKBWX3g6NSfnDrT/CmjJPACh1kXHGiZbJIAmLXyUYUsJvKBZn3glxqdnmyb0UXDOGOC41Es9cIKKQOTALAVqsURdIxYyweq+wAD4MybcuUp2zpB4E0AXNZreGrKlO42qhpVZNUrMrESK/mAzQfOUE9Ays1H623jkz+j+lnv3/+kTugih8xZoeg4u0OJndh1zQfYE8AY7UoiEJOAa+PP+/SUmAZbrrWHBIBZ3XWtIlZ+JT6a8gG9DrDU7jrGSsBH4897ZVurAbGOW7yhhSaaqkh0XTVi8oE8fUAiIFar0O3r+Gr8/wtgiRxQvtvTYh2qWPOsWFVuKrdcfCC2COAiPM8FsDqAtwDYpPf3DgBr9GLpa6CivZXjAyjj7r9xgC0XI1qrN/Uu9gA6X40/76ev2bHEP3Jzh3mOuVQeslMNnXwgfx8IKQIY9OXDxSIuXDyHy+FWmSX1OACupvfTYrQ414F/ZbEoD8PIKs1M4OkANi3WdTgAwHkA7qn4+vnWgikHg/J19drFioVzz3xab//5bPyZt0W8WRbpRP8H4BsArlGPgMYFVLw51aDm36DmWIa/8DhF8FkAPlc0Tpd79Hk2Wkf01jFIOhRs4LaFUfAoqH5bMObqeD58jSPrjwfA5aHn8GS/z8afgpC9GFmnuXorcLEA9ScG8gH5gKsPrFo0Brd5agTYkLiKgJcV3cw/BPCYR5tGNXBXAdjOo2DJoWFh5LzvOM6fH8VyeNt1ALgM8vwOUHw2/rRvNwdbdKgIiIAItJbAiwDc6bHBtYiAFXvTs4Ybk9D//xvARwDw4aqtiWx/1EAPMntcuHAUx2zUSb4bf/b6dLnHpw577SsCItBBAhQBdzQgAhhLYB+HkK6+BAJ7BF7XsnLnYL39K46Z8MVx1HkuLZbwZc9OlRSi8dfYjyrktY8IiECnCcQWAbzeZR5Fx6jGp842vif+lmPXdSoO9HoA1yfElgM3d5/SG6DGPxXvkR0iIAKdJBBLBLw/wrvoOo3/4L4ceLhKpqXPp90vRRhDMcirzvezADxjBFs1/iOgaJMIiIAIxCawmufXAVxFsJyXz3exnItdp9FoYt97eyPaY7N3uR4H3f04A7acnslxCWVS41+S0KcIiIAIJEAghAhYAMCRGTRQpeDgFLn3JlAWVUzgbJALMmLLmScvKWxW41+ldLWPCIiACEQm4FsE3JdRA1WKAE5H3CIy97qXYzCfCzNky+V8qwR1Ksti2idH+2vAX13v0f4iIAIiMIYAQ8LenmHjMq2xqPM7ewLePoZP05s5i+KcjpcPy/LbavybdkVdXwREoI0EfPcE1Gl8U9n3gSJOwYsTK1yOpzhRjf8T0R315J+Yc8ocERCB9hBQT8CTawuwuz2VxGh7qQikpuzQk38q3ig7REAEWk0gtZ6A+wFc2Ytp/7tiZcA/A7g5cKN4QiIlTEH2cMC88twMjkSmvy5egfyliOrHqIlNNfSjrqt3/ok4o8wQARHoBgE2PD4jBo6q2Mdt47v4U3rhZVeagHtRAG/orXB3U4BGq+lFZRha1/egP7JlQ8/QvVwfYlxo5IV6SzDvCyAE23FlP7xdjf+EG0A/iYAIiEAoArFfB3C0OGMHPNuQIb4b3gDAnzwKgRuK8MXzGWzxdciOHvPCsQ1fL1ZJXMpgHEXCOwFc5NGe4YZ+1P9q/A2FpUNEQAREwBeBWCKACws9z5PRGxcrAHKBmlGNSt1tn/VkU93TPM1jDwxfZyxe14AR+3P5X45H4JLAdTnW3V+N/4gC0CYREAERiE0gpAjg/PtPBsgQw9DyNULdhmd4/3sAsDs8dmI8/WFb6v7PKId8cvedlg28toMaf98lpvOJgAiIgAMBvi/2HSeAXf7vcrBp2qF8Yj3UQ0O607QLef6drx1cx19wIF/I6YxcgfDnHtgOixqN9vfsTDqdCIiACPggsHzxRHmFp0qf79df6sOoCufgUrnDDU2d/xnTPub8820d7WX43eUqcHHdhWMDjnO0tSwHrtD4hWKBI8Y8UBIBERABEUiQALvDf+pY6XMq3xIR88aeANenVS67Gyv9wYHvIwDWjGVor8H+OID/Oth8N4CmZ1xERKZLiYAIiEDeBN5omKLG3gMO0GviKY+D6m50aKTYNR0j8f06n4bLJ+O6n7FfV5RMOLvgMAAUIFVtpmjYB0BKQZfK/OhTBERABERgAgE25Hza5NS9ywFwjvlg5c8BflcXFfyBACgYOK+9ycTxBoP21fnOwEMxhMtHHGy8NAHGSxfjF7YHcEYxuHPUolB82udSxh8EsFiTzqBri4AIiIAI+CPA9+Ts2n8+gGcm0BiNypnLgjqcDRE6ucxciPmaoioHLg29Qm+KZ5MxFaraq/1EQAREQARaSmAThyfsDwdmwh6GO432MYSvkgiIgAiIgAiIwBgCfA1hDW175Jhz+trM9/91XksM7htanPjKo84jAiIgAiIgAo0RONzY0DLMcMi0odEuCoGYsypCMtC5RUAEREAERCAYgfcZG1rOrw+ZrMv+cqClkgiIgAiIgAiIwBQCXHNgsPu86ndOz5t3yrldfuZsiqq2DO73XZeL6lgREAEREAER6AqBpxgbWja6ltX0qnI9ymjXHlUvoP1EQAREQAREoOsErCvahQyxe7xRADASn5IIiIAIiIAIiEAFAv80NrbrAlg40N/ZRps4pkFJBERABERABESgAoE/GhvbwXfvqXxXHP0KBa5dREAEREAERIAETm6RAHiFilQEREAEREAERKAagX1bIgD+B2DBalnWXiIgAiIgAiIgAoybn0oXvosdv1ZRioAIiIAIiIAIVCfAkMB3tUAEMHiQkgiIgAiIgAiIQA0C+2cuAO5XCOAapa1dRUAEREAERKBHYFEA92QsAr6kkhQBERABERABEbAR+HSmAuBGAE+1ZVlHiYAIiIAIiIAIzAbgxMxEwIMANPVPvisCIiACIiACjgQWAHBRJiLgMQCbOeZXh4uACIiACIiACPQIUAT8OHERwPUL3qoSEwEREAEREAER8EtgdgCfB/BAgkLg3OJVxUp+s6uziYAIiIAIiIAIDBJ4ZrHs7xEA+K7dJUiPj2MvA7ARAI5VUBIBERABERABEYhAgK8F2Ph+B8CFAG4LLAoYmIirFJ4JYBcAK0fIoy4hAiIgAiIgAiIgAiIgAiIgAiIgAiIgAiIgAiIgAiIgAiIgAiIgAiIgAiIgAiIgAiIgAiIgAiIgAiIgWEtAaQAAAC5JREFUAiIgAiIgAiIgAiIgAiIgAiIgAiIgAiIgAiIgAiIgAiIgAiIgAq0n8P8Bnp/0IEHLrhMAAAAASUVORK5CYII=;" parent="wZx2sVjV_vOqR1eELIkU-8" vertex="1">
          <mxGeometry x="37.5" width="50" height="50" as="geometry" />
        </mxCell>
        <mxCell id="wZx2sVjV_vOqR1eELIkU-12" value="" style="group" vertex="1" connectable="0" parent="1">
          <mxGeometry x="770" y="940" width="170" height="171" as="geometry" />
        </mxCell>
        <mxCell id="wZx2sVjV_vOqR1eELIkU-22" value="" style="group" vertex="1" connectable="0" parent="wZx2sVjV_vOqR1eELIkU-12">
          <mxGeometry width="170" height="171" as="geometry" />
        </mxCell>
        <mxCell id="R1Exj3h-KAIHVMebI0o6-44" value="&lt;font style=&quot;font-size: 24px;&quot;&gt;Efficiency&lt;/font&gt;&lt;div&gt;&lt;br&gt;&lt;/div&gt;&lt;div&gt;&lt;br&gt;&lt;/div&gt;&lt;div&gt;&lt;br&gt;&lt;/div&gt;&lt;div&gt;&lt;br&gt;&lt;/div&gt;&lt;div&gt;&lt;br&gt;&lt;/div&gt;&lt;div&gt;&lt;br&gt;&lt;/div&gt;&lt;div&gt;&lt;br&gt;&lt;/div&gt;" style="rounded=0;whiteSpace=wrap;html=1;" parent="wZx2sVjV_vOqR1eELIkU-22" vertex="1">
          <mxGeometry width="170" height="171" as="geometry" />
        </mxCell>
        <mxCell id="R1Exj3h-KAIHVMebI0o6-45" value="&lt;font style=&quot;font-size: 14px;&quot;&gt;Response&amp;nbsp;&lt;/font&gt;&lt;div&gt;&lt;font style=&quot;font-size: 14px;&quot;&gt;Time&lt;/font&gt;&lt;/div&gt;" style="html=1;verticalLabelPosition=bottom;align=center;labelBackgroundColor=#ffffff;verticalAlign=top;strokeWidth=2;strokeColor=#0080F0;shadow=0;dashed=0;shape=mxgraph.ios7.icons.clock;" parent="wZx2sVjV_vOqR1eELIkU-22" vertex="1">
          <mxGeometry x="36" y="69.46875" width="38.52691218130312" height="37.40625" as="geometry" />
        </mxCell>
        <mxCell id="R1Exj3h-KAIHVMebI0o6-46" value="&lt;font style=&quot;font-size: 14px;&quot;&gt;Token&lt;/font&gt;&lt;div&gt;&lt;font style=&quot;font-size: 14px;&quot;&gt;Count&lt;/font&gt;&lt;/div&gt;" style="sketch=0;outlineConnect=0;fontColor=#232F3E;gradientColor=none;fillColor=#232F3D;strokeColor=none;dashed=0;verticalLabelPosition=bottom;verticalAlign=top;align=center;html=1;fontSize=12;fontStyle=0;aspect=fixed;pointerEvents=1;shape=mxgraph.aws4.chat;" parent="wZx2sVjV_vOqR1eELIkU-22" vertex="1">
          <mxGeometry x="99.99900849858356" y="67.655" width="44.980169971671394" height="39.22039660056657" as="geometry" />
        </mxCell>
        <mxCell id="wZx2sVjV_vOqR1eELIkU-19" value="" style="group" vertex="1" connectable="0" parent="1">
          <mxGeometry x="222.28" y="877.5" width="189.99999999999997" height="100" as="geometry" />
        </mxCell>
        <mxCell id="R1Exj3h-KAIHVMebI0o6-50" value="" style="rounded=1;whiteSpace=wrap;html=1;align=right;" parent="wZx2sVjV_vOqR1eELIkU-19" vertex="1">
          <mxGeometry width="190" height="100" as="geometry" />
        </mxCell>
        <mxCell id="R1Exj3h-KAIHVMebI0o6-55" value="" style="sketch=0;outlineConnect=0;fontColor=#232F3E;gradientColor=none;fillColor=#232F3D;strokeColor=none;dashed=0;verticalLabelPosition=bottom;verticalAlign=top;align=center;html=1;fontSize=12;fontStyle=0;aspect=fixed;pointerEvents=1;shape=mxgraph.aws4.question;" parent="wZx2sVjV_vOqR1eELIkU-19" vertex="1">
          <mxGeometry x="23.72" y="25" width="26.28" height="50" as="geometry" />
        </mxCell>
        <mxCell id="wZx2sVjV_vOqR1eELIkU-16" value="&lt;div style=&quot;&quot;&gt;&lt;font&gt;Research&lt;/font&gt;&lt;/div&gt;&lt;div style=&quot;&quot;&gt;&lt;span style=&quot;background-color: transparent; color: light-dark(rgb(0, 0, 0), rgb(255, 255, 255));&quot;&gt;Question&lt;/span&gt;&lt;/div&gt;&lt;div style=&quot;&quot;&gt;&lt;span style=&quot;background-color: transparent; color: light-dark(rgb(0, 0, 0), rgb(255, 255, 255));&quot;&gt;Formulation&lt;/span&gt;&lt;/div&gt;" style="text;strokeColor=none;align=right;fillColor=none;html=1;verticalAlign=middle;whiteSpace=wrap;rounded=0;fontSize=20;" vertex="1" parent="wZx2sVjV_vOqR1eELIkU-19">
          <mxGeometry x="50" y="10" width="130" height="80" as="geometry" />
        </mxCell>
        <mxCell id="wZx2sVjV_vOqR1eELIkU-20" value="" style="group" vertex="1" connectable="0" parent="1">
          <mxGeometry x="222.28" y="1005.5" width="188.63999999999996" height="105" as="geometry" />
        </mxCell>
        <mxCell id="R1Exj3h-KAIHVMebI0o6-51" value="&lt;div style=&quot;text-align: justify;&quot;&gt;&lt;br&gt;&lt;/div&gt;" style="rounded=1;whiteSpace=wrap;html=1;align=left;" parent="wZx2sVjV_vOqR1eELIkU-20" vertex="1">
          <mxGeometry width="188.64" height="105" as="geometry" />
        </mxCell>
        <mxCell id="R1Exj3h-KAIHVMebI0o6-56" value="" style="verticalLabelPosition=bottom;verticalAlign=top;html=1;shape=mxgraph.basic.tick" parent="wZx2sVjV_vOqR1eELIkU-20" vertex="1">
          <mxGeometry x="130" y="32.5" width="38.64" height="40" as="geometry" />
        </mxCell>
        <mxCell id="wZx2sVjV_vOqR1eELIkU-13" value="&lt;div style=&quot;text-align: justify;&quot;&gt;&lt;span style=&quot;background-color: transparent; color: light-dark(rgb(0, 0, 0), rgb(255, 255, 255));&quot;&gt;Answers to&lt;/span&gt;&lt;/div&gt;&lt;div style=&quot;text-align: left;&quot;&gt;&lt;div style=&quot;text-align: justify;&quot;&gt;&lt;span style=&quot;background-color: transparent; color: light-dark(rgb(0, 0, 0), rgb(255, 255, 255));&quot;&gt;Research&lt;/span&gt;&lt;/div&gt;&lt;div style=&quot;text-align: justify;&quot;&gt;&lt;font&gt;Questions&lt;/font&gt;&lt;/div&gt;&lt;/div&gt;" style="text;strokeColor=none;align=center;fillColor=none;html=1;verticalAlign=middle;whiteSpace=wrap;rounded=0;fontSize=20;" vertex="1" parent="wZx2sVjV_vOqR1eELIkU-20">
          <mxGeometry x="10" y="12.5" width="130" height="80" as="geometry" />
        </mxCell>
        <mxCell id="wZx2sVjV_vOqR1eELIkU-14" style="edgeStyle=orthogonalEdgeStyle;rounded=0;orthogonalLoop=1;jettySize=auto;html=1;exitX=0.5;exitY=1;exitDx=0;exitDy=0;" edge="1" parent="wZx2sVjV_vOqR1eELIkU-20" source="wZx2sVjV_vOqR1eELIkU-13" target="wZx2sVjV_vOqR1eELIkU-13">
          <mxGeometry relative="1" as="geometry" />
        </mxCell>
        <mxCell id="wZx2sVjV_vOqR1eELIkU-21" value="" style="group" vertex="1" connectable="0" parent="1">
          <mxGeometry x="560" y="940" width="200" height="170.5" as="geometry" />
        </mxCell>
        <mxCell id="R1Exj3h-KAIHVMebI0o6-38" value="&lt;font style=&quot;font-size: 24px;&quot;&gt;Quality&lt;/font&gt;&lt;div&gt;&lt;div&gt;&lt;br&gt;&lt;/div&gt;&lt;div&gt;&lt;br&gt;&lt;/div&gt;&lt;div&gt;&lt;br&gt;&lt;/div&gt;&lt;/div&gt;&lt;div&gt;&lt;br&gt;&lt;/div&gt;&lt;div&gt;&lt;br&gt;&lt;/div&gt;&lt;div&gt;&lt;br&gt;&lt;/div&gt;&lt;div&gt;&lt;br&gt;&lt;/div&gt;" style="rounded=0;whiteSpace=wrap;html=1;" parent="wZx2sVjV_vOqR1eELIkU-21" vertex="1">
          <mxGeometry width="200" height="170.5" as="geometry" />
        </mxCell>
        <mxCell id="R1Exj3h-KAIHVMebI0o6-40" value="&lt;font style=&quot;font-size: 16px;&quot;&gt;Automated&lt;/font&gt;&lt;div&gt;&lt;font style=&quot;font-size: 16px;&quot;&gt;Metrics&lt;/font&gt;&lt;/div&gt;" style="sketch=0;outlineConnect=0;fontColor=#232F3E;gradientColor=none;strokeColor=#232F3E;fillColor=#ffffff;dashed=0;verticalLabelPosition=bottom;verticalAlign=top;align=center;html=1;fontSize=12;fontStyle=0;aspect=fixed;shape=mxgraph.aws4.resourceIcon;resIcon=mxgraph.aws4.automation;" parent="wZx2sVjV_vOqR1eELIkU-21" vertex="1">
          <mxGeometry x="31.57894736842105" y="65.50103448275866" width="46" height="46" as="geometry" />
        </mxCell>
        <mxCell id="R1Exj3h-KAIHVMebI0o6-41" value="&lt;font style=&quot;font-size: 16px;&quot;&gt;Human Evaluation&lt;/font&gt;" style="shape=actor;whiteSpace=wrap;html=1;labelPosition=center;verticalLabelPosition=bottom;align=center;verticalAlign=top;fontSize=11;" parent="wZx2sVjV_vOqR1eELIkU-21" vertex="1">
          <mxGeometry x="136.8421052631579" y="79.43448275862067" width="31.57894736842105" height="32.068965517241374" as="geometry" />
        </mxCell>
      </root>
    </mxGraphModel>
  </diagram>
</mxfile>
